<!DOCTYPE svg PUBLIC "-//W3C//DTD SVG 20010904//EN" "http://www.w3.org/TR/2001/REC-SVG-20010904/DTD/svg10.dtd">
<svg version="1.0" xmlns="http://www.w3.org/2000/svg" width="225px" height="225px" viewBox="0 0 2250 2250" preserveAspectRatio="xMidYMid meet">
<g id="layer101" fill="#000000" stroke="none">
 <path d="M1589 2160 c-110 -17 -209 -69 -297 -154 -109 -105 -162 -233 -162 -390 0 -165 44 -270 160 -386 91 -92 173 -135 296 -157 138 -23 284 8 396 85 330 228 323 707 -14 923 -102 66 -256 98 -379 79z m184 -145 c83 -22 133 -50 193 -109 107 -108 146 -247 109 -389 -22 -84 -50 -134 -111 -194 -160 -160 -418 -160 -580 1 -223 224 -119 608 186 690 72 19 132 19 203 1z"/>
 <path d="M1610 1510 l0 -170 71 0 70 0 -2 103 -2 102 102 3 101 3 0 64 0 65 -170 0 -170 0 0 -170z"/>
 <path d="M155 1945 c-49 -17 -107 -80 -123 -133 -16 -52 -17 -1369 -2 -1424 12 -42 47 -87 93 -120 29 -21 47 -24 172 -28 l140 -5 3 -77 3 -78 64 0 64 0 3 78 3 77 413 3 412 2 0 -80 0 -80 70 0 70 0 0 80 0 80 93 0 c132 1 194 33 232 122 12 31 15 87 15 317 l0 279 -47 -14 c-38 -12 -191 -14 -860 -14 l-813 0 0 423 c0 412 1 424 20 445 21 22 22 22 430 22 l410 0 21 43 c12 23 30 54 41 70 l19 27 -453 0 c-362 -1 -461 -4 -493 -15z m1590 -1342 c0 -176 -1 -183 -23 -205 -19 -19 -35 -23 -102 -26 l-80 -4 0 106 0 106 -70 0 -70 0 0 -105 0 -105 -412 2 -413 3 -3 103 -3 102 -64 0 -64 0 -3 -102 -3 -103 -118 0 c-164 0 -157 -10 -157 231 l0 184 793 -2 792 -3 0 -182z"/>
 <path d="M370 1550 l0 -70 240 0 240 0 0 70 0 70 -240 0 -240 0 0 -70z"/>
 <path d="M370 1200 l0 -70 240 0 240 0 0 70 0 70 -240 0 -240 0 0 -70z"/>
 </g>

</svg>