<!DOCTYPE svg PUBLIC "-//W3C//DTD SVG 20010904//EN" "http://www.w3.org/TR/2001/REC-SVG-20010904/DTD/svg10.dtd">
<svg version="1.0" xmlns="http://www.w3.org/2000/svg" width="980px" height="980px" viewBox="0 0 9800 9800" preserveAspectRatio="xMidYMid meet">
<g id="layer101" fill="#030303" stroke="none">
 <path d="M1553 9784 c-275 -40 -536 -140 -764 -292 -399 -267 -661 -667 -761 -1162 l-23 -115 0 -3315 0 -3315 23 -114 c82 -403 291 -776 575 -1022 270 -234 603 -384 962 -434 97 -14 494 -15 3385 -13 l3275 3 110 23 c374 80 695 249 942 498 250 252 414 562 495 939 20 95 21 130 25 760 l4 660 -33 -31 c-44 -43 -205 -147 -298 -194 -91 -46 -198 -80 -251 -80 l-39 0 0 -429 c0 -470 -5 -529 -60 -693 -62 -185 -156 -336 -299 -479 -143 -143 -294 -237 -479 -299 -192 -64 52 -60 -3442 -60 -3494 0 -3250 -4 -3442 60 -430 144 -745 513 -823 964 -13 78 -15 456 -15 3256 0 2869 2 3175 16 3260 44 256 158 475 344 660 185 186 404 300 660 344 85 14 391 16 3260 16 2869 0 3175 -2 3260 -16 256 -44 475 -158 660 -344 186 -185 300 -404 344 -660 14 -83 16 -241 16 -1375 l0 -1281 310 -303 311 -303 -4 1668 -3 1669 -22 100 c-83 381 -247 691 -497 940 -250 250 -566 418 -940 497 l-110 23 -3290 1 c-2713 2 -3306 0 -3382 -12z"/>
 <path d="M1830 7040 l0 -310 1535 0 1535 0 0 310 0 310 -1535 0 -1535 0 0 -310z"/>
 <path d="M5510 6918 l0 -433 1655 -1625 c1100 -1080 1671 -1633 1701 -1649 38 -21 63 -25 170 -29 220 -8 199 -20 475 255 278 276 275 270 273 458 -1 195 181 -6 -1657 1833 l-1622 1622 -497 0 -498 0 0 -432z"/>
 <path d="M1830 5820 l0 -310 1937 0 1938 0 -310 310 -310 310 -1627 0 -1628 0 0 -310z"/>
 <path d="M1830 4590 l0 -310 2552 0 2553 0 -310 310 -310 310 -2242 0 -2243 0 0 -310z"/>
 <path d="M1830 3370 l0 -310 3070 0 3070 0 0 93 0 92 -218 218 -217 217 -2853 0 -2852 0 0 -310z"/>
 <path d="M1830 2140 l0 -310 3070 0 3070 0 0 310 0 310 -3070 0 -3070 0 0 -310z"/>
 </g>

</svg>