<!DOCTYPE svg PUBLIC "-//W3C//DTD SVG 20010904//EN" "http://www.w3.org/TR/2001/REC-SVG-20010904/DTD/svg10.dtd">
<svg version="1.0" xmlns="http://www.w3.org/2000/svg" width="800px" height="898px" viewBox="0 0 8000 8980" preserveAspectRatio="xMidYMid meet">
<g id="layer101" fill="#000000" stroke="none">
 <path d="M0 4490 l0 -4490 4000 0 4000 0 0 4490 0 4490 -4000 0 -4000 0 0 -4490z"/>
 </g>
<g id="layer102" fill="#dddddd" stroke="none">
 <path d="M1 8498 c1 -266 4 -469 6 -453 35 296 179 547 416 726 44 33 105 73 136 88 89 45 229 91 321 106 78 12 43 13 -397 14 l-483 1 1 -482z"/>
 <path d="M7050 8975 c8 -2 49 -9 90 -15 434 -71 798 -453 849 -893 6 -47 9 97 10 421 l1 492 -482 -1 c-266 -1 -476 -3 -468 -4z"/>
 <path d="M969 8360 c-145 -25 -281 -144 -336 -295 -17 -48 -18 -168 -21 -2797 l-2 -2748 3385 0 3385 0 1 103 c0 56 1 1292 1 2747 0 2628 0 2645 -20 2697 -62 161 -180 263 -338 292 -68 13 -5980 14 -6055 1z m1331 -1560 l0 -500 -565 0 -565 0 0 500 0 500 565 0 565 0 0 -500z m1510 0 l0 -500 -565 0 -565 0 0 500 0 500 565 0 565 0 0 -500z m1510 0 l0 -500 -565 0 -565 0 0 500 0 500 565 0 565 0 0 -500z m1510 0 l0 -500 -565 0 -565 0 0 500 0 500 565 0 565 0 0 -500z m-4530 -1345 l0 -505 -565 0 -565 0 0 505 0 505 565 0 565 0 0 -505z m1510 0 l0 -505 -565 0 -565 0 0 505 0 505 565 0 565 0 0 -505z m1510 0 l0 -505 -565 0 -565 0 0 505 0 505 565 0 565 0 0 -505z m1510 0 l0 -505 -565 0 -565 0 0 505 0 505 565 0 565 0 0 -505z m-4532 -1343 l2 -502 -565 0 -565 0 0 499 c0 460 1 500 17 503 9 2 262 3 562 3 l546 -1 3 -502z m1485 499 l27 -1 0 -500 0 -500 -565 0 -565 0 0 503 0 502 538 -1 c295 -1 549 -2 565 -3z m1530 0 c4 -1 7 -226 7 -501 l0 -500 -565 0 -565 0 0 503 0 502 558 -1 c306 -1 560 -2 565 -3z m1465 0 l52 -1 0 -500 0 -500 -565 0 -565 0 0 499 c0 354 3 500 11 503 9 3 903 2 1067 -1z"/>
 <path d="M1974 2189 c-94 -27 -184 -125 -204 -222 -7 -37 -10 -259 -8 -708 l3 -654 24 -53 c44 -98 154 -172 256 -172 113 0 204 59 257 168 l33 67 3 635 c3 662 1 714 -39 793 -59 115 -205 181 -325 146z"/>
 <path d="M3961 2189 c-83 -25 -158 -97 -191 -188 -20 -52 -20 -73 -18 -730 l3 -676 27 -51 c136 -259 489 -196 538 95 7 45 10 269 8 691 -3 622 -3 625 -26 681 -55 138 -206 216 -341 178z"/>
 <path d="M5960 2191 c-84 -26 -148 -81 -192 -164 l-23 -42 -3 -675 c-2 -607 -1 -679 14 -727 20 -64 78 -133 142 -171 41 -23 58 -27 127 -27 63 0 89 5 122 23 60 32 111 86 142 151 l26 56 3 644 c3 702 2 717 -54 805 -64 101 -201 158 -304 127z"/>
 <path d="M7987 1893 c-37 -387 -350 -755 -738 -867 -123 -35 -218 -46 -404 -46 l-163 0 -4 -217 c-4 -193 -7 -226 -27 -288 -63 -193 -223 -361 -403 -425 -125 -44 -279 -49 -400 -14 -159 47 -330 189 -401 335 -63 129 -77 204 -77 421 l0 188 -341 0 -342 0 5 -115 c8 -164 -5 -317 -32 -395 -71 -204 -228 -362 -423 -426 -68 -23 -101 -27 -192 -28 -127 -1 -200 17 -310 73 -100 51 -227 180 -277 281 -61 125 -70 171 -75 403 l-5 207 -334 0 -334 0 0 -157 c0 -185 -10 -266 -45 -366 -69 -196 -220 -346 -414 -410 -353 -117 -711 76 -832 448 -19 61 -23 97 -27 278 l-4 207 -198 0 c-109 0 -233 5 -276 11 -474 66 -843 434 -903 901 -5 36 -9 -354 -10 -914 l-1 -978 4000 0 4000 0 0 980 c0 539 -2 980 -4 980 -2 0 -6 -30 -9 -67z"/>
 </g>
<g id="layer103" fill="#fcfcfc" stroke="none">
 <path d="M150 8915 l0 -65 -75 0 -75 0 0 -75 0 -75 75 0 76 0 -3 -72 -3 -73 -73 -3 -72 -3 1 -109 c2 -110 2 -110 26 -110 19 0 24 -4 19 -16 -3 -9 -6 -20 -6 -25 0 -6 -5 -7 -12 -3 -8 5 -9 0 -6 -14 4 -15 2 -22 -8 -22 -11 0 -14 -20 -13 -97 l1 -98 19 85 c11 47 18 95 16 107 -2 13 2 24 10 27 8 3 12 10 8 15 -3 5 -1 12 4 15 5 3 23 35 39 71 40 85 108 187 165 251 26 28 43 55 39 60 -4 5 -3 6 1 2 5 -3 47 24 93 62 46 37 110 81 142 98 64 34 109 66 80 56 -15 -5 -18 0 -18 35 l0 41 -75 0 -75 0 0 -65 0 -66 -72 3 -73 3 -3 63 -3 62 -74 0 -75 0 0 -65z m146 -143 l2 -73 -72 3 -71 3 -3 59 c-4 86 -3 87 75 84 l68 -3 1 -73z"/>
 <path d="M713 8960 c3 -10 2 -19 -2 -18 -3 1 -22 -6 -41 -15 -22 -11 -26 -14 -10 -10 14 3 34 7 45 9 11 1 54 11 95 23 41 11 86 22 100 24 14 2 -16 5 -67 6 -65 1 -93 -3 -96 -11 -4 -10 -6 -10 -6 0 -1 6 -6 12 -12 12 -6 0 -9 -9 -6 -20z"/>
 <path d="M7081 8976 c11 -10 119 -17 119 -7 0 7 -24 11 -62 11 -34 0 -59 -2 -57 -4z"/>
 <path d="M7213 8968 c2 -7 13 -13 25 -12 12 0 19 -3 16 -7 -2 -4 9 -10 26 -14 16 -4 30 -11 30 -16 0 -5 6 -9 13 -9 22 0 188 -89 243 -130 30 -22 56 -40 59 -40 12 1 168 -171 188 -208 83 -147 108 -198 123 -243 10 -30 20 -56 23 -59 3 -3 7 -14 7 -25 1 -11 9 -51 17 -90 l15 -70 1 77 c0 42 -3 88 -9 103 -7 17 -7 24 0 20 6 -4 10 23 10 74 0 80 0 81 -25 81 -20 0 -25 -5 -26 -27 -1 -16 -1 -34 0 -42 2 -7 -3 -10 -9 -6 -6 4 -9 14 -6 22 3 8 2 12 -3 9 -5 -3 -11 3 -14 14 -3 13 1 21 14 25 16 6 19 16 19 81 0 72 1 74 25 74 24 0 25 2 25 75 0 74 0 75 -25 75 -26 0 -26 1 -23 73 3 66 5 72 26 75 20 3 22 9 22 68 0 62 -1 64 -25 64 -24 0 -25 -2 -25 -65 l0 -65 -75 0 -75 0 0 65 0 65 -75 0 -75 0 0 -65 0 -65 -75 1 c-42 1 -78 5 -81 10 -3 5 2 6 10 3 9 -3 16 -1 16 5 0 6 -4 11 -10 11 -5 0 -10 23 -10 50 l0 50 -74 0 -73 0 -7 -32 c-6 -29 -8 -31 -20 -16 -6 9 -21 16 -32 15 -13 -1 -18 3 -16 16 2 13 -4 17 -33 17 -25 0 -35 -4 -32 -12z m585 -190 l-3 -73 -57 0 c-41 -1 -58 3 -58 12 0 7 -5 12 -11 11 -6 -2 -14 3 -17 11 -2 8 0 11 6 7 6 -3 14 -2 17 4 4 6 1 9 -7 8 -9 -2 -14 11 -16 45 l-3 47 76 0 76 0 -3 -72z m150 -150 l-3 -73 -65 -1 c-74 -2 -86 2 -69 22 8 10 8 14 0 14 -7 0 -11 21 -11 55 l0 55 75 0 76 0 -3 -72z"/>
 <path d="M998 8360 c-7 -4 -35 -11 -63 -15 -58 -8 -93 -25 -156 -74 -51 -39 -135 -153 -125 -169 3 -5 26 -7 51 -4 l45 5 0 -78 0 -77 -65 4 c-53 3 -66 1 -69 -12 -8 -30 0 -5395 7 -5407 7 -10 372 -13 1773 -13 1174 0 1763 3 1759 10 -3 6 -2 10 4 10 5 0 18 3 28 6 16 5 16 4 -1 -10 -18 -15 120 -16 1587 -16 l1607 0 0 94 c0 74 -3 95 -15 100 -21 8 -21 86 0 86 13 0 15 17 13 118 -2 87 -6 116 -15 114 -9 -1 -13 13 -13 48 0 38 4 50 15 50 21 0 22 168 1 176 -20 8 -22 134 -1 134 12 0 15 15 15 80 0 64 -3 80 -15 80 -11 0 -15 12 -15 50 0 38 4 50 15 50 12 0 15 18 15 104 0 83 -3 105 -15 110 -10 3 -15 19 -15 46 0 29 4 40 15 40 12 0 15 19 15 111 0 98 -2 110 -15 99 -18 -15 -20 1 -2 19 10 11 10 13 0 7 -10 -5 -13 7 -13 48 0 45 3 54 15 50 13 -5 15 8 15 80 0 64 -4 88 -14 92 -20 8 -22 134 -1 134 12 0 15 15 15 80 0 64 -3 80 -15 80 -11 0 -15 12 -15 50 0 38 4 50 15 50 12 0 15 18 15 104 0 83 -3 105 -15 110 -10 3 -15 19 -15 46 0 29 4 40 15 40 12 0 15 19 15 111 0 89 -3 110 -13 106 -11 -4 -14 9 -16 54 -2 48 1 59 13 59 13 0 16 15 16 85 0 63 -4 87 -14 91 -20 8 -22 134 -1 134 12 0 15 15 15 80 0 64 -3 80 -15 80 -11 0 -15 12 -15 50 0 38 4 50 15 50 12 0 15 18 15 104 0 83 -3 105 -15 110 -10 3 -15 19 -15 46 0 29 4 40 15 40 12 0 15 19 15 111 0 98 -2 110 -15 99 -18 -15 -20 1 -2 19 10 11 10 13 0 7 -10 -5 -13 7 -13 48 0 45 3 54 15 50 13 -5 15 8 15 80 0 64 -4 88 -14 92 -20 8 -22 134 -1 134 12 0 15 15 15 80 0 64 -3 80 -15 80 -11 0 -15 12 -15 50 0 38 4 50 15 50 22 0 22 205 0 214 -10 3 -15 19 -15 46 0 29 4 40 15 40 12 0 15 19 15 111 0 98 -2 110 -15 99 -18 -15 -20 1 -2 19 10 11 9 12 -1 7 -10 -6 -12 3 -10 41 2 35 7 47 17 45 22 -5 7 103 -26 185 -49 124 -191 237 -311 248 -32 3 -42 1 -32 -5 8 -5 23 -10 33 -10 15 0 18 -7 15 -42 l-3 -43 -72 -3 -73 -3 0 29 c0 16 7 35 16 42 12 11 15 11 12 -1 -2 -8 -7 -17 -13 -21 -13 -9 1 -22 14 -13 6 3 11 17 11 30 0 15 7 26 21 30 11 4 18 10 14 13 -9 9 -5960 10 -5977 2z m37 -20 c-3 -5 -1 -10 5 -10 7 0 10 -15 8 -37 l-3 -38 -72 -3 -73 -3 0 29 c0 38 21 55 79 63 25 3 50 7 54 8 5 0 5 -3 2 -9z m250 -15 c-3 -24 -3 -24 31 -10 l34 14 0 -40 0 -39 -75 0 -75 0 0 -75 0 -75 75 0 75 0 0 -75 0 -75 -75 0 -75 0 0 -75 0 -75 75 0 74 0 3 73 3 72 73 3 72 3 0 -76 0 -75 -75 0 -75 0 0 -75 0 -75 -75 0 -75 0 0 -75 0 -75 75 0 76 0 -3 -72 -3 -73 -69 -3 c-51 -2 -73 -8 -84 -20 -7 -9 -11 -12 -8 -6 2 5 -6 10 -18 10 -19 0 -34 -24 -17 -27 3 0 264 -2 580 -3 l574 -3 0 -286 c0 -158 4 -287 8 -287 5 0 9 5 9 10 0 6 18 10 40 10 l40 0 0 75 0 75 -40 0 c-46 0 -53 14 -48 96 l3 49 43 3 42 3 0 75 0 74 -46 0 -45 0 4 65 c2 35 0 62 -5 59 -4 -3 -8 1 -8 8 0 10 -2 10 -9 -1 -6 -9 -11 -10 -15 -2 -4 6 -12 9 -17 6 -5 -4 -9 -1 -9 4 0 7 29 11 75 11 l75 0 0 75 0 75 -75 0 -75 0 0 75 0 75 75 0 75 0 0 75 0 75 -75 0 -74 0 -3 -72 -3 -73 -72 -3 -73 -3 0 76 0 75 75 0 75 0 0 75 0 75 75 0 75 0 0 75 0 75 -75 0 -76 0 3 73 3 72 73 3 72 3 0 49 0 50 45 0 c33 0 43 -3 39 -14 -6 -17 27 -27 50 -14 14 8 16 3 16 -32 l0 -40 -75 0 -75 0 0 -75 0 -75 75 0 75 0 0 -75 0 -75 -75 0 -75 0 0 -75 0 -75 75 0 74 0 3 73 3 72 73 3 72 3 0 -76 0 -75 -75 0 -75 0 0 -75 0 -75 -75 0 -75 0 0 -75 0 -75 75 0 75 0 0 -75 0 -74 73 -3 c65 -3 72 -5 70 -23 -2 -20 4 -20 560 -19 309 0 567 2 574 2 7 1 10 9 6 19 -6 15 -7 15 -14 -3 -7 -18 -8 -18 -8 1 -1 15 -3 17 -10 6 -6 -9 -11 -10 -15 -2 -4 6 -12 11 -17 11 -6 0 -8 -4 -5 -8 3 -5 -1 -9 -9 -9 -11 0 -12 4 -4 14 8 8 35 13 80 13 l69 0 0 -75 0 -75 75 0 75 0 0 75 0 75 75 0 c72 0 75 -1 75 -23 l0 -23 503 1 c277 0 529 -2 561 -5 l57 -5 -1 -484 c0 -349 3 -487 11 -497 6 -8 8 -14 3 -15 -56 -5 -1137 -2 -1141 4 -2 4 -4 230 -4 503 1 352 -2 493 -9 489 -6 -4 -10 -17 -9 -28 5 -66 4 -67 -61 -67 l-60 0 0 -75 0 -75 -75 0 -75 0 0 75 0 75 -41 0 -41 0 3 44 c2 24 1 42 -3 40 -12 -8 -9 -654 3 -654 7 0 8 -4 2 -12 -5 -7 -10 -54 -12 -104 -2 -77 0 -92 14 -98 13 -5 15 -2 10 15 -6 18 -3 20 27 17 l33 -3 3 -72 3 -72 72 -3 72 -3 0 -70 0 -70 -70 0 -70 0 -3 71 -3 71 -587 -2 c-323 -1 -597 0 -609 3 -12 2 -25 14 -29 25 -7 22 -7 22 -15 -1 -8 -20 -14 -23 -56 -20 l-48 3 0 70 0 70 53 3 52 3 0 -31 c0 -19 4 -29 10 -25 13 8 12 245 -1 245 -5 0 -9 -9 -9 -20 0 -18 -7 -20 -55 -20 l-55 0 0 -75 0 -75 -75 0 -75 0 0 -75 0 -75 75 0 75 0 0 -75 0 -75 75 0 75 0 0 -75 0 -75 49 0 c34 0 51 -4 55 -15 4 -12 -4 -15 -45 -15 -35 0 -51 4 -55 15 -5 11 -24 15 -80 15 l-74 0 0 -75 0 -75 -75 0 -75 0 0 -75 0 -75 75 0 75 0 0 -75 0 -75 -75 0 -75 0 0 -75 0 -75 75 0 74 0 3 73 c3 71 3 72 32 75 47 6 76 -6 77 -31 1 -18 2 -17 10 8 5 17 9 76 8 133 -1 99 -2 102 -18 80 -8 -13 -15 -27 -13 -31 1 -4 -19 -7 -45 -5 l-48 3 0 70 0 70 53 3 52 3 0 -33 c0 -25 3 -29 10 -18 5 8 10 48 10 88 l0 72 565 0 565 0 1 -132 c0 -73 0 -193 -1 -265 -1 -97 2 -133 11 -133 7 0 8 -4 2 -12 -5 -7 -10 -56 -12 -109 -2 -82 -1 -96 13 -96 11 0 14 6 10 19 -5 17 -1 19 28 16 l33 -3 3 -72 3 -72 72 -3 72 -3 0 -70 0 -70 -70 0 -70 0 -3 73 -3 72 -34 0 c-36 0 -39 3 -49 75 -2 17 -3 -1 -3 -40 1 -38 0 -96 -1 -127 l-2 -58 -565 0 -565 0 0 83 c0 45 -5 89 -10 97 -8 12 -10 11 -10 -8 0 -21 -4 -23 -52 -20 l-53 3 0 70 0 70 50 0 c44 0 50 -3 53 -22 2 -13 7 -23 12 -23 5 0 9 54 9 120 0 67 -5 120 -10 120 -5 0 -9 -9 -9 -20 0 -18 -7 -20 -55 -20 l-55 0 0 -75 0 -75 -75 0 -75 0 0 -75 0 -75 75 0 75 0 0 -75 0 -75 56 0 c30 0 53 -4 50 -9 -3 -5 1 -11 9 -15 8 -3 15 -13 15 -23 0 -15 2 -16 10 -3 7 11 10 -2 10 -42 l0 -58 75 0 75 0 0 54 c0 80 27 98 119 80 31 -6 31 -7 31 -70 l0 -64 75 0 75 0 0 54 c0 70 15 86 81 86 37 0 49 -4 49 -15 0 -8 4 -15 10 -15 5 0 9 -3 9 -7 -1 -5 -1 -29 0 -55 l1 -48 75 0 75 0 0 64 c0 74 2 76 91 76 l59 0 0 -70 0 -70 75 0 75 0 0 44 c0 37 4 45 22 50 23 6 23 6 3 23 -17 14 -18 15 -2 9 11 -3 25 1 34 10 13 13 17 13 24 2 7 -10 9 -10 9 0 0 7 13 12 30 12 l30 0 0 -75 0 -75 75 0 75 0 0 75 0 75 55 0 c48 0 57 -3 65 -22 5 -13 9 -18 10 -13 0 6 5 3 10 -5 5 -8 10 -36 10 -62 l0 -48 75 0 75 0 0 60 c0 69 11 80 84 80 34 0 46 -4 46 -15 0 -8 4 -15 10 -15 5 0 9 -3 9 -7 -1 -5 -1 -29 0 -55 l1 -48 75 0 75 0 0 58 c0 32 5 63 12 70 7 7 39 12 75 12 l63 0 0 -70 0 -70 75 0 75 0 1 50 c1 28 3 55 4 60 1 6 3 15 4 20 2 15 91 13 91 -2 0 -9 3 -9 9 1 5 8 16 11 25 8 12 -5 16 -21 16 -72 l0 -65 75 0 75 0 0 46 c0 32 3 43 12 38 8 -5 9 -2 5 10 -4 10 -3 15 3 11 6 -3 10 0 11 7 0 10 2 10 6 1 3 -10 9 -9 20 3 9 8 24 13 34 11 12 -3 16 0 12 9 -4 10 3 14 21 14 26 0 26 -1 26 -75 l0 -75 75 0 75 0 0 75 0 75 63 0 c36 0 68 -5 75 -12 7 -7 12 -39 12 -75 l0 -63 75 0 75 0 0 58 c0 32 5 63 12 70 7 7 39 12 75 12 l63 0 0 -70 0 -70 75 0 75 0 1 50 c1 28 3 55 4 60 1 6 3 15 4 20 2 15 91 13 91 -2 0 -9 3 -9 9 1 5 8 16 11 25 8 12 -5 16 -21 16 -72 l0 -65 75 0 75 0 0 54 c0 36 5 60 16 70 17 18 70 21 108 6 24 -9 26 -14 26 -70 l0 -60 75 0 74 0 3 63 c3 60 4 62 32 65 24 3 28 1 22 -13 -5 -13 -2 -16 10 -11 8 3 25 6 37 7 20 1 20 2 -3 9 -24 8 -24 8 -2 9 12 1 22 6 22 11 0 6 7 10 15 10 12 0 15 -15 15 -75 l0 -75 75 0 75 0 0 75 0 75 75 0 75 0 0 75 0 75 -75 0 -75 0 0 75 0 75 75 0 75 0 0 75 0 75 -75 0 -74 0 -3 -72 -3 -73 -72 -3 -73 -3 0 76 0 75 75 0 75 0 0 75 0 75 75 0 75 0 0 75 0 75 -75 0 -76 0 3 73 3 72 73 3 72 3 0 74 0 75 -75 0 -74 0 -3 -72 -3 -73 -72 -3 -73 -3 0 76 0 75 -74 0 c-53 0 -77 -4 -86 -15 -17 -21 -128 -21 -136 0 -5 11 -24 15 -80 15 l-74 0 0 75 0 75 75 0 75 0 0 -69 c0 -38 3 -76 6 -85 7 -17 34 -22 34 -6 0 6 18 10 40 10 23 0 40 -5 40 -11 0 -8 5 -8 15 1 11 9 15 33 15 86 l0 74 75 0 75 0 0 -75 0 -75 75 0 75 0 0 75 0 75 75 0 75 0 0 75 0 75 -75 0 -75 0 0 75 0 75 75 0 75 0 0 75 0 75 -75 0 -74 0 -3 -72 -3 -73 -72 -3 -73 -3 0 76 0 75 75 0 75 0 0 75 0 75 75 0 75 0 0 75 0 75 -75 0 -76 0 3 73 3 72 73 3 72 3 0 74 0 75 -75 0 -74 0 -3 -72 -3 -73 -72 -3 -73 -3 0 76 0 75 -29 0 c-28 0 -30 3 -34 43 -2 23 -4 -32 -3 -123 0 -91 2 -145 5 -120 5 40 9 45 31 45 24 0 25 -3 28 -72 l3 -72 72 -3 72 -3 0 -70 0 -70 -70 0 -70 0 -3 73 c-2 63 -5 72 -22 72 -10 0 -25 3 -34 6 -14 5 -16 -5 -16 -79 l0 -85 33 2 32 1 0 -70 0 -70 -33 2 -33 1 3 -81 3 -81 30 -1 30 0 0 -70 c0 -68 -1 -70 -26 -71 -23 -1 -26 3 -28 45 -3 65 -11 65 -11 0 l0 -54 -472 2 c-260 1 -504 -1 -543 -4 l-70 -7 50 -6 50 -5 0 -60 0 -60 -70 0 -70 0 -3 51 c-3 45 0 52 18 57 23 6 27 27 5 27 -8 0 -21 12 -29 28 -14 25 -15 26 -16 5 0 -21 -4 -23 -65 -23 l-64 0 -3 -72 -3 -73 -70 0 -70 0 -3 73 -3 72 75 0 75 0 3 73 3 72 63 3 c59 3 62 2 62 -20 0 -19 2 -20 10 -8 5 8 10 56 10 105 0 50 -5 97 -10 105 -8 12 -10 11 -10 -7 0 -22 -4 -23 -65 -23 l-65 0 0 -75 0 -75 -75 0 -74 0 -3 -72 c-2 -60 -6 -73 -20 -76 -32 -6 -48 23 -48 87 l0 61 35 0 35 0 0 74 0 75 -32 3 -33 3 0 70 0 70 32 3 32 3 3 72 3 72 73 3 72 3 0 -76 0 -75 65 0 65 0 0 -32 c0 -25 3 -29 10 -18 5 8 10 60 10 115 0 55 -5 107 -10 115 -8 12 -10 11 -10 -8 0 -22 -3 -23 -62 -20 l-63 3 0 70 0 70 63 3 62 3 0 -33 c0 -25 3 -29 10 -18 6 8 9 75 8 153 0 75 2 140 6 144 4 5 260 8 569 9 309 0 567 2 573 2 21 3 10 28 -12 28 -12 0 -21 -3 -19 -6 2 -4 -2 -7 -10 -7 -8 0 -12 4 -9 9 7 12 -20 10 -32 -2 -7 -7 -11 -6 -11 5 0 12 14 15 74 15 l73 0 0 -75 0 -75 75 0 75 0 0 75 0 75 75 0 75 0 0 75 0 75 -75 0 -75 0 0 75 0 75 75 0 75 0 0 75 0 75 -75 0 -74 0 -3 -72 -3 -73 -72 -3 -73 -3 0 76 0 75 75 0 75 0 0 75 0 75 75 0 75 0 0 75 0 75 -75 0 -76 0 3 73 3 72 73 3 72 3 0 -76 0 -75 58 0 c82 0 94 -11 90 -85 l-3 -60 -72 -3 -73 -3 0 -74 0 -75 68 -1 c37 0 61 -3 55 -6 -20 -7 -15 -22 5 -18 27 5 31 -81 5 -102 -17 -14 -17 -14 0 -9 11 3 16 2 12 -4 -3 -6 -37 -10 -76 -10 l-69 0 0 -75 0 -75 63 0 c58 0 63 -2 74 -27 17 -36 17 -124 1 -122 -7 1 -41 1 -75 0 l-63 -1 0 -75 0 -75 75 0 75 0 0 -75 0 -75 -75 0 -75 0 0 -75 0 -75 75 0 75 0 0 -49 c0 -28 -4 -53 -10 -56 -6 -3 -10 -14 -10 -23 0 -15 2 -15 10 -2 8 13 10 12 10 -2 0 -16 -10 -18 -75 -18 l-75 0 0 -75 0 -75 73 -1 c39 -1 64 -3 55 -6 -24 -6 -23 -23 0 -18 27 5 31 -81 5 -102 -17 -14 -17 -14 0 -9 11 3 16 2 12 -4 -3 -6 -37 -10 -76 -10 l-69 0 0 -75 0 -75 63 0 c58 0 63 -2 74 -27 17 -36 17 -124 1 -122 -7 1 -41 1 -75 0 l-63 -1 0 -75 0 -75 75 0 75 0 0 -75 0 -75 -75 0 -75 0 0 -75 0 -75 75 0 75 0 0 -45 c0 -25 -7 -57 -16 -70 -9 -14 -12 -25 -6 -25 6 0 13 5 15 10 3 6 4 5 3 -2 -2 -9 -26 -14 -74 -16 l-72 -3 0 -74 0 -75 68 -1 c37 0 61 -3 55 -6 -20 -7 -15 -22 5 -18 27 5 31 -81 5 -102 -17 -14 -17 -14 0 -9 11 3 16 2 12 -4 -3 -6 -37 -10 -76 -10 l-69 0 0 -75 0 -75 66 0 c36 0 63 -4 60 -9 -3 -5 1 -14 9 -21 19 -16 21 -122 3 -119 -7 1 -41 1 -75 0 l-63 -1 0 -75 0 -75 75 0 75 0 0 -75 0 -75 -75 0 -75 0 0 -75 0 -75 75 0 75 0 0 -49 c0 -28 -4 -53 -10 -56 -5 -3 -10 -14 -10 -23 0 -15 2 -15 10 -2 8 13 10 12 10 -2 0 -16 -10 -18 -75 -18 l-75 0 0 -75 0 -75 73 -1 c39 -1 64 -3 55 -6 -24 -6 -23 -23 0 -18 27 5 31 -81 5 -102 -17 -14 -17 -14 0 -9 11 3 16 2 12 -4 -3 -6 -37 -10 -76 -10 l-69 0 0 -75 0 -75 66 0 c36 0 63 -4 60 -9 -3 -5 1 -14 9 -21 19 -16 21 -122 3 -119 -7 1 -41 1 -75 0 l-63 -1 0 -75 0 -75 75 0 75 0 0 -75 0 -75 -75 0 -75 0 0 -75 0 -75 75 0 75 0 0 -47 c0 -27 -7 -57 -15 -67 -12 -16 -12 -22 -2 -28 6 -4 -21 -8 -60 -8 l-73 0 0 -75 0 -75 68 -1 c37 0 61 -3 55 -6 -20 -7 -15 -22 5 -18 27 5 31 -81 5 -102 -17 -14 -17 -14 0 -9 11 3 16 2 12 -4 -3 -6 -37 -10 -76 -10 l-69 0 0 -75 0 -75 63 0 c58 0 63 -2 75 -27 6 -15 12 -49 12 -75 l0 -48 -75 0 -75 0 0 75 0 75 -75 0 -75 0 0 75 0 75 75 0 75 0 0 75 0 75 -75 0 -74 0 -3 -72 -3 -73 -72 -3 -73 -3 0 76 0 75 75 0 75 0 0 75 0 75 75 0 75 0 0 75 0 75 -75 0 -76 0 3 73 3 72 73 3 72 3 0 74 0 75 -75 0 -74 0 -3 -72 -3 -73 -72 -3 -73 -3 0 76 c0 68 -2 75 -20 75 -11 0 -20 6 -21 13 0 6 -2 8 -5 2 -3 -7 -202 -9 -576 -7 -529 2 -574 4 -586 20 -13 16 -13 16 -10 -3 3 -18 -3 -20 -64 -23 l-68 -3 0 -74 0 -75 -75 0 -75 0 0 75 c0 73 -1 75 -25 75 -14 0 -25 5 -25 11 0 5 -5 7 -11 3 -7 -4 -186 -7 -398 -7 -296 1 -375 -2 -338 -10 l48 -11 -3 -65 -3 -66 -72 -3 -73 -3 0 71 c0 47 4 69 11 67 6 -1 14 4 16 11 4 9 -34 12 -165 12 -142 0 -171 2 -176 15 -8 22 -26 18 -26 -5 0 -18 -7 -20 -55 -20 l-55 0 0 -75 0 -75 -75 0 -75 0 0 75 0 75 -30 0 c-21 0 -30 5 -31 18 -1 15 -2 14 -6 -2 -4 -15 -7 -16 -14 -5 -5 8 -9 10 -9 4 0 -6 -81 -9 -227 -8 -144 2 -221 -1 -208 -6 11 -5 33 -10 48 -10 l28 -1 -3 -67 -3 -68 -72 -3 -73 -3 0 64 c0 48 4 66 15 71 8 3 15 10 15 16 0 7 -108 10 -325 10 -282 0 -325 2 -325 15 0 8 -2 15 -4 15 -2 0 -11 3 -19 6 -10 4 -14 -2 -13 -18 1 -21 -4 -23 -46 -26 l-48 -3 0 -75 0 -74 -75 0 -75 0 0 -75 0 -75 75 0 75 0 0 -75 0 -75 -75 0 -75 0 0 -75 0 -75 75 0 74 0 3 73 3 72 73 3 72 3 0 -76 0 -75 -75 0 -75 0 0 -75 0 -75 -75 0 -75 0 0 -75 0 -75 75 0 75 0 0 -68 c0 -37 4 -72 10 -77 6 -7 -22 -9 -75 -7 l-85 3 0 75 0 74 -75 0 -75 0 0 75 0 75 75 0 75 0 0 75 0 75 -75 0 -74 0 -3 -72 -3 -73 -72 -3 -73 -3 0 76 0 75 75 0 75 0 0 75 0 75 75 0 75 0 0 75 0 75 -75 0 -76 0 3 73 3 72 73 3 72 3 0 74 0 75 -37 0 c-21 1 -76 3 -123 5 -56 3 -78 2 -65 -4 11 -5 33 -10 48 -10 l28 -1 -3 -67 -3 -68 -72 -3 -73 -3 0 64 c0 48 4 66 15 71 8 3 15 10 15 16 0 7 -98 10 -307 10 -170 0 -386 0 -480 0 l-173 0 0 499 0 499 23 4 c12 3 262 4 555 3 292 0 532 3 532 7 0 4 -6 8 -12 8 -9 0 -8 3 2 10 11 7 18 3 28 -13 l13 -22 -4 22 c-3 12 -2 22 2 21 3 0 25 0 49 1 l42 1 0 75 0 75 -75 0 -74 0 -3 -72 -3 -73 -72 -2 -73 -1 0 74 0 74 -75 0 -75 0 0 -75 0 -76 -75 2 -75 2 0 73 0 74 -75 0 -75 0 0 -73 0 -73 -75 -2 -75 -3 0 76 0 75 -75 0 -75 0 0 -74 0 -73 -71 -2 c-39 -1 -77 -5 -83 -8 -6 -4 -19 -6 -28 -5 -13 2 -18 -4 -19 -20 0 -22 -1 -22 -9 -3 -7 16 -9 13 -9 -17 -1 -21 4 -38 9 -38 6 0 10 -13 10 -29 0 -27 -2 -28 -50 -30 l-51 -1 3 73 3 72 73 3 72 3 0 74 0 75 -75 0 -74 0 -3 -72 -3 -73 -72 -3 -73 -3 0 76 0 75 -75 0 -75 0 0 -75 0 -75 -60 0 -60 0 0 75 0 75 60 0 60 0 0 75 0 75 75 0 75 0 0 -75 0 -75 75 0 75 0 0 75 c0 73 1 75 25 75 18 0 25 -5 25 -18 0 -11 11 -24 25 -30 32 -15 48 -15 40 -2 -7 12 -3 12 19 4 12 -4 16 -20 16 -55 l0 -49 75 0 75 0 1 50 c1 28 3 55 4 60 1 6 3 15 4 20 2 15 91 13 91 -2 0 -9 3 -9 9 1 5 8 16 11 25 8 12 -5 16 -21 16 -72 l0 -65 75 0 75 0 1 58 c1 31 1 60 0 64 -1 12 60 20 105 13 l44 -6 0 -65 0 -64 75 0 75 0 0 64 c0 71 5 76 86 76 30 0 44 -5 50 -17 11 -26 11 -29 13 -78 l1 -45 75 0 75 0 0 56 c0 55 1 56 25 52 20 -4 25 -1 25 14 0 12 4 16 12 12 7 -4 8 -3 4 4 -5 9 6 12 38 12 l46 0 0 75 0 75 -39 0 c-44 0 -51 10 -51 75 0 65 7 75 51 75 l39 0 0 75 0 75 -39 0 c-44 0 -51 10 -51 75 0 65 7 75 51 75 l39 0 0 75 0 75 -40 0 c-46 0 -53 14 -48 96 l3 49 43 3 42 3 0 75 0 75 -77 -3 c-56 -2 -77 -7 -75 -15 1 -10 -17 -13 -67 -13 -67 0 -95 10 -70 26 8 4 9 3 5 -4 -5 -8 1 -12 14 -12 12 0 18 5 15 10 -4 6 15 10 49 10 l56 0 0 75 0 75 75 0 75 0 0 75 0 75 -39 0 c-44 0 -51 10 -51 75 0 65 7 75 51 75 l39 0 0 75 0 75 -40 0 c-43 0 -46 5 -53 85 -2 22 -3 -57 -3 -175 l-1 -215 -539 0 c-296 -1 -551 1 -566 3 l-28 5 -2 491 c-1 270 -3 472 -5 449 l-4 -43 -54 0 -54 0 -3 -72 -3 -73 -72 -3 -73 -3 0 76 0 75 -75 0 -75 0 0 -75 0 -75 -60 0 -60 0 0 75 0 75 60 0 60 0 0 75 0 75 75 0 75 0 0 -75 0 -75 75 0 75 0 0 75 0 75 75 0 75 0 0 75 0 75 -75 0 -75 0 0 75 0 75 75 0 75 0 0 75 0 75 -75 0 -74 0 -3 -72 -3 -73 -72 -3 -73 -3 0 76 0 75 75 0 75 0 0 75 0 75 75 0 75 0 0 75 0 75 -75 0 -76 0 3 73 3 72 73 3 72 3 0 49 0 50 44 0 c40 0 43 -2 41 -25z m351 11 c8 -8 14 -31 14 -50 l0 -36 -75 0 -75 0 0 35 c0 20 6 42 13 50 16 19 104 20 123 1z m285 -3 c1 -10 1 -21 0 -25 0 -5 6 -8 14 -8 9 0 15 -9 15 -25 0 -24 -2 -25 -75 -25 l-75 0 0 40 c0 37 7 45 33 41 4 0 7 4 7 9 0 6 18 10 40 10 31 0 40 -4 41 -17z m325 -7 c3 -13 4 -35 2 -47 -3 -22 -8 -24 -73 -27 -66 -3 -71 -1 -72 19 -2 21 -1 21 13 3 9 -11 13 -14 10 -7 -4 6 -2 14 4 18 5 3 10 17 10 30 0 27 11 33 62 34 32 1 39 -3 44 -23z m590 10 c8 -8 14 -31 14 -50 l0 -36 -75 0 -75 0 0 38 c0 21 5 43 12 50 17 17 106 15 124 -2z m285 -3 c1 -10 1 -21 0 -25 0 -5 6 -8 14 -8 9 0 15 -9 15 -25 0 -24 -2 -25 -75 -25 l-75 0 0 34 c0 43 29 66 82 66 29 0 38 -4 39 -17z m325 -7 c3 -13 4 -35 2 -47 -3 -22 -8 -24 -75 -27 l-73 -3 0 29 c0 16 7 35 16 42 12 11 15 11 12 -1 -2 -8 -7 -17 -13 -21 -13 -9 1 -22 14 -13 6 3 11 17 11 30 0 27 11 33 62 34 32 1 39 -3 44 -23z m239 -1 c-3 -24 -3 -24 31 -10 l34 14 0 -40 0 -39 -75 0 -75 0 0 -75 0 -75 75 0 75 0 0 -75 0 -75 -75 0 -75 0 0 -75 0 -75 75 0 74 0 3 73 3 72 73 3 72 3 0 -76 0 -75 -75 0 -75 0 0 -75 0 -75 -75 0 -75 0 0 -75 0 -75 75 0 76 0 -3 -72 -3 -73 -72 -3 c-56 -2 -73 -6 -73 -17 0 -18 -80 -21 -96 -5 -14 14 -46 2 -37 -14 3 -6 2 -7 -2 -3 -5 4 -10 14 -11 22 -2 12 12 15 72 15 l74 0 0 75 0 75 -75 0 -75 0 0 75 0 75 75 0 75 0 0 75 0 75 -75 0 -74 0 -3 -72 -3 -73 -72 -3 -73 -3 0 76 0 75 75 0 75 0 0 75 0 75 75 0 75 0 0 75 0 75 -75 0 -76 0 3 73 3 72 73 3 72 3 0 49 0 50 44 0 c40 0 43 -2 41 -25z m351 11 c8 -8 14 -31 14 -50 l0 -36 -75 0 -75 0 0 35 c0 20 6 42 13 50 16 19 104 20 123 1z m285 -3 c1 -10 1 -21 0 -25 0 -5 6 -8 14 -8 9 0 15 -9 15 -25 0 -24 -2 -25 -75 -25 l-75 0 0 36 c0 27 5 37 20 41 11 3 20 9 20 14 0 5 18 9 40 9 31 0 40 -4 41 -17z m325 -7 c3 -13 4 -35 2 -47 -3 -22 -8 -24 -75 -27 l-73 -3 0 29 c0 16 7 35 16 42 12 11 15 11 12 -1 -2 -8 -7 -17 -13 -21 -13 -9 1 -22 14 -13 6 3 11 17 11 30 0 27 11 33 62 34 32 1 39 -3 44 -23z m238 9 c-8 -20 19 -29 45 -15 20 10 21 8 21 -30 l0 -40 -75 0 -75 0 0 -75 0 -75 75 0 75 0 0 -75 0 -75 -75 0 -75 0 0 -75 0 -75 75 0 74 0 3 73 3 72 73 3 72 3 0 -76 0 -75 -75 0 -75 0 0 -75 0 -75 -75 0 -75 0 0 -75 0 -75 75 0 76 0 -3 -72 -3 -73 -72 -3 c-56 -2 -73 -6 -73 -17 0 -18 -80 -21 -96 -5 -14 14 -46 2 -37 -14 3 -6 2 -7 -2 -3 -5 4 -10 14 -11 22 -2 12 12 15 72 15 l74 0 0 75 0 75 -75 0 -75 0 0 75 0 75 75 0 75 0 0 75 0 75 -75 0 -74 0 -3 -72 -3 -73 -72 -3 -73 -3 0 76 0 75 75 0 75 0 0 75 0 75 75 0 75 0 0 75 0 75 -75 0 -76 0 3 73 3 72 73 3 72 3 0 49 0 50 45 0 c35 0 43 -3 39 -15z m352 1 c8 -8 14 -31 14 -50 l0 -36 -75 0 -75 0 0 38 c0 21 5 43 12 50 17 17 106 15 124 -2z m285 -3 c1 -10 1 -21 0 -25 0 -5 6 -8 14 -8 9 0 15 -9 15 -25 0 -24 -2 -25 -75 -25 l-75 0 0 33 c0 52 16 65 83 66 28 1 37 -3 38 -16z m325 -7 c3 -13 4 -35 2 -47 -3 -22 -8 -24 -75 -27 l-73 -3 0 29 c0 45 36 70 102 71 32 1 39 -3 44 -23z m238 9 c-8 -20 19 -29 45 -15 20 10 21 8 21 -30 l0 -40 -75 0 -75 0 0 -75 0 -75 75 0 75 0 0 -75 0 -75 -75 0 -75 0 0 -75 0 -75 75 0 74 0 3 73 3 72 73 3 72 3 0 -76 0 -75 -75 0 -75 0 0 -75 0 -75 -75 0 -75 0 0 -75 0 -75 75 0 76 0 -3 -72 -3 -73 -72 -3 c-56 -2 -73 -6 -73 -17 0 -18 -80 -21 -96 -5 -14 14 -46 2 -37 -14 3 -6 2 -7 -2 -3 -5 4 -10 14 -11 22 -2 12 12 15 72 15 l74 0 0 75 0 75 -75 0 -75 0 0 75 0 75 75 0 75 0 0 75 0 75 -75 0 -74 0 -3 -72 -3 -73 -72 -3 -73 -3 0 76 0 75 75 0 75 0 0 75 0 75 75 0 75 0 0 75 0 75 -75 0 -76 0 3 73 3 72 73 3 72 3 0 49 0 50 45 0 c35 0 43 -3 39 -15z m354 3 c7 -7 12 -29 12 -50 l0 -38 -75 0 -75 0 0 30 c0 53 18 70 75 70 28 0 56 -5 63 -12z m283 -5 c1 -10 1 -21 0 -25 0 -5 6 -8 14 -8 9 0 15 -9 15 -25 0 -24 -2 -25 -75 -25 l-75 0 0 34 c0 43 29 66 82 66 29 0 38 -4 39 -17z m-4594 -18 c0 -8 -4 -12 -9 -9 -5 3 -6 10 -3 15 9 13 12 11 12 -6z m-1229 -142 l3 -72 72 -3 72 -3 0 -70 0 -70 -70 0 -70 0 -3 72 -3 72 -72 3 -72 3 -1 65 c-1 36 3 68 8 71 6 4 38 6 72 5 l61 -1 3 -72z m600 -1 l3 -73 -73 3 -73 3 -3 59 c-4 86 -3 87 75 84 l68 -3 3 -73z m300 1 l3 -73 -75 0 -75 0 -3 -72 -3 -73 -70 0 -70 0 0 70 0 70 73 3 72 3 0 68 c0 37 3 71 7 75 4 4 37 6 73 4 l65 -3 3 -72z m300 0 l3 -72 72 -3 72 -3 0 -70 0 -70 -70 0 -70 0 -3 72 -3 72 -72 3 -72 3 -3 59 c-4 86 -3 87 75 84 l68 -3 3 -72z m600 -1 l3 -73 -73 3 -73 3 -3 59 c-4 86 -3 87 75 84 l68 -3 3 -73z m300 1 l3 -73 -75 0 -75 0 -3 -72 -3 -73 -70 0 -70 0 0 70 0 70 73 3 72 3 0 68 c0 37 3 71 7 75 4 4 37 6 73 4 l65 -3 3 -72z m300 0 l3 -72 72 -3 72 -3 0 -70 0 -70 -70 0 -70 0 -3 72 -3 72 -72 3 -72 3 -3 59 c-4 86 -3 87 75 84 l68 -3 3 -72z m600 -1 l3 -73 -73 3 -73 3 -3 59 c-4 86 -3 87 75 84 l68 -3 3 -73z m300 1 l3 -73 -75 0 -75 0 -3 -72 -3 -73 -70 0 -70 0 0 70 0 70 73 3 72 3 0 68 c0 37 3 71 7 75 4 4 37 6 73 4 l65 -3 3 -72z m300 0 l3 -72 72 -3 72 -3 0 -70 0 -70 -70 0 -70 0 -3 72 -3 72 -72 3 -72 3 -3 59 c-4 86 -3 87 75 84 l68 -3 3 -72z m600 -1 l3 -73 -73 3 -73 3 -3 59 c-4 86 -3 87 75 84 l68 -3 3 -73z m300 1 l3 -73 -75 0 -75 0 -3 -72 -3 -73 -70 0 -70 0 0 70 0 70 73 3 72 3 0 68 c0 37 3 71 7 75 4 4 37 6 73 4 l65 -3 3 -72z m300 0 l3 -72 72 -3 72 -3 0 -70 0 -70 -70 0 -70 0 -3 72 -3 72 -72 3 -72 3 -3 59 c-4 86 -3 87 75 84 l68 -3 3 -72z m600 -1 l3 -73 -73 3 -73 3 -3 59 c-4 86 -3 87 75 84 l68 -3 3 -73z m300 1 l3 -73 -75 0 -75 0 -3 -72 -3 -73 -70 0 -70 0 0 70 0 70 73 3 72 3 0 68 c0 37 3 71 7 75 4 4 37 6 73 4 l65 -3 3 -72z m300 0 l3 -72 72 -3 72 -3 0 -70 0 -70 -70 0 -70 0 -3 72 -3 72 -72 3 -72 3 -3 59 c-4 86 -3 87 75 84 l68 -3 3 -72z m-4948 -148 l0 -74 73 -3 72 -3 0 -70 0 -70 -72 -3 -73 -3 0 -74 0 -75 -75 0 -74 0 -3 -72 -3 -73 -72 -3 -73 -3 0 75 0 75 -72 3 -73 3 0 70 0 70 73 3 72 3 0 74 0 75 75 0 75 0 0 68 c0 38 3 72 7 75 3 4 37 7 75 7 l68 0 0 -75z m1200 0 l0 -74 73 -3 72 -3 0 -70 0 -70 -72 -3 -73 -3 0 -74 0 -75 -75 0 -74 0 -3 -72 -3 -73 -72 -3 -73 -3 0 75 0 75 -72 3 -73 3 0 70 0 70 73 3 72 3 0 74 0 75 75 0 75 0 0 68 c0 38 3 72 7 75 3 4 37 7 75 7 l68 0 0 -75z m1200 0 l0 -74 73 -3 72 -3 0 -70 0 -70 -72 -3 -73 -3 0 -74 0 -75 -75 0 -74 0 -3 -72 -3 -73 -72 -3 -73 -3 0 75 0 75 -72 3 -73 3 0 70 0 70 73 3 72 3 0 74 0 75 75 0 75 0 0 68 c0 38 3 72 7 75 3 4 37 7 75 7 l68 0 0 -75z m1200 0 l0 -74 73 -3 72 -3 0 -70 0 -70 -72 -3 -73 -3 0 -74 0 -75 -75 0 -74 0 -3 -72 -3 -73 -72 -3 -73 -3 0 75 0 75 -72 3 -73 3 0 70 0 70 73 3 72 3 0 74 0 75 75 0 75 0 0 68 c0 38 3 72 7 75 3 4 37 7 75 7 l68 0 0 -75z m1200 0 l0 -74 73 -3 72 -3 0 -70 0 -70 -72 -3 -73 -3 0 -74 0 -75 -75 0 -74 0 -3 -72 -3 -73 -72 -3 -73 -3 0 75 0 75 -72 3 -73 3 0 70 0 70 73 3 72 3 0 74 0 75 75 0 75 0 0 68 c0 38 3 72 7 75 3 4 37 7 75 7 l68 0 0 -75z m-5855 -150 l0 -70 -72 -3 -73 -3 0 -75 0 -75 -57 3 -58 3 -3 73 -3 72 61 0 60 0 0 75 0 76 73 -3 72 -3 0 -70z m0 -300 l0 -70 -72 -3 -72 -3 -3 -72 -3 -72 -55 0 -55 0 0 70 0 70 58 3 57 3 0 68 c0 37 3 71 7 75 4 4 37 6 73 4 l65 -3 0 -70z m603 -2 l3 -72 72 -3 72 -3 0 -70 0 -70 -70 0 -70 0 -3 72 -3 72 -72 3 -72 3 -3 59 c-4 86 -3 87 75 84 l68 -3 3 -72z m597 2 l0 -70 -72 -3 -72 -3 -3 -72 -3 -72 -72 -3 -73 -3 0 76 0 75 75 0 75 0 0 68 c0 38 3 72 7 76 4 4 37 6 73 4 l65 -3 0 -70z m603 -2 l3 -72 72 -3 72 -3 0 -70 0 -70 -72 -3 -73 -3 0 75 0 75 -72 3 -73 3 -3 59 c-4 86 -3 87 75 84 l68 -3 3 -72z m597 2 l0 -70 -72 -3 -72 -3 -3 -72 -3 -72 -72 -3 -73 -3 0 76 0 75 75 0 75 0 0 68 c0 38 3 72 7 76 4 4 37 6 73 4 l65 -3 0 -70z m603 -2 l3 -72 72 -3 72 -3 0 -70 0 -70 -70 0 -70 0 -3 72 -3 72 -72 3 -72 3 -3 59 c-4 86 -3 87 75 84 l68 -3 3 -72z m597 2 l0 -70 -72 -3 -72 -3 -3 -72 -3 -72 -70 0 -70 0 -3 73 -3 72 76 0 75 0 0 68 c0 38 3 72 7 76 4 4 37 6 73 4 l65 -3 0 -70z m603 -2 l3 -72 72 -3 72 -3 0 -70 0 -70 -70 0 -70 0 -3 72 -3 72 -72 3 -72 3 -3 59 c-4 86 -3 87 75 84 l68 -3 3 -72z m597 2 l0 -70 -72 -3 -72 -3 -3 -72 -3 -72 -70 0 -70 0 -3 73 -3 72 76 0 75 0 0 68 c0 38 3 72 7 76 4 4 37 6 73 4 l65 -3 0 -70z m603 -2 l3 -72 72 -3 72 -3 0 -70 0 -70 -70 0 -70 0 -3 72 -3 72 -72 3 -72 3 -3 59 c-4 86 -3 87 75 84 l68 -3 3 -72z m597 2 l0 -70 -72 -3 -72 -3 -3 -72 -3 -72 -72 -3 -73 -3 0 76 0 75 75 0 75 0 0 68 c0 38 3 72 7 76 4 4 37 6 73 4 l65 -3 0 -70z m-5850 -150 l0 -70 -70 0 -70 0 -3 73 -3 73 73 -3 73 -3 0 -70z m1200 0 l0 -70 -70 0 -70 0 -3 73 -3 73 73 -3 73 -3 0 -70z m1200 0 l0 -70 -70 0 -70 0 -3 73 -3 73 73 -3 73 -3 0 -70z m1200 0 l0 -70 -70 0 -70 0 -3 73 -3 73 73 -3 73 -3 0 -70z m1200 0 l0 -70 -70 0 -70 0 -3 73 -3 73 73 -3 73 -3 0 -70z m1200 0 l0 -70 -70 0 -70 0 -3 73 -3 73 73 -3 73 -3 0 -70z m302 53 c-3 -8 -6 -5 -6 6 -1 11 2 17 5 13 3 -3 4 -12 1 -19z m-5850 -143 c0 -11 -4 -12 -14 -4 -9 9 -13 8 -13 0 0 -8 -21 -11 -65 -10 -53 2 -63 5 -54 16 17 20 146 18 146 -2z m300 -5 c4 -12 3 -12 -5 -1 -7 9 -11 10 -17 2 -11 -18 -125 -12 -118 6 8 20 135 14 140 -7z m283 9 c0 -5 5 -7 10 -4 6 3 10 1 10 -4 0 -7 -24 -11 -60 -11 -38 0 -60 4 -60 11 0 8 -4 8 -13 0 -10 -8 -14 -7 -14 4 0 12 14 15 64 15 38 0 63 -4 63 -11z m917 -9 c4 -12 3 -12 -5 -1 -7 9 -11 10 -17 2 -11 -18 -125 -12 -118 6 8 20 135 14 140 -7z m283 5 c0 -12 -13 -15 -56 -15 -41 0 -53 3 -48 13 6 9 5 9 -7 0 -13 -10 -16 -10 -16 2 0 12 14 15 64 15 49 0 63 -3 63 -15z m1200 0 c0 -11 -12 -15 -50 -15 -30 0 -50 4 -50 11 0 8 -4 8 -13 0 -10 -8 -14 -7 -14 4 0 12 14 15 64 15 49 0 63 -3 63 -15z m617 0 c0 -11 -4 -12 -14 -4 -9 9 -13 8 -13 0 0 -8 -21 -11 -65 -10 -53 2 -63 5 -54 16 17 20 146 18 146 -2z m303 -60 l0 -75 75 0 75 0 0 75 0 75 75 0 c65 0 75 -2 75 -17 0 -16 -2 -16 -10 -3 -8 12 -10 10 -9 -10 1 -14 1 -46 1 -72 l-2 -48 -65 0 -65 0 0 -75 0 -75 -75 0 -75 0 0 75 0 75 -36 0 -35 0 3 55 c2 37 7 55 16 55 10 0 10 3 0 14 -9 10 -18 11 -32 4 -13 -7 -16 -7 -12 1 8 12 -21 11 -41 -2 -9 -6 -11 -3 -7 7 5 12 22 16 75 16 l69 0 0 -75z m897 60 c0 -11 -4 -12 -14 -4 -9 9 -13 8 -13 0 0 -8 -21 -11 -65 -10 -53 2 -63 5 -54 16 17 20 146 18 146 -2z m300 -5 c4 -12 3 -12 -5 -1 -7 9 -11 10 -17 2 -11 -18 -125 -12 -118 6 8 20 135 14 140 -7z m-3300 -7 c-4 -3 -7 0 -7 7 0 7 3 10 7 7 3 -4 3 -10 0 -14z m1200 0 c-4 -3 -7 0 -7 7 0 7 3 10 7 7 3 -4 3 -10 0 -14z m-3330 -10 c-4 -3 -7 0 -7 7 0 7 3 10 7 7 3 -4 3 -10 0 -14z m5670 0 c-4 -3 -7 0 -7 7 0 7 3 10 7 7 3 -4 3 -10 0 -14z m-5939 -340 l3 -72 72 -3 72 -3 0 -70 0 -70 -70 0 -70 0 -3 72 -3 72 -72 3 -72 3 -3 59 c-4 86 -3 87 75 84 l68 -3 3 -72z m246 71 c17 -6 21 -55 10 -111 -6 -29 -9 -30 -55 -32 l-49 -1 0 69 c0 37 3 71 7 74 8 9 66 9 87 1z m2754 -72 l3 -73 -38 3 -38 4 -3 64 c-3 69 5 82 48 78 24 -3 25 -6 28 -76z m274 43 c5 -16 6 -49 3 -72 l-6 -43 -59 0 -59 0 -3 -72 -3 -73 -70 0 -70 0 0 70 0 70 73 3 72 3 0 68 c0 37 3 71 7 75 4 4 30 6 57 4 46 -3 50 -5 58 -33z m1226 -42 c3 -73 3 -73 -23 -73 -14 0 -24 4 -20 9 3 5 0 13 -6 17 -7 4 -9 3 -5 -4 3 -6 2 -13 -4 -17 -6 -4 -10 19 -10 64 0 72 6 82 45 78 18 -2 20 -10 23 -74z m-4648 -148 l0 -74 73 -3 72 -3 0 -70 0 -70 -72 -3 -73 -3 0 -75 0 -75 -57 3 -58 3 -3 73 -3 72 61 0 60 0 0 75 0 74 -57 3 -58 3 -3 59 c-4 83 -2 86 63 86 l55 0 0 -75z m400 -94 c12 -23 14 -102 3 -99 -5 1 -21 -3 -38 -7 l-30 -9 25 -7 c20 -6 17 -7 -17 -8 l-42 -1 -3 -72 -3 -73 -72 -3 -73 -3 0 76 0 75 75 0 75 0 0 75 0 75 45 0 c34 0 47 -5 55 -19z m2750 -56 l0 -75 -37 0 c-24 0 -33 3 -25 9 10 6 10 10 -3 21 -18 15 -21 90 -3 108 7 7 25 12 40 12 l28 0 0 -75z m272 35 c4 -19 5 -52 2 -72 l-6 -38 -59 0 -59 0 0 -75 0 -75 53 0 52 0 13 -41 c7 -22 10 -56 6 -75 l-6 -34 -59 0 -59 0 0 75 0 74 -72 3 -73 3 0 70 0 70 73 3 72 3 0 75 0 75 57 -3 c56 -3 57 -3 65 -38z m-3277 -335 l0 -70 -72 -3 -72 -3 -3 -72 -3 -72 -55 0 -55 0 0 70 0 70 58 3 57 3 0 68 c0 37 3 71 7 75 4 4 37 6 73 4 l65 -3 0 -70z m261 18 c9 -73 -1 -87 -60 -91 l-46 -3 0 75 0 76 49 0 50 0 7 -57z m-111 -168 l0 -70 -70 0 -70 0 -3 73 -3 73 73 -3 73 -3 0 -70z m6000 0 l0 -70 -70 0 -70 0 -3 73 -3 73 73 -3 73 -3 0 -70z m302 53 c-3 -8 -6 -5 -6 6 -1 11 2 17 5 13 3 -3 4 -12 1 -19z m-6017 -20 c0 -19 2 -20 10 -8 7 11 10 -2 10 -42 l0 -58 74 0 74 0 4 -77 3 -78 -74 3 c-60 3 -76 1 -83 -12 -5 -9 -14 -16 -19 -16 -6 0 -3 7 5 16 12 11 16 36 16 90 l0 74 -75 0 -75 0 0 -75 0 -75 39 0 c25 0 41 -5 45 -15 4 -12 -4 -15 -39 -15 -33 0 -45 4 -45 15 0 12 -15 15 -75 15 l-74 0 -3 -72 -3 -73 -72 -3 -73 -3 0 76 0 75 -75 0 -75 0 0 -75 0 -75 -60 0 -60 0 0 75 0 75 60 0 60 0 0 75 0 75 75 0 75 0 0 -75 0 -75 75 0 75 0 0 75 0 75 75 0 75 0 0 65 0 65 65 0 c61 0 65 -1 65 -22z m316 -1 c3 -13 4 -41 2 -63 l-3 -39 -70 0 -70 0 -3 58 c-2 39 0 57 7 52 6 -3 11 -1 11 4 0 7 24 11 60 11 54 0 60 -2 66 -23z m299 -42 l0 -60 -70 0 -70 0 -3 34 c-4 43 6 84 18 76 6 -3 10 -1 10 5 0 7 20 10 58 8 l57 -3 0 -60z m300 0 l0 -60 -70 0 -70 0 -3 39 c-2 22 -1 50 3 63 5 23 9 24 73 21 l67 -3 0 -60z m601 42 c3 -13 4 -41 2 -63 l-3 -39 -70 0 -70 0 -3 63 -3 62 70 0 c66 0 71 -2 77 -23z m299 -42 l0 -60 -70 0 -70 0 0 55 c0 39 4 54 13 53 6 -2 12 2 12 7 0 7 22 10 58 8 l57 -3 0 -60z m300 0 l0 -60 -70 0 -70 0 -3 39 c-2 22 -1 50 3 63 5 23 9 24 73 21 l67 -3 0 -60z m285 43 c0 -19 2 -20 10 -8 7 11 10 -2 10 -42 l0 -58 75 0 75 0 0 -75 0 -75 75 0 75 0 0 75 0 75 74 0 74 0 4 -77 3 -78 -77 3 -78 4 0 -76 0 -76 -75 0 -75 0 0 75 0 75 -75 0 c-60 0 -75 -3 -75 -15 0 -8 -7 -15 -16 -15 -14 0 -14 1 0 16 12 11 16 36 16 90 l0 74 -75 0 -75 0 0 -75 0 -75 39 0 c25 0 41 -5 45 -15 4 -12 -4 -15 -39 -15 -33 0 -45 4 -45 15 0 12 -15 15 -74 15 -56 0 -75 -4 -80 -15 -4 -11 -22 -15 -70 -15 -62 0 -89 11 -65 26 8 4 9 3 5 -4 -5 -8 1 -12 14 -12 12 0 18 5 15 10 -4 6 15 10 49 10 l56 0 0 75 0 75 75 0 75 0 0 65 0 65 65 0 c61 0 65 -1 65 -22z m615 -43 l0 -60 -70 0 -70 0 -3 39 c-2 22 2 50 8 62 11 19 20 21 74 20 l61 -1 0 -60z m300 0 l0 -60 -70 0 -70 0 -3 39 c-2 22 -1 50 3 63 5 23 9 24 73 21 l67 -3 0 -60z m286 43 c0 -22 1 -22 9 -3 6 14 9 2 9 -42 l1 -63 74 0 74 0 4 -77 3 -78 -74 3 c-60 3 -76 1 -83 -12 -5 -9 -14 -16 -19 -16 -6 0 -3 7 5 16 12 11 16 36 16 90 l0 74 -75 0 -75 0 0 -75 0 -75 39 0 c25 0 41 -5 45 -15 4 -12 -4 -15 -39 -15 -33 0 -45 4 -45 15 0 12 -15 15 -74 15 -56 0 -75 -4 -80 -15 -4 -11 -22 -15 -70 -15 -62 0 -89 11 -65 26 8 4 9 3 5 -4 -5 -8 1 -12 14 -12 12 0 18 5 15 10 -4 6 15 10 49 10 l56 0 0 75 0 75 75 0 75 0 0 65 0 65 65 0 c61 0 65 -2 66 -22z m315 -40 l-1 -63 -70 0 -70 0 -3 47 c-4 65 9 77 84 78 l62 0 -2 -62z m884 40 c0 -19 2 -20 10 -8 7 11 10 -2 10 -42 l0 -58 74 0 74 0 4 -77 3 -78 -74 3 c-60 3 -76 1 -83 -12 -5 -9 -14 -16 -19 -16 -6 0 -3 7 5 16 12 11 16 36 16 90 l0 74 -75 0 -75 0 0 -75 0 -75 39 0 c25 0 41 -5 45 -15 4 -12 -4 -15 -39 -15 -33 0 -45 4 -45 15 0 12 -15 15 -74 15 -56 0 -75 -4 -80 -15 -6 -17 -86 -22 -86 -5 0 6 -8 10 -17 10 -15 0 -15 -2 -4 -9 11 -7 10 -10 -5 -14 -10 -2 232 -5 539 -6 l557 -1 1 -57 c0 -32 1 -78 1 -103 l0 -45 7 45 c5 40 9 45 31 45 24 0 25 -3 28 -72 l3 -72 72 -3 72 -3 0 -70 0 -70 -70 0 -70 0 -3 73 c-2 63 -5 72 -22 72 -10 0 -25 3 -34 6 -14 5 -16 -5 -16 -79 l0 -85 33 2 32 1 0 -70 0 -70 -33 2 -33 1 3 -81 3 -81 30 -1 30 0 0 -70 0 -70 -30 0 -30 -1 -3 -77 -3 -77 -564 0 -565 0 0 83 c0 45 -5 89 -10 97 -8 12 -10 11 -10 -7 0 -21 -4 -23 -65 -23 l-64 0 -3 -72 -3 -73 -70 0 -70 0 -3 73 -3 72 75 0 75 0 3 73 3 72 63 3 c62 3 62 3 62 -25 0 -22 2 -25 10 -13 5 8 10 58 10 110 0 52 -5 102 -10 110 -8 12 -10 11 -10 -7 0 -22 -4 -23 -65 -23 l-65 0 0 -75 0 -75 -75 0 -74 0 -3 -72 -3 -73 -30 0 -30 0 -3 73 -3 72 36 0 35 0 0 74 0 75 -32 3 -33 3 0 70 0 70 32 3 32 3 3 72 3 72 73 3 72 3 0 -76 0 -75 65 0 65 0 0 -42 c0 -32 3 -39 10 -28 5 8 10 65 10 125 0 61 -5 117 -10 125 -8 12 -10 11 -10 -8 0 -22 -3 -23 -62 -20 l-63 3 0 70 0 70 63 3 c58 3 62 2 62 -19 0 -12 3 -19 7 -15 4 4 10 44 14 88 4 53 10 83 20 89 8 5 40 9 72 9 l57 0 0 75 0 75 75 0 75 0 0 65 0 65 65 0 c61 0 65 -1 65 -22z m316 -1 c3 -13 4 -41 2 -63 l-3 -39 -70 0 -70 0 -3 58 c-2 39 0 57 7 52 6 -3 11 -1 11 4 0 7 24 11 60 11 54 0 60 -2 66 -23z m299 -42 l0 -60 -70 0 -70 0 -3 34 c-4 43 6 84 18 76 6 -3 10 -1 10 5 0 7 20 10 58 8 l57 -3 0 -60z m-4945 -134 c0 -38 3 -76 6 -85 7 -17 34 -22 34 -6 0 6 18 10 40 10 23 0 40 -5 40 -11 0 -8 5 -8 15 1 11 9 15 33 15 86 l0 74 75 0 75 0 0 -75 0 -75 -74 0 c-53 0 -77 -4 -86 -15 -8 -10 -31 -15 -72 -15 -43 0 -60 4 -64 15 -5 11 -24 15 -80 15 l-74 0 0 75 0 75 75 0 75 0 0 -69z m1200 0 c0 -38 3 -76 6 -85 7 -17 34 -22 34 -6 0 6 18 10 40 10 23 0 40 -5 40 -11 0 -8 5 -8 15 1 11 9 15 33 15 86 l0 74 75 0 75 0 0 -75 0 -75 -74 0 c-53 0 -77 -4 -86 -15 -8 -10 -31 -15 -72 -15 -43 0 -60 4 -64 15 -5 11 -24 15 -80 15 l-74 0 0 75 0 75 75 0 75 0 0 -69z m1500 -6 l0 -75 -74 0 c-53 0 -77 -4 -86 -15 -16 -19 -100 -21 -101 -2 0 10 -2 10 -6 0 -2 -7 -9 -13 -14 -13 -4 0 -6 7 -3 15 7 18 104 22 104 4 0 -8 5 -8 15 1 11 9 15 33 15 86 l0 74 75 0 75 0 0 -75z m900 0 l0 -75 75 0 75 0 0 75 0 75 75 0 75 0 0 -75 0 -75 -75 0 -75 0 0 -75 0 -75 -75 0 -75 0 0 75 0 75 -75 0 -75 0 0 75 0 75 75 0 75 0 0 -75z m-3796 -90 c4 -12 -4 -15 -44 -15 -40 0 -48 3 -44 15 4 10 20 15 44 15 24 0 40 -5 44 -15z m41 5 c3 -5 1 -10 -4 -10 -6 0 -11 5 -11 10 0 6 2 10 4 10 3 0 8 -4 11 -10z m1200 0 c3 -5 1 -10 -4 -10 -6 0 -11 5 -11 10 0 6 2 10 4 10 3 0 8 -4 11 -10z m2359 -5 c4 -12 -4 -15 -44 -15 -40 0 -48 3 -44 15 4 10 20 15 44 15 24 0 40 -5 44 -15z m41 5 c3 -5 1 -10 -4 -10 -6 0 -11 5 -11 10 0 6 2 10 4 10 3 0 8 -4 11 -10z m1159 -5 c4 -12 -4 -15 -44 -15 -40 0 -48 3 -44 15 4 10 20 15 44 15 24 0 40 -5 44 -15z m41 5 c3 -5 1 -10 -4 -10 -6 0 -11 5 -11 10 0 6 2 10 4 10 3 0 8 -4 11 -10z m-1675 -30 l549 0 3 -57 c2 -32 2 -259 0 -505 l-2 -448 -565 0 -565 0 -1 125 c0 69 0 179 0 245 0 635 0 652 17 646 9 -3 263 -6 564 -6z m-2469 -47 c0 -27 1 -253 1 -503 l0 -455 -566 -3 -566 -2 0 505 0 505 565 0 565 0 1 -47z m-1403 -140 l3 -72 72 -3 72 -3 0 -70 0 -70 -70 0 -70 0 -3 72 -3 72 -72 3 -72 3 -3 59 c-4 86 -3 87 75 84 l68 -3 3 -72z m260 43 c2 -17 1 -49 -3 -72 l-6 -41 -49 -2 -50 -1 0 69 c0 37 3 71 7 75 4 4 28 6 53 4 42 -3 45 -5 48 -32z m2740 -44 l3 -73 -38 3 -38 4 -3 64 c-3 69 5 82 48 78 24 -3 25 -6 28 -76z m274 43 c5 -16 6 -49 3 -72 l-6 -43 -59 0 -59 0 -3 -72 -3 -73 -70 0 -70 0 0 70 0 70 73 3 72 3 0 68 c0 37 3 71 7 75 4 4 30 6 57 4 46 -3 50 -5 58 -33z m1226 -42 c3 -73 3 -73 -23 -73 -14 0 -24 4 -20 9 3 5 0 13 -6 17 -7 4 -9 3 -5 -4 3 -6 2 -13 -4 -17 -6 -4 -10 19 -10 64 0 72 6 82 45 78 18 -2 20 -10 23 -74z m-4648 -148 l0 -74 73 -3 72 -3 0 -70 0 -70 -72 -3 -73 -3 0 -75 0 -75 -57 3 -58 3 -3 73 -3 72 61 0 60 0 0 75 0 74 -57 3 -58 3 -3 59 c-4 83 -2 86 63 86 l55 0 0 -75z m400 -94 c12 -23 14 -102 3 -99 -5 1 -21 -3 -38 -7 l-30 -9 25 -7 c20 -6 17 -7 -17 -8 l-42 -1 -3 -72 -3 -73 -72 -3 -73 -3 0 76 0 75 75 0 75 0 0 75 0 75 45 0 c34 0 47 -5 55 -19z m2750 -56 l0 -75 -37 0 c-24 0 -33 3 -25 9 10 6 10 10 -3 21 -18 15 -21 90 -3 108 7 7 25 12 40 12 l28 0 0 -75z m272 40 c5 -16 6 -49 3 -72 l-6 -43 -60 0 -59 0 0 -75 0 -75 55 0 c46 0 55 -3 55 -18 0 -10 5 -23 11 -29 7 -7 9 -28 5 -57 l-7 -46 -60 0 -59 0 0 75 0 74 -72 3 -73 3 0 70 0 70 73 3 72 3 0 75 0 75 57 -3 c53 -3 57 -5 65 -33z m-3277 -340 l0 -70 -72 -3 -72 -3 -3 -72 -3 -72 -55 0 -55 0 0 70 0 70 58 3 57 3 0 68 c0 37 3 71 7 75 4 4 37 6 73 4 l65 -3 0 -70z m250 64 c4 -6 10 -38 13 -71 4 -45 2 -59 -6 -54 -7 4 -12 2 -12 -3 0 -6 -20 -11 -45 -11 l-45 0 0 75 0 75 44 0 c25 0 48 -5 51 -11z m-100 -214 l0 -70 -70 0 -70 0 -3 73 -3 73 73 -3 73 -3 0 -70z m6000 0 l0 -70 -70 0 -70 0 -3 73 -3 73 73 -3 73 -3 0 -70z m302 53 c-3 -8 -6 -5 -6 6 -1 11 2 17 5 13 3 -3 4 -12 1 -19z m-6449 -505 l3 -72 72 -3 72 -3 0 -70 0 -70 -70 0 -70 0 -3 72 -3 72 -72 3 -72 3 -3 59 c-4 86 -3 87 75 84 l68 -3 3 -72z m479 70 c-4 -3 -10 -3 -14 0 -3 4 0 7 7 7 7 0 10 -3 7 -7z m113 -5 c0 -4 -4 -8 -9 -8 -6 0 -12 4 -15 8 -3 5 1 9 9 9 8 0 15 -4 15 -9z m490 8 c0 -3 -5 -8 -12 -12 -7 -4 -8 -3 -4 4 7 12 16 16 16 8z m105 -6 c3 -6 -1 -7 -9 -4 -18 7 -21 14 -7 14 6 0 13 -4 16 -10z m-298 -7 c-4 -3 -10 -3 -14 0 -3 4 0 7 7 7 7 0 10 -3 7 -7z m-1037 -208 l0 -74 73 -3 72 -3 0 -70 0 -70 -72 -3 -73 -3 0 -75 0 -75 -57 3 -58 3 -3 73 -3 72 61 0 60 0 0 75 0 74 -57 3 -58 3 -3 59 c-4 83 -2 86 63 86 l55 0 0 -75z m400 -94 c5 -11 10 -37 10 -59 0 -40 -1 -40 -54 -45 -27 -2 -23 -12 9 -20 11 -3 1 -5 -22 -6 l-42 -1 -3 -72 -3 -73 -72 -3 -73 -3 0 76 0 75 75 0 75 0 0 75 0 75 45 0 c34 0 47 -5 55 -19z m-255 -356 l0 -70 -72 -3 -72 -3 -3 -72 -3 -72 -55 0 -55 0 0 70 0 70 58 3 57 3 0 68 c0 37 3 71 7 75 4 4 37 6 73 4 l65 -3 0 -70z m250 64 c4 -6 10 -38 13 -71 4 -45 2 -59 -6 -54 -7 4 -12 2 -12 -3 0 -6 -20 -11 -45 -11 l-45 0 0 75 0 75 44 0 c25 0 48 -5 51 -11z m-100 -214 l0 -70 -70 0 -70 0 -3 73 -3 73 73 -3 73 -3 0 -70z m6302 53 c-3 -8 -6 -5 -6 6 -1 11 2 17 5 13 3 -3 4 -12 1 -19z m-6447 -203 l0 -75 75 0 75 0 0 75 c0 73 1 75 25 75 15 0 25 -6 25 -14 0 -8 5 -18 12 -22 7 -4 8 -3 4 4 -4 7 -2 12 4 12 6 0 9 4 6 9 -4 5 3 7 14 4 17 -4 20 -14 20 -56 0 -47 -1 -49 -15 -31 -8 10 -15 15 -14 9 1 -5 1 -22 0 -37 -1 -26 -4 -28 -41 -28 l-39 0 -3 -72 -3 -73 -72 -3 -73 -3 0 76 0 75 -75 0 -75 0 0 -75 0 -75 -60 0 -60 0 0 75 0 75 60 0 60 0 0 75 0 75 75 0 75 0 0 -75z m400 -85 c0 -6 11 -8 25 -4 25 6 25 6 25 -65 l0 -71 -75 0 -75 0 0 -75 0 -75 75 0 75 0 0 -75 0 -75 -75 0 -75 0 0 -75 0 -75 75 0 74 0 3 73 3 72 73 3 72 3 0 -76 0 -75 -75 0 -75 0 0 -75 0 -75 -75 0 -75 0 0 -75 0 -75 75 0 75 0 0 -68 c0 -37 4 -72 10 -77 6 -7 -22 -9 -75 -7 l-85 3 0 75 0 74 -75 0 -75 0 0 75 0 75 75 0 75 0 0 75 0 75 -75 0 -74 0 -3 -72 -3 -73 -72 -3 -73 -3 0 76 0 75 75 0 75 0 0 75 0 75 75 0 75 0 0 75 0 75 -75 0 -76 0 3 73 3 72 73 3 72 3 0 69 c0 63 2 69 23 73 43 8 77 7 77 -3z m326 0 c23 0 24 -3 24 -70 l0 -70 -75 0 -75 0 0 69 c0 64 2 70 23 74 12 3 35 3 51 1 16 -2 39 -4 52 -4z m317 -7 c4 -2 7 -33 7 -69 l0 -64 -75 0 -75 0 0 63 c0 56 3 65 23 75 20 10 100 7 120 -5z m890 7 c14 0 17 -10 17 -70 l0 -70 -75 0 -75 0 0 65 c0 59 2 67 23 75 12 5 38 8 57 5 19 -3 43 -5 53 -5z m305 -6 c8 -2 12 -25 12 -69 l0 -65 -75 0 -75 0 0 63 c0 56 3 65 23 75 19 9 79 7 115 -4z m573 6 l39 0 0 -70 0 -70 -75 0 -75 0 0 -75 0 -75 75 0 75 0 0 -75 0 -75 -75 0 -75 0 0 -75 0 -75 75 0 74 0 3 73 3 72 73 3 72 3 0 -76 0 -75 -75 0 -75 0 0 -75 0 -75 -75 0 -75 0 0 -75 0 -75 75 0 75 0 0 -68 c0 -37 4 -72 10 -77 6 -7 -22 -9 -75 -7 l-85 3 0 75 0 74 -75 0 -75 0 0 75 0 75 75 0 75 0 0 75 0 75 -75 0 -74 0 -3 -72 -3 -73 -72 -3 -73 -3 0 76 0 75 75 0 75 0 0 75 0 75 75 0 75 0 0 75 0 75 -75 0 -76 0 3 73 3 72 73 3 72 3 0 69 c0 63 2 69 23 73 12 2 28 3 35 1 8 -2 31 -4 53 -4z m632 -7 c4 -2 7 -33 7 -69 l0 -64 -75 0 -75 0 0 63 c0 56 3 65 23 75 20 10 100 7 120 -5z m557 7 c0 -6 11 -8 25 -4 25 6 25 6 25 -65 l0 -71 -75 0 -75 0 0 -75 0 -75 75 0 75 0 0 -75 0 -75 -75 0 -75 0 0 -75 0 -75 75 0 74 0 3 73 3 72 73 3 72 3 0 -76 0 -75 -75 0 -75 0 0 -75 0 -75 -75 0 -75 0 0 -75 0 -75 75 0 75 0 0 -68 c0 -37 4 -72 10 -77 6 -7 -22 -9 -75 -7 l-85 3 0 75 0 74 -75 0 -75 0 0 75 0 75 75 0 75 0 0 75 0 75 -75 0 -74 0 -3 -72 -3 -73 -72 -3 -73 -3 0 76 0 75 75 0 75 0 0 75 0 75 75 0 75 0 0 75 0 75 -75 0 -76 0 3 73 3 72 73 3 72 3 0 69 c0 63 2 69 23 73 43 8 77 7 77 -3z m326 0 c23 0 24 -3 24 -70 l0 -70 -75 0 -75 0 0 69 c0 64 2 70 23 74 12 3 35 3 51 1 16 -2 39 -4 52 -4z m587 4 l38 -7 -3 -66 -3 -66 -72 -3 -73 -3 0 72 c0 71 0 71 25 65 14 -4 25 -2 25 4 0 12 10 12 63 4z m310 -5 c27 0 27 0 27 -69 l0 -70 -75 0 -75 0 0 -75 0 -75 75 0 75 0 0 -75 0 -75 -75 0 -75 0 0 -75 0 -75 75 0 74 0 3 73 3 72 73 3 72 3 0 -76 0 -75 -75 0 -75 0 0 -75 0 -75 -75 0 -75 0 0 -75 0 -75 75 0 75 0 0 -68 c0 -37 4 -72 10 -77 6 -7 -22 -9 -75 -7 l-85 3 0 75 0 74 -75 0 -75 0 0 75 0 75 75 0 75 0 0 75 0 75 -75 0 -74 0 -3 -72 -3 -73 -72 -3 -73 -3 0 76 0 75 75 0 75 0 0 75 0 75 75 0 75 0 0 75 0 75 -75 0 -76 0 3 73 3 72 73 3 72 3 0 69 c0 63 2 69 23 73 12 3 33 3 47 0 14 -3 37 -5 53 -4z m303 1 c23 0 24 -3 24 -70 l0 -70 -75 0 -75 0 0 69 c0 64 2 70 23 74 12 3 35 3 51 1 16 -2 39 -4 52 -4z m317 -7 c4 -2 7 -33 7 -69 l0 -64 -75 0 -75 0 0 63 c0 56 3 65 23 75 20 10 100 6 120 -5z m-5845 -210 l3 -72 72 -3 72 -3 0 -70 0 -70 -70 0 -70 0 -3 72 -3 72 -72 3 -72 3 -3 59 c-4 86 -3 87 75 84 l68 -3 3 -72z m600 -1 l3 -73 -73 3 -73 3 -3 59 c-4 86 -3 87 75 84 l68 -3 3 -73z m300 1 l3 -73 -75 0 -75 0 -3 -72 -3 -73 -70 0 -70 0 0 70 0 70 73 3 72 3 0 68 c0 37 3 71 7 75 4 4 37 6 73 4 l65 -3 3 -72z m300 0 l3 -72 72 -3 72 -3 0 -70 0 -70 -70 0 -70 0 -3 72 -3 72 -72 3 -72 3 -3 59 c-4 86 -3 87 75 84 l68 -3 3 -72z m600 -1 l3 -73 -73 3 -73 3 -3 59 c-4 86 -3 87 75 84 l68 -3 3 -73z m300 1 l3 -73 -75 0 -75 0 -3 -72 -3 -73 -70 0 -70 0 0 70 0 70 73 3 72 3 0 68 c0 37 3 71 7 75 4 4 37 6 73 4 l65 -3 3 -72z m300 0 l3 -72 72 -3 72 -3 0 -70 0 -70 -70 0 -70 0 -3 72 -3 72 -72 3 -72 3 -3 59 c-4 86 -3 87 75 84 l68 -3 3 -72z m600 -1 l3 -73 -73 3 -73 3 -3 59 c-4 86 -3 87 75 84 l68 -3 3 -73z m300 1 l3 -73 -75 0 -75 0 -3 -72 -3 -73 -70 0 -70 0 0 70 0 70 73 3 72 3 0 68 c0 37 3 71 7 75 4 4 37 6 73 4 l65 -3 3 -72z m300 0 l3 -72 72 -3 72 -3 0 -70 0 -70 -70 0 -70 0 -3 72 -3 72 -72 3 -72 3 -3 59 c-4 86 -3 87 75 84 l68 -3 3 -72z m600 -1 l3 -73 -73 3 -73 3 -3 59 c-4 86 -3 87 75 84 l68 -3 3 -73z m300 1 l3 -73 -75 0 -75 0 -3 -72 -3 -73 -70 0 -70 0 0 70 0 70 73 3 72 3 0 68 c0 37 3 71 7 75 4 4 37 6 73 4 l65 -3 3 -72z m300 0 l3 -72 72 -3 72 -3 0 -70 0 -70 -70 0 -70 0 -3 72 -3 72 -72 3 -72 3 -3 59 c-4 86 -3 87 75 84 l68 -3 3 -72z m600 -1 l3 -73 -73 3 -73 3 -3 59 c-4 86 -3 87 75 84 l68 -3 3 -73z m300 1 l3 -73 -75 0 -75 0 -3 -72 -3 -73 -70 0 -70 0 0 70 0 70 73 3 72 3 0 68 c0 37 3 71 7 75 4 4 37 6 73 4 l65 -3 3 -72z m300 0 l3 -72 72 -3 72 -3 0 -70 0 -70 -70 0 -70 0 -3 72 -3 72 -72 3 -72 3 -3 59 c-4 86 -3 87 75 84 l68 -3 3 -72z m-6148 -148 l0 -74 73 -3 72 -3 0 -70 0 -70 -72 -3 -73 -3 0 -75 0 -75 -57 3 -58 3 -3 73 -3 72 61 0 60 0 0 75 0 74 -57 3 -58 3 -3 59 c-4 83 -2 86 63 86 l55 0 0 -75z m1200 0 l0 -74 73 -3 72 -3 0 -70 0 -70 -72 -3 -73 -3 0 -74 0 -75 -75 0 -74 0 -3 -72 -3 -73 -72 -3 -73 -3 0 75 0 75 -72 3 -73 3 0 70 0 70 73 3 72 3 0 74 0 75 75 0 75 0 0 68 c0 38 3 72 7 75 3 4 37 7 75 7 l68 0 0 -75z m1200 0 l0 -74 73 -3 72 -3 0 -70 0 -70 -72 -3 -73 -3 0 -74 0 -75 -75 0 -74 0 -3 -72 -3 -73 -72 -3 -73 -3 0 75 0 75 -72 3 -73 3 0 70 0 70 73 3 72 3 0 74 0 75 75 0 75 0 0 68 c0 38 3 72 7 75 3 4 37 7 75 7 l68 0 0 -75z m1200 0 l0 -74 73 -3 72 -3 0 -70 0 -70 -72 -3 -73 -3 0 -74 0 -75 -75 0 -74 0 -3 -72 -3 -73 -72 -3 -73 -3 0 75 0 75 -72 3 -73 3 0 70 0 70 73 3 72 3 0 74 0 75 75 0 75 0 0 68 c0 38 3 72 7 75 3 4 37 7 75 7 l68 0 0 -75z m1200 0 l0 -74 73 -3 72 -3 0 -70 0 -70 -72 -3 -73 -3 0 -74 0 -75 -75 0 -74 0 -3 -72 -3 -73 -72 -3 -73 -3 0 75 0 75 -72 3 -73 3 0 70 0 70 73 3 72 3 0 74 0 75 75 0 75 0 0 68 c0 38 3 72 7 75 3 4 37 7 75 7 l68 0 0 -75z m1200 0 l0 -74 73 -3 72 -3 0 -70 0 -70 -72 -3 -73 -3 0 -74 0 -75 -75 0 -74 0 -3 -72 -3 -73 -72 -3 -73 -3 0 75 0 75 -72 3 -73 3 0 70 0 70 73 3 72 3 0 74 0 75 75 0 75 0 0 68 c0 38 3 72 7 75 3 4 37 7 75 7 l68 0 0 -75z m-5855 -450 l0 -70 -72 -3 -72 -3 -3 -72 -3 -72 -58 -3 -58 -3 3 73 3 73 58 3 57 3 0 68 c0 37 3 71 7 75 4 4 37 6 73 4 l65 -3 0 -70z m603 -2 l3 -72 72 -3 72 -3 0 -70 0 -70 -72 -3 -73 -3 0 75 0 75 -72 3 -73 3 -3 59 c-4 86 -3 87 75 84 l68 -3 3 -72z m597 2 l0 -70 -72 -3 -72 -3 -3 -72 -3 -72 -70 0 -70 0 -3 73 -3 72 76 0 75 0 0 68 c0 38 3 72 7 76 4 4 37 6 73 4 l65 -3 0 -70z m603 -2 l3 -72 72 -3 72 -3 0 -70 0 -70 -72 -3 -73 -3 0 75 0 75 -72 3 -73 3 -3 59 c-4 86 -3 87 75 84 l68 -3 3 -72z m597 2 l0 -70 -72 -3 -72 -3 -3 -72 -3 -72 -70 0 -70 0 -3 73 -3 72 76 0 75 0 0 68 c0 38 3 72 7 76 4 4 37 6 73 4 l65 -3 0 -70z m603 -2 l3 -72 72 -3 72 -3 0 -70 0 -70 -72 -3 -73 -3 0 75 0 75 -72 3 -73 3 -3 59 c-4 86 -3 87 75 84 l68 -3 3 -72z m597 2 l0 -70 -72 -3 -72 -3 -3 -72 -3 -72 -70 0 -70 0 -3 73 -3 72 76 0 75 0 0 68 c0 38 3 72 7 76 4 4 37 6 73 4 l65 -3 0 -70z m603 -2 l3 -72 72 -3 72 -3 0 -70 0 -70 -72 -3 -73 -3 0 75 0 75 -72 3 -73 3 -3 59 c-4 86 -3 87 75 84 l68 -3 3 -72z m597 2 l0 -70 -72 -3 -72 -3 -3 -72 -3 -72 -70 0 -70 0 -3 73 -3 72 76 0 75 0 0 68 c0 38 3 72 7 76 4 4 37 6 73 4 l65 -3 0 -70z m603 -2 l3 -72 72 -3 72 -3 0 -70 0 -70 -72 -3 -73 -3 0 75 0 75 -72 3 -73 3 -3 59 c-4 86 -3 87 75 84 l68 -3 3 -72z m597 2 l0 -70 -72 -3 -72 -3 -3 -72 -3 -72 -70 0 -70 0 -3 73 -3 72 76 0 75 0 0 68 c0 38 3 72 7 76 4 4 37 6 73 4 l65 -3 0 -70z m-5850 -153 c0 -63 2 -72 18 -72 10 0 15 -5 12 -10 -4 -6 -12 -7 -18 -3 -7 5 -43 10 -82 13 l-70 5 -3 73 -3 73 73 -3 73 -3 0 -73z m1200 0 c0 -63 2 -72 18 -72 10 0 15 -5 12 -10 -4 -6 -12 -7 -18 -3 -7 5 -43 10 -82 13 l-70 5 -3 73 -3 73 73 -3 73 -3 0 -73z m1200 0 c0 -63 2 -72 18 -72 10 0 15 -5 12 -10 -4 -6 -12 -7 -18 -3 -7 5 -43 10 -82 13 l-70 5 -3 73 -3 73 73 -3 73 -3 0 -73z m1200 0 c0 -63 2 -72 18 -72 10 0 15 -5 12 -10 -4 -6 -12 -7 -18 -3 -7 5 -43 10 -82 13 l-70 5 -3 73 -3 73 73 -3 73 -3 0 -73z m1200 0 c0 -63 2 -72 18 -72 10 0 15 -5 12 -10 -4 -6 -12 -7 -18 -3 -7 5 -43 10 -82 13 l-70 5 -3 73 -3 73 73 -3 73 -3 0 -73z m1200 0 c0 -63 2 -72 18 -72 10 0 15 -5 12 -10 -4 -6 -12 -7 -18 -3 -7 5 -43 10 -82 13 l-70 5 -3 73 -3 73 73 -3 73 -3 0 -73z m302 56 c-3 -8 -6 -5 -6 6 -1 11 2 17 5 13 3 -3 4 -12 1 -19z m-6567 -132 c0 -11 -19 -15 -25 -6 -3 5 1 10 9 10 9 0 16 -2 16 -4z m114 -4 c3 -5 -1 -9 -9 -9 -8 0 -12 4 -9 9 3 4 7 8 9 8 2 0 6 -4 9 -8z m596 -2 c0 -5 -4 -10 -10 -10 -5 0 -10 5 -10 10 0 6 5 10 10 10 6 0 10 -4 10 -10z m190 6 c0 -11 -19 -15 -25 -6 -3 5 1 10 9 10 9 0 16 -2 16 -4z m115 -6 c-3 -5 -11 -10 -16 -10 -6 0 -7 5 -4 10 3 6 11 10 16 10 6 0 7 -4 4 -10z m185 6 c0 -11 -19 -15 -25 -6 -3 5 1 10 9 10 9 0 16 -2 16 -4z m114 -4 c3 -5 -1 -9 -9 -9 -8 0 -12 4 -9 9 3 4 7 8 9 8 2 0 6 -4 9 -8z m596 -2 c0 -5 -4 -10 -10 -10 -5 0 -10 5 -10 10 0 6 5 10 10 10 6 0 10 -4 10 -10z m190 6 c0 -11 -19 -15 -25 -6 -3 5 1 10 9 10 9 0 16 -2 16 -4z m115 -6 c-3 -5 -11 -10 -16 -10 -6 0 -7 5 -4 10 3 6 11 10 16 10 6 0 7 -4 4 -10z m185 6 c0 -11 -19 -15 -25 -6 -3 5 1 10 9 10 9 0 16 -2 16 -4z m114 -4 c3 -5 -1 -9 -9 -9 -8 0 -12 4 -9 9 3 4 7 8 9 8 2 0 6 -4 9 -8z m561 -10 c-3 -3 -11 0 -18 7 -9 10 -8 11 6 5 10 -3 15 -9 12 -12z m35 8 c0 -5 -4 -10 -10 -10 -5 0 -10 5 -10 10 0 6 5 10 10 10 6 0 10 -4 10 -10z m190 6 c0 -11 -19 -15 -25 -6 -3 5 1 10 9 10 9 0 16 -2 16 -4z m300 0 c0 -11 -19 -15 -25 -6 -3 5 1 10 9 10 9 0 16 -2 16 -4z m114 -4 c3 -5 -1 -9 -9 -9 -8 0 -12 4 -9 9 3 4 7 8 9 8 2 0 6 -4 9 -8z m596 -2 c0 -5 -4 -10 -10 -10 -5 0 -10 5 -10 10 0 6 5 10 10 10 6 0 10 -4 10 -10z m190 6 c0 -11 -19 -15 -25 -6 -3 5 1 10 9 10 9 0 16 -2 16 -4z m115 -6 c-3 -5 -14 -10 -23 -10 -15 0 -15 2 -2 10 20 13 33 13 25 0z m185 6 c0 -11 -19 -15 -25 -6 -3 5 1 10 9 10 9 0 16 -2 16 -4z m114 -4 c3 -5 -1 -9 -9 -9 -8 0 -12 4 -9 9 3 4 7 8 9 8 2 0 6 -4 9 -8z m596 -2 c0 -5 -4 -10 -10 -10 -5 0 -10 5 -10 10 0 6 5 10 10 10 6 0 10 -4 10 -10z m190 6 c0 -11 -19 -15 -25 -6 -3 5 1 10 9 10 9 0 16 -2 16 -4z m115 -6 c-3 -5 -11 -10 -16 -10 -6 0 -7 5 -4 10 3 6 11 10 16 10 6 0 7 -4 4 -10z m185 6 c0 -11 -19 -15 -25 -6 -3 5 1 10 9 10 9 0 16 -2 16 -4z m114 -4 c3 -5 -1 -9 -9 -9 -8 0 -12 4 -9 9 3 4 7 8 9 8 2 0 6 -4 9 -8z m-5697 -8 c-3 -3 -12 -4 -19 -1 -8 3 -5 6 6 6 11 1 17 -2 13 -5z m1200 0 c-3 -3 -12 -4 -19 -1 -8 3 -5 6 6 6 11 1 17 -2 13 -5z m1200 0 c-3 -3 -12 -4 -19 -1 -8 3 -5 6 6 6 11 1 17 -2 13 -5z m1200 0 c-3 -3 -12 -4 -19 -1 -8 3 -5 6 6 6 11 1 17 -2 13 -5z m1200 0 c-3 -3 -12 -4 -19 -1 -8 3 -5 6 6 6 11 1 17 -2 13 -5z m1200 0 c-3 -3 -12 -4 -19 -1 -8 3 -5 6 6 6 11 1 17 -2 13 -5z"/>
 <path d="M925 8310 c3 -4 -1 -10 -7 -13 -7 -2 -9 -8 -5 -13 4 -4 16 1 27 12 20 20 20 20 0 21 -11 1 -18 -2 -15 -7z"/>
 <path d="M2483 8303 c4 -3 10 -3 14 0 3 4 0 7 -7 7 -7 0 -10 -3 -7 -7z"/>
 <path d="M7293 8083 c4 -3 10 -3 14 0 3 4 0 7 -7 7 -7 0 -10 -3 -7 -7z"/>
 <path d="M7318 7963 c7 -3 16 -2 19 1 4 3 -2 6 -13 5 -11 0 -14 -3 -6 -6z"/>
 <path d="M2400 7275 l0 -75 75 0 75 0 0 -75 0 -75 -75 0 -75 0 0 -75 0 -75 75 0 75 0 0 -75 0 -75 -75 0 -75 0 0 -75 0 -75 75 0 74 0 3 73 3 72 50 0 c44 0 50 -3 55 -25 6 -23 7 -22 13 12 4 20 7 79 6 132 -1 94 -2 95 -19 73 -13 -16 -15 -24 -7 -30 7 -4 -13 -6 -43 -5 l-55 3 0 70 c0 70 0 70 29 73 47 6 76 -6 77 -31 1 -21 1 -21 9 3 11 36 11 192 0 210 -8 12 -10 11 -10 -7 0 -21 -5 -23 -55 -23 l-55 0 0 75 0 75 -75 0 -75 0 0 -75z"/>
 <path d="M4173 7323 c4 -3 10 -3 14 0 3 4 0 7 -7 7 -7 0 -10 -3 -7 -7z"/>
 <path d="M1120 7308 c0 -9 5 -20 11 -23 17 -11 18 -2 3 19 -12 17 -14 17 -14 4z"/>
 <path d="M2663 7283 c4 -3 10 -3 14 0 3 4 0 7 -7 7 -7 0 -10 -3 -7 -7z"/>
 <path d="M6853 7283 c4 -3 10 -3 14 0 3 4 0 7 -7 7 -7 0 -10 -3 -7 -7z"/>
 <path d="M2660 7260 c0 -7 3 -10 7 -7 3 4 3 10 0 14 -4 3 -7 0 -7 -7z"/>
 <path d="M6830 6940 c0 -7 3 -10 7 -7 3 4 3 10 0 14 -4 3 -7 0 -7 -7z"/>
 <path d="M5400 6675 l0 -75 75 0 75 0 0 75 0 75 -75 0 -75 0 0 -75z"/>
 <path d="M6833 6680 c0 -30 2 -43 4 -27 2 15 2 39 0 55 -2 15 -4 2 -4 -28z"/>
 <path d="M3811 6363 c-1 -23 3 -44 7 -47 4 -2 6 12 4 32 -5 56 -10 62 -11 15z"/>
 <path d="M2400 6075 l0 -75 75 0 75 0 0 75 0 75 -75 0 -75 0 0 -75z"/>
 <path d="M2400 4875 l0 -75 75 0 75 0 0 -75 0 -75 -75 0 -75 0 0 -75 0 -75 -40 0 c-36 0 -40 3 -48 33 -7 23 -9 0 -9 -85 1 -65 5 -118 9 -118 4 0 8 5 8 10 0 6 18 10 40 10 l40 0 0 -75 0 -75 -40 0 c-43 0 -47 5 -53 85 -1 22 -3 -106 -3 -285 -1 -179 0 -320 2 -315 1 6 5 22 8 38 6 24 11 27 46 27 l40 0 0 -75 0 -75 75 0 75 0 0 75 0 75 41 0 c42 0 69 -17 69 -45 0 -9 5 -13 10 -10 13 8 13 215 0 235 -8 12 -10 11 -10 -8 0 -21 -4 -23 -52 -20 l-53 3 0 70 0 70 50 0 c44 0 50 -3 53 -22 2 -13 8 -23 13 -23 6 0 9 48 8 120 0 66 -5 120 -10 120 -5 0 -9 -9 -9 -20 0 -18 -7 -20 -55 -20 l-56 0 3 73 3 72 50 0 c44 0 50 -2 55 -25 12 -52 20 11 19 153 0 90 -4 136 -10 127 -5 -8 -9 -27 -9 -42 0 -15 -5 -30 -11 -34 -8 -4 -7 -9 2 -15 9 -6 -6 -8 -41 -7 l-55 3 0 70 0 70 58 3 c37 2 57 -1 53 -7 -4 -5 -1 -13 6 -18 18 -11 1138 -11 1145 1 3 5 1 6 -5 2 -7 -4 -12 -2 -12 5 0 6 -8 9 -20 6 -11 -3 -20 -1 -20 4 0 6 29 9 68 7 l67 -3 3 -73 3 -73 -38 3 c-37 4 -38 5 -38 46 0 23 -3 42 -7 42 -3 0 -7 -81 -7 -180 -1 -128 2 -180 10 -180 8 0 8 -4 2 -12 -5 -7 -11 -54 -12 -104 -2 -77 0 -92 14 -98 13 -5 15 -2 10 15 -6 18 -3 20 27 17 l33 -3 3 -72 3 -73 -35 0 c-38 0 -42 6 -49 75 -1 17 -3 -44 -3 -135 0 -91 2 -149 5 -130 6 32 9 35 44 38 l37 3 0 -75 0 -76 75 0 75 0 0 75 0 76 57 -3 c56 -3 57 -4 64 -36 16 -78 20 -30 19 239 -1 156 -1 370 -1 474 l1 190 565 0 c369 0 565 -3 566 -10 1 -5 1 -13 0 -17 0 -5 3 -8 8 -8 5 0 8 12 7 28 -3 24 -7 27 -41 26 -28 -1 -34 1 -22 8 10 5 41 8 70 6 l52 -3 3 -72 c3 -73 3 -73 -23 -73 -14 0 -24 4 -20 9 3 5 0 13 -6 17 -7 4 -9 3 -5 -4 3 -6 2 -13 -3 -16 -5 -4 -12 8 -14 26 -2 18 -4 -174 -4 -427 0 -253 3 -437 6 -410 6 48 8 50 39 53 l32 3 0 -75 0 -76 75 0 75 0 0 75 0 75 65 0 c64 0 65 0 65 -27 0 -22 2 -25 10 -13 5 8 10 58 10 110 0 52 -5 102 -10 110 -8 12 -10 11 -10 -7 0 -22 -4 -23 -65 -23 l-66 0 3 73 3 72 63 3 62 3 0 -33 c0 -25 3 -29 10 -18 5 8 10 60 10 115 0 55 -5 107 -10 115 -8 12 -10 11 -10 -7 0 -22 -4 -23 -65 -23 l-65 0 0 75 0 75 65 0 c61 0 65 -1 65 -22 0 -19 2 -20 10 -8 5 8 10 56 10 105 0 50 -5 97 -10 105 -8 12 -10 11 -10 -8 0 -22 -3 -23 -62 -20 l-63 3 0 70 0 70 59 3 c69 4 78 -5 70 -63 -4 -30 -3 -36 5 -25 6 8 11 22 11 31 0 9 6 19 13 21 6 3 259 4 561 3 498 -2 550 -4 561 -19 11 -14 14 -15 25 -1 11 13 10 14 -4 9 -9 -4 -16 -3 -15 2 4 23 -2 36 -16 31 -8 -4 -17 -2 -21 4 -4 7 12 9 43 7 l48 -3 3 -74 3 -74 -36 6 -35 6 0 -84 0 -83 33 2 32 1 0 -70 0 -70 -33 2 -33 1 3 -81 3 -81 30 -1 30 0 0 -70 0 -70 -30 0 -30 -1 -1 -129 c-1 -73 2 -108 5 -80 5 45 9 50 34 53 l27 3 0 -75 0 -76 75 0 75 0 0 75 0 75 75 0 75 0 0 75 0 75 -75 0 -75 0 0 75 0 75 75 0 75 0 0 75 0 75 -75 0 -75 0 0 75 0 75 75 0 75 0 0 75 0 75 -75 0 -76 0 3 73 3 72 73 3 72 3 0 74 0 75 -75 0 -74 0 -3 -72 -3 -73 -72 -3 -73 -3 0 76 0 75 -75 0 -75 0 0 -75 0 -76 -75 2 -75 2 0 73 0 74 -75 0 -75 0 0 -73 0 -73 -75 -2 -75 -3 0 76 0 75 -75 0 -75 0 0 -74 0 -73 -62 -2 c-35 -1 -76 -3 -93 -5 -16 -2 -22 -1 -12 1 14 4 17 16 17 79 l0 74 -75 0 -74 0 -3 -72 -3 -73 -72 -2 -73 -1 0 74 0 74 -75 0 -75 0 0 -75 0 -75 -75 0 -75 0 0 75 0 75 -75 0 -75 0 0 -73 0 -73 -75 -2 -75 -3 0 76 0 75 -75 0 -75 0 0 -74 0 -73 -62 -2 c-35 -1 -76 -3 -93 -5 -16 -2 -22 -1 -12 1 14 4 17 16 17 79 l0 74 -75 0 -74 0 -3 -72 -3 -73 -72 -2 -73 -1 0 74 0 74 -75 0 -75 0 0 -75 0 -76 -75 2 -75 2 0 73 0 74 -75 0 -75 0 0 -75 0 -75 -75 0 -75 0 0 75 0 75 -75 0 -75 0 0 -74 0 -73 -62 -2 c-35 -1 -76 -3 -93 -5 -16 -2 -22 -1 -12 1 14 4 17 16 17 79 l0 74 -75 0 -74 0 -3 -72 -3 -73 -72 -2 -73 -1 0 74 0 74 -75 0 -75 0 0 -75 0 -76 -75 2 -75 2 0 73 0 74 -75 0 -75 0 0 -73 0 -73 -75 -2 -75 -3 0 76 0 75 -75 0 -75 0 0 75 0 75 -75 0 -75 0 0 -75z m780 -229 c0 -3 -5 -8 -12 -12 -7 -4 -8 -3 -4 4 7 12 16 16 16 8z m105 -6 c3 -6 -1 -7 -9 -4 -18 7 -21 14 -7 14 6 0 13 -4 16 -10z m886 -40 c4 -25 4 -57 2 -72 -5 -27 -8 -28 -64 -28 l-58 0 -3 -72 -3 -73 -70 0 -70 0 0 70 0 70 73 3 72 3 0 68 c0 37 3 71 7 75 4 4 30 6 58 4 l50 -3 6 -45z m209 46 c0 -3 -5 -8 -12 -12 -7 -4 -8 -3 -4 4 7 12 16 16 16 8z m105 -6 c3 -6 -1 -7 -9 -4 -18 7 -21 14 -7 14 6 0 13 -4 16 -10z m492 3 c-4 -3 -10 -3 -14 0 -3 4 0 7 7 7 7 0 10 -3 7 -7z m113 -5 c0 -4 -4 -8 -9 -8 -6 0 -12 4 -15 8 -3 5 1 9 9 9 8 0 15 -4 15 -9z m1087 5 c-4 -3 -10 -3 -14 0 -3 4 0 7 7 7 7 0 10 -3 7 -7z m113 -5 c0 -4 -4 -8 -9 -8 -6 0 -12 4 -15 8 -3 5 1 9 9 9 8 0 15 -4 15 -9z m500 8 c0 -2 -7 -7 -16 -10 -8 -3 -12 -2 -9 4 6 10 25 14 25 6z m-3803 -13 c-4 -3 -10 -3 -14 0 -3 4 0 7 7 7 7 0 10 -3 7 -7z m480 0 c-4 -3 -10 -3 -14 0 -3 4 0 7 7 7 7 0 10 -3 7 -7z m730 0 c-4 -3 -10 -3 -14 0 -3 4 0 7 7 7 7 0 10 -3 7 -7z m470 0 c-4 -3 -10 -3 -14 0 -3 4 0 7 7 7 7 0 10 -3 7 -7z m1200 0 c-4 -3 -10 -3 -14 0 -3 4 0 7 7 7 7 0 10 -3 7 -7z m720 0 c-4 -3 -10 -3 -14 0 -3 4 0 7 7 7 7 0 10 -3 7 -7z m-4037 -208 l0 -75 -75 0 -75 0 0 75 0 75 75 0 75 0 0 -75z m3000 0 l0 -75 -75 0 -75 0 0 -75 0 -75 75 0 75 0 0 -75 0 -75 -75 0 -74 0 -3 -72 -3 -73 -30 0 -30 0 -3 73 -3 72 36 0 35 0 0 74 0 75 -32 3 -33 3 0 70 0 70 33 3 32 3 0 68 c0 37 3 71 7 74 3 4 37 7 75 7 l68 0 0 -75z m1495 0 l0 -70 -70 0 -70 0 -3 73 -3 73 73 -3 73 -3 0 -70z m-3145 -150 l0 -75 -37 0 c-24 0 -33 3 -25 9 10 6 10 10 -3 21 -18 15 -21 90 -3 108 7 7 25 12 40 12 l28 0 0 -75z m272 35 c4 -19 5 -52 2 -72 l-6 -38 -59 0 -59 0 0 -75 0 -75 55 0 c46 0 55 -3 55 -18 0 -10 5 -23 11 -29 7 -7 9 -28 5 -57 l-7 -46 -60 0 -59 0 0 75 0 74 -72 3 -73 3 0 70 0 70 73 3 72 3 0 75 0 75 57 -3 c56 -3 57 -3 65 -38z m-1622 -185 l0 -75 -75 0 -75 0 0 -75 0 -75 75 0 75 0 0 -75 0 -75 -75 0 -75 0 0 75 0 75 -39 0 c-44 0 -51 10 -51 75 0 65 7 75 51 75 l39 0 0 75 0 75 75 0 75 0 0 -75z m4498 3 l-3 -73 -72 -3 -73 -3 0 76 0 75 75 0 76 0 -3 -72z m-3003 -303 l0 -70 -70 0 -70 0 -3 73 -3 73 73 -3 73 -3 0 -70z m1503 3 l-3 -73 -70 0 -70 0 -3 73 -3 72 76 0 76 0 -3 -72z m1497 -3 l0 -70 -70 0 -70 0 -3 73 -3 73 73 -3 73 -3 0 -70z"/>
 <path d="M3830 4910 c0 -7 3 -10 7 -7 3 4 3 10 0 14 -4 3 -7 0 -7 -7z"/>
 <path d="M1463 4903 c4 -3 10 -3 14 0 3 4 0 7 -7 7 -7 0 -10 -3 -7 -7z"/>
 <path d="M2864 4898 c-4 -7 -3 -8 4 -4 12 7 16 16 8 16 -3 0 -8 -5 -12 -12z"/>
 <path d="M5063 4903 c4 -3 10 -3 14 0 3 4 0 7 -7 7 -7 0 -10 -3 -7 -7z"/>
 <path d="M6263 4903 c4 -3 10 -3 14 0 3 4 0 7 -7 7 -7 0 -10 -3 -7 -7z"/>
 <path d="M6464 4898 c-4 -7 -3 -8 4 -4 7 4 12 9 12 12 0 8 -9 4 -16 -8z"/>
 <path d="M3830 4534 c0 -8 5 -12 10 -9 6 4 8 11 5 16 -9 14 -15 11 -15 -7z"/>
 <path d="M6830 4540 c0 -7 3 -10 7 -7 3 4 3 10 0 14 -4 3 -7 0 -7 -7z"/>
 <path d="M6833 4280 c0 -30 2 -43 4 -27 2 15 2 39 0 55 -2 15 -4 2 -4 -28z"/>
 <path d="M6833 3960 c0 -25 2 -35 4 -22 2 12 2 32 0 45 -2 12 -4 2 -4 -23z"/>
 <path d="M2305 3660 c3 -5 8 -10 11 -10 3 0 2 5 -1 10 -3 6 -8 10 -11 10 -3 0 -2 -4 1 -10z"/>
 <path d="M6854 3659 c-3 -6 -1 -16 4 -21 8 -8 11 -5 9 11 -1 24 -3 25 -13 10z"/>
 <path d="M3811 3644 c0 -11 3 -14 6 -6 3 7 2 16 -1 19 -3 4 -6 -2 -5 -13z"/>
 <path d="M4173 3653 c4 -3 10 -3 14 0 3 4 0 7 -7 7 -7 0 -10 -3 -7 -7z"/>
 <path d="M2310 3630 c0 -7 3 -10 7 -7 3 4 3 10 0 14 -4 3 -7 0 -7 -7z"/>
 <path d="M2110 3560 c0 -7 3 -10 7 -7 3 4 3 10 0 14 -4 3 -7 0 -7 -7z"/>
 <path d="M3310 3560 c0 -7 3 -10 7 -7 3 4 3 10 0 14 -4 3 -7 0 -7 -7z"/>
 <path d="M5727 8323 c-5 -7 -5 -13 0 -13 4 0 1 -4 -7 -10 -8 -5 -11 -12 -7 -16 11 -12 29 12 25 32 -2 14 -6 16 -11 7z"/>
 <path d="M1800 7875 l0 -75 -75 0 -75 0 0 -75 0 -75 75 0 75 0 0 75 0 75 75 0 75 0 0 75 0 75 -75 0 -75 0 0 -75z"/>
 <path d="M3000 7875 l0 -75 -75 0 -75 0 0 -75 0 -75 75 0 75 0 0 75 0 75 75 0 75 0 0 75 0 75 -75 0 -75 0 0 -75z"/>
 <path d="M4200 7875 l0 -75 -75 0 -75 0 0 -75 0 -75 75 0 75 0 0 75 0 75 75 0 75 0 0 75 0 75 -75 0 -75 0 0 -75z"/>
 <path d="M5400 7875 l0 -75 -75 0 -75 0 0 -75 0 -75 75 0 75 0 0 75 0 75 75 0 75 0 0 75 0 75 -75 0 -75 0 0 -75z"/>
 <path d="M6600 7875 l0 -75 -75 0 -75 0 0 -75 0 -75 75 0 75 0 0 75 0 75 75 0 75 0 0 75 0 75 -75 0 -75 0 0 -75z"/>
 <path d="M3830 6934 c0 -8 5 -12 10 -9 6 4 8 11 5 16 -9 14 -15 11 -15 -7z"/>
 <path d="M6830 5740 c0 -7 3 -10 7 -7 3 4 3 10 0 14 -4 3 -7 0 -7 -7z"/>
 <path d="M5400 5475 l0 -75 75 0 75 0 0 75 0 75 -75 0 -75 0 0 -75z"/>
 <path d="M6833 5480 c0 -30 2 -43 4 -27 2 15 2 39 0 55 -2 15 -4 2 -4 -28z"/>
 <path d="M6833 5160 c0 -25 2 -35 4 -22 2 12 2 32 0 45 -2 12 -4 2 -4 -23z"/>
 <path d="M3830 5734 c0 -8 5 -12 10 -9 6 4 8 11 5 16 -9 14 -15 11 -15 -7z"/>
 <path d="M1800 3075 l0 -75 -75 0 -75 0 0 -75 0 -75 75 0 75 0 0 75 0 75 75 0 75 0 0 75 0 75 -75 0 -75 0 0 -75z"/>
 <path d="M3000 3075 l0 -75 -75 0 -75 0 0 -75 0 -75 75 0 75 0 0 75 0 75 75 0 75 0 0 75 0 75 -75 0 -75 0 0 -75z"/>
 <path d="M4200 3075 l0 -75 -75 0 -75 0 0 -75 0 -75 75 0 75 0 0 75 0 75 75 0 75 0 0 75 0 75 -75 0 -75 0 0 -75z"/>
 <path d="M5400 3075 l0 -75 -75 0 -75 0 0 -75 0 -75 75 0 75 0 0 75 0 75 75 0 75 0 0 75 0 75 -75 0 -75 0 0 -75z"/>
 <path d="M6600 3075 l0 -75 -75 0 -75 0 0 -75 0 -75 75 0 75 0 0 75 0 75 75 0 75 0 0 75 0 75 -75 0 -75 0 0 -75z"/>
 <path d="M642 8070 c0 -14 2 -19 5 -12 2 6 2 18 0 25 -3 6 -5 1 -5 -13z"/>
 <path d="M630 8020 c0 -7 3 -10 7 -7 3 4 3 10 0 14 -4 3 -7 0 -7 -7z"/>
 <path d="M2040 2190 l-25 -8 27 -1 c47 -2 58 -11 58 -48 l0 -34 -72 3 c-70 3 -73 4 -75 28 -2 23 -2 23 6 5 9 -18 10 -18 10 -2 1 10 8 25 16 34 9 8 15 17 13 19 -9 8 -100 -31 -132 -57 -38 -32 -50 -57 -18 -40 26 14 34 14 43 -1 7 -10 9 -10 9 0 0 6 11 12 25 12 24 0 25 -2 25 -76 l0 -76 -75 4 c-44 2 -76 -1 -78 -7 -2 -5 -2 4 0 20 3 17 11 45 20 63 26 58 6 46 -22 -13 -30 -59 -47 -164 -26 -151 6 4 11 0 12 -11 1 -13 3 -11 10 7 8 24 8 24 7 -5 -1 -56 -2 -55 77 -55 l75 0 0 -75 0 -75 -75 0 c-46 0 -75 -4 -75 -11 0 -5 -5 -7 -12 -3 -8 5 -9 2 -5 -10 4 -10 3 -15 -3 -11 -15 10 -12 35 5 35 12 0 15 15 15 75 0 68 -2 75 -19 75 -20 0 -20 -11 -20 -529 -1 -524 -1 -529 19 -524 17 4 20 0 20 -25 0 -17 -4 -33 -10 -37 -5 -3 -6 -13 -3 -21 3 -9 0 -20 -7 -24 -9 -5 -11 -19 -6 -44 8 -40 13 -43 42 -21 17 13 17 14 2 15 -9 0 -19 3 -21 8 -3 4 30 6 74 4 l79 -4 0 -74 0 -74 -30 0 c-21 0 -28 4 -24 14 4 10 -2 14 -19 12 -23 -1 -23 -2 -8 -23 26 -35 65 -55 80 -40 10 9 12 9 9 -3 -2 -9 6 -16 20 -18 12 -2 22 2 22 8 0 6 -4 8 -10 5 -9 -6 -15 8 -11 29 1 5 -5 6 -14 2 -9 -3 -13 -2 -10 4 3 6 35 10 71 10 69 0 89 -15 64 -45 -7 -9 -11 -18 -8 -20 12 -12 97 26 131 59 21 20 42 36 46 36 11 0 52 77 63 119 12 45 19 1124 9 1281 -6 85 -14 126 -29 156 -31 61 -96 120 -158 144 -59 22 -66 22 -104 10z m130 -101 c0 -8 14 -10 39 -6 25 3 38 1 38 -7 0 -6 1 -37 1 -68 2 -55 3 -58 27 -58 18 0 23 -4 19 -15 -4 -9 0 -15 10 -15 12 0 16 -10 16 -44 0 -39 -3 -46 -27 -55 -21 -8 -22 -10 -6 -7 13 2 26 0 29 -5 3 -5 -11 -9 -30 -9 l-35 0 -3 -72 -3 -73 -72 -3 -73 -3 0 76 0 75 75 0 75 0 0 75 0 74 -72 3 -73 3 -3 73 -3 72 36 0 c19 0 35 -5 35 -11z m-75 -214 l0 -70 -72 -3 -73 -3 0 76 0 76 73 -3 72 -3 0 -70z m0 -300 l0 -70 -72 -3 -72 -3 -3 -72 -3 -72 -70 0 -70 0 -3 73 -3 72 76 0 75 0 0 68 c0 38 3 72 7 76 4 4 37 6 73 4 l65 -3 0 -70z m178 68 c-21 -8 -15 -22 7 -16 14 4 20 0 20 -11 0 -9 5 -16 10 -16 6 0 10 -22 10 -50 l0 -50 -35 0 -35 0 0 75 c0 65 2 75 18 74 10 0 12 -3 5 -6z m-476 -105 c-2 -13 -4 -3 -4 22 0 25 2 35 4 23 2 -13 2 -33 0 -45z m448 -113 l0 -70 -70 0 -70 0 -3 73 -3 73 73 -3 73 -3 0 -70z m-446 -102 c-2 -26 -2 -27 -6 -4 -4 19 -7 21 -14 10 -7 -11 -9 -11 -9 4 0 9 7 17 15 17 10 0 15 -9 14 -27z m301 -48 l0 -75 75 0 75 0 0 75 c0 41 4 75 9 75 5 0 7 -10 3 -22 -5 -19 -3 -21 9 -11 25 20 42 -2 47 -61 l4 -56 -35 0 -36 0 -3 -72 -3 -73 -72 -3 -73 -3 0 76 0 75 -75 0 -75 0 0 -75 0 -75 -73 0 -74 0 -7 117 c-3 64 -4 118 -1 121 3 3 5 -16 5 -41 l0 -47 75 0 75 0 0 75 0 75 75 0 75 0 0 -75z m-323 -67 c-3 -8 -6 -5 -6 6 -1 11 2 17 5 13 3 -3 4 -12 1 -19z m0 -190 c-3 -7 -5 -2 -5 12 0 14 2 19 5 13 2 -7 2 -19 0 -25z m321 -45 l3 -73 69 0 c80 0 84 -5 78 -96 l-3 -49 -70 0 -70 0 -3 72 -3 72 -72 3 -72 3 -3 59 c-4 86 -3 87 75 84 l68 -3 3 -72z m200 71 c20 -6 23 -12 21 -55 -2 -26 -6 -46 -10 -44 -4 3 -12 -2 -19 -10 -21 -25 -40 1 -40 55 0 60 4 65 48 54z m-423 -144 l75 0 0 -75 0 -74 73 -3 72 -3 0 -70 0 -70 -72 -3 -73 -3 0 76 0 75 -75 0 -75 0 0 75 c0 64 -2 75 -17 76 -11 0 -13 3 -5 6 7 3 13 29 14 71 l2 67 3 -72 4 -73 74 0z m414 3 c2 -1 -6 -1 -18 0 -11 1 -21 8 -21 15 0 12 3 12 18 1 9 -7 19 -14 21 -16z m29 -220 l3 -61 -32 2 c-29 2 -30 1 -13 -12 18 -13 18 -14 -1 -10 -18 3 -20 12 -23 76 l-3 73 33 -3 33 -3 3 -62z m-70 -143 c0 -56 -2 -62 -29 -75 -34 -18 -42 -19 -33 -2 6 10 4 10 -7 0 -7 -7 -28 -13 -46 -13 l-33 0 0 75 0 75 74 0 74 0 0 -60z"/>
 <path d="M3961 2189 c-49 -15 -104 -52 -140 -96 -37 -45 -75 -139 -65 -162 6 -14 8 -14 11 2 4 14 16 17 69 17 l64 0 0 -75 0 -75 -69 0 c-46 0 -71 4 -74 13 -2 6 -4 -32 -4 -87 0 -54 3 -93 7 -87 4 8 30 11 71 9 l64 -3 3 -72 3 -73 -70 0 c-68 0 -70 -1 -75 -28 -7 -28 -4 -152 2 -133 2 7 32 11 73 11 l69 0 0 -75 0 -75 -69 0 c-54 0 -70 -4 -75 -16 -8 -22 -7 -107 2 -121 4 -7 36 -13 72 -15 l65 -3 3 -72 3 -73 -70 0 c-46 0 -71 4 -74 13 -2 6 -4 -32 -4 -86 1 -65 4 -94 11 -87 5 5 38 10 73 10 l63 0 0 -75 0 -75 -62 1 c-35 0 -55 3 -46 7 15 6 14 9 -7 18 -23 11 -24 10 -21 -20 11 -109 157 -234 259 -222 28 3 47 20 47 41 0 6 -5 3 -10 -5 -8 -12 -10 -11 -10 8 0 20 -4 22 -60 22 -41 0 -60 4 -60 13 0 7 -7 4 -15 -7 -8 -11 -18 -16 -22 -12 -4 4 -3 10 2 14 6 4 10 36 10 72 l0 65 73 3 72 3 0 -76 0 -75 53 0 c42 -1 49 -3 37 -13 -24 -19 -24 -46 -1 -40 27 7 74 51 67 62 -4 5 0 12 6 14 10 4 10 6 1 6 -9 1 -13 20 -13 61 l0 60 33 0 c17 0 27 -4 21 -8 -5 -4 -11 -29 -13 -57 -2 -27 -5 -54 -9 -60 -3 -5 7 3 21 18 15 15 33 40 41 55 16 31 36 130 36 176 l0 31 -65 -3 -66 -4 3 74 3 73 50 0 c44 0 50 -3 55 -25 l6 -25 7 25 c10 38 8 193 -3 210 -8 12 -10 11 -10 -7 0 -21 -5 -23 -55 -23 l-55 0 0 75 0 75 55 0 c50 0 55 -2 55 -22 0 -19 2 -20 10 -8 5 8 10 56 10 105 0 50 -5 97 -10 105 -8 12 -10 11 -10 -8 0 -21 -4 -23 -52 -20 l-53 3 -3 73 -3 72 46 0 c31 0 44 -4 43 -12 -2 -7 6 -13 17 -13 18 0 20 8 23 90 l3 90 -66 -3 -65 -4 0 76 0 75 63 3 62 3 3 43 c5 72 -16 144 -61 212 -23 35 -51 69 -62 74 -11 6 -23 16 -27 21 -4 6 -10 -5 -14 -22 -6 -32 -8 -33 -60 -33 -53 0 -54 1 -54 28 0 35 33 54 70 40 15 -6 21 -6 15 0 -31 29 -112 38 -174 21z m-58 -86 c4 -3 39 -5 77 -4 l71 2 -3 -73 -3 -73 -70 0 -70 0 -3 70 c-2 40 -8 73 -15 77 -8 5 -8 8 -1 8 6 0 14 -3 17 -7z m370 -72 c17 -32 17 -33 -3 -38 -11 -3 -20 -14 -20 -24 0 -14 -7 -19 -25 -19 -24 0 -25 -2 -25 -75 l0 -75 -75 0 -75 0 0 -75 0 -75 75 0 76 0 -3 -72 -3 -73 -72 -3 -73 -3 0 75 0 75 -72 3 -73 3 0 70 0 70 73 3 72 3 0 74 0 75 75 0 75 0 0 64 c0 53 3 65 18 68 20 4 30 -6 55 -51z m-228 -606 l0 -70 -70 0 -70 0 -3 73 -3 73 73 -3 73 -3 0 -70z m155 -150 l0 -75 -75 0 -75 0 0 -75 0 -75 -75 0 -75 0 0 75 0 75 75 0 75 0 0 75 0 75 75 0 75 0 0 -75z m-2 -302 l3 -73 -75 0 -75 0 -3 -72 -3 -73 -70 0 -70 0 0 70 0 70 73 3 72 3 0 68 c0 37 3 71 7 75 4 4 37 6 73 4 l65 -3 3 -72z m2 -298 l0 -75 -75 0 -75 0 0 75 0 75 75 0 75 0 0 -75z"/>
 <path d="M4263 2003 c4 -3 10 -3 14 0 3 4 0 7 -7 7 -7 0 -10 -3 -7 -7z"/>
 <path d="M5965 2193 c-11 -3 -29 -12 -40 -20 -18 -13 -16 -14 28 -9 l47 5 0 -35 0 -34 -55 0 c-30 0 -55 4 -55 10 0 5 7 7 14 4 13 -5 13 -2 3 20 -7 14 -13 21 -15 16 -2 -6 -8 -10 -13 -10 -20 0 -72 -47 -94 -85 -44 -75 -46 -121 -43 -810 l3 -650 23 -31 c13 -17 24 -38 26 -47 1 -10 17 -33 36 -52 24 -25 37 -32 46 -24 8 7 14 6 20 -2 4 -8 3 -9 -4 -5 -7 4 -12 2 -12 -3 0 -17 30 -13 36 4 4 10 20 15 45 15 35 0 39 -3 39 -25 0 -19 -5 -25 -22 -25 -18 0 -20 -2 -9 -9 26 -16 133 -6 178 17 79 41 146 128 160 205 8 50 12 1150 4 1268 -11 155 -59 237 -171 291 -44 22 -134 32 -175 21z m-81 -78 c-4 -8 -13 -15 -21 -15 -13 0 -13 3 -3 15 7 8 16 15 21 15 5 0 6 -7 3 -15z m264 -92 l3 -73 -76 0 -75 0 0 -75 0 -75 75 0 74 0 3 73 3 72 45 3 c32 2 48 -1 56 -13 6 -9 18 -14 25 -13 10 2 15 -10 17 -39 2 -26 -1 -43 -7 -43 -6 0 -11 -5 -11 -11 0 -5 5 -7 10 -4 6 3 10 2 10 -3 0 -16 -27 -22 -91 -22 l-59 0 0 -75 0 -75 -75 0 -75 0 0 -75 0 -75 75 0 75 0 0 -75 0 -74 73 -3 c67 -3 72 -5 75 -27 3 -19 0 -23 -15 -17 -17 6 -17 5 0 -8 11 -9 17 -27 17 -55 l0 -41 -75 0 -75 0 0 -75 0 -75 -75 0 -75 0 0 -75 0 -75 75 0 75 0 0 -75 0 -75 -75 0 -75 0 0 -75 0 -75 75 0 74 0 3 73 3 72 58 3 c42 2 57 0 52 -8 -4 -7 2 -14 14 -17 17 -4 21 -13 21 -42 0 -44 -13 -66 -34 -58 -9 4 -16 2 -16 -3 0 -5 8 -11 18 -13 9 -3 -13 -5 -50 -6 l-68 -1 0 -73 0 -73 -75 -3 -75 -2 0 75 0 76 -75 0 -75 0 0 -67 c0 -38 -4 -63 -8 -57 -4 6 -13 13 -21 16 -8 2 -16 14 -18 27 -2 13 -13 35 -24 50 l-21 26 46 3 46 3 0 75 0 74 75 0 75 0 0 75 0 75 -75 0 -76 0 3 73 3 72 73 3 72 3 0 74 0 75 -75 0 -74 0 -3 -72 -3 -73 -45 0 -45 0 -3 73 -3 72 51 0 50 0 0 75 0 75 75 0 75 0 0 75 0 75 -75 0 -75 0 0 75 0 75 75 0 75 0 0 75 0 75 -75 0 -74 0 -3 -72 -3 -73 -45 0 -45 0 0 70 0 70 48 3 47 3 0 75 0 74 75 0 75 0 0 75 0 76 73 -3 72 -3 3 -72z m-302 -59 c-7 -18 -86 -19 -86 -2 0 15 40 58 54 58 6 0 4 -5 -4 -10 -9 -6 -10 -10 -3 -10 11 0 26 16 29 33 6 29 8 27 11 -12 3 -24 2 -50 -1 -57z m404 -324 c-9 -6 -11 -10 -3 -10 7 0 10 -7 7 -15 -5 -11 1 -15 20 -15 26 0 27 -2 24 -47 l-3 -48 -70 0 -70 0 -3 59 c-4 82 -2 86 60 86 38 0 49 -3 38 -10z m-405 -215 l0 -70 -45 0 -45 0 -3 59 c-4 81 0 88 50 84 l43 -3 0 -70z m453 -432 c4 -72 -19 -95 -91 -91 l-52 3 -3 59 c-4 86 -3 87 75 84 l68 -3 3 -52z m-453 -168 l0 -70 -45 0 -45 0 -3 59 c-4 81 0 88 50 84 l43 -3 0 -70z"/>
 <path d="M6257 1827 c-3 -8 1 -14 8 -14 7 0 11 6 8 14 -3 7 -6 13 -8 13 -2 0 -5 -6 -8 -13z"/>
 <path d="M6000 1275 l0 -75 75 0 75 0 0 75 0 75 -75 0 -75 0 0 -75z"/>
 <path d="M5814 548 c-4 -7 -3 -8 4 -4 12 7 16 16 8 16 -3 0 -8 -5 -12 -12z"/>
 <path d="M5813 514 c0 -16 13 -19 21 -5 3 5 0 11 -7 14 -8 3 -14 -1 -14 -9z"/>
 <path d="M1822 2008 c-7 -7 -11 -21 -11 -32 1 -21 1 -21 6 -1 3 11 10 26 15 33 13 15 6 16 -10 0z"/>
 <path d="M0 1854 c0 -27 5 -56 11 -64 7 -11 8 3 3 45 -8 75 -14 83 -14 19z"/>
 <path d="M7980 1842 c0 -30 -29 -131 -60 -209 -38 -95 -120 -233 -176 -297 -24 -28 -41 -52 -39 -55 3 -2 13 5 23 17 11 12 21 21 23 19 2 -1 3 0 2 2 -3 5 29 30 40 31 4 0 7 -34 7 -75 l0 -75 -75 0 -75 0 0 -75 0 -76 -72 3 -73 3 -3 31 c-2 25 2 33 25 44 45 23 46 23 38 10 -5 -8 -4 -11 3 -6 6 3 10 15 9 26 -1 19 -2 19 -27 3 -70 -47 -218 -113 -306 -138 -101 -28 -148 -51 -87 -43 18 2 30 1 27 -4 -3 -4 0 -8 5 -8 6 0 11 -16 11 -35 l0 -35 -75 0 c-61 0 -75 3 -75 16 0 9 5 12 13 8 9 -6 9 -4 -1 8 -11 13 -11 18 0 24 7 5 15 9 18 9 3 0 14 6 25 13 17 11 12 12 -35 8 -30 -3 -130 -6 -222 -6 l-168 0 0 -56 c0 -50 1 -54 16 -40 8 9 24 16 35 16 17 0 19 -8 19 -75 0 -73 -1 -75 -24 -75 -13 0 -26 6 -29 13 -6 16 -15 -41 -21 -135 -3 -48 0 -80 6 -84 6 -4 8 2 3 16 -8 25 7 40 43 40 21 0 22 4 22 75 l0 76 73 -3 72 -3 0 -70 0 -70 -72 -3 -73 -3 0 -74 0 -75 -35 0 c-19 0 -35 5 -35 10 0 25 -29 6 -43 -28 -8 -21 -31 -64 -50 -96 -116 -192 -296 -305 -517 -326 -53 -5 -7 -7 153 -8 l227 -2 0 50 c0 33 4 50 13 50 9 0 9 2 0 8 -26 16 24 42 82 42 l55 0 0 -75 0 -75 75 0 75 0 0 75 0 75 75 0 75 0 0 -75 0 -75 75 0 75 0 0 75 0 75 75 0 75 0 0 -75 0 -75 75 0 75 0 0 75 0 75 75 0 75 0 0 -75 0 -75 75 0 75 0 0 75 0 75 75 0 75 0 0 -75 0 -75 75 0 75 0 0 75 c0 73 1 75 25 75 24 0 25 2 25 75 0 74 0 75 -25 75 -26 0 -26 1 -23 73 3 66 5 72 26 75 21 3 22 8 22 78 0 72 -1 74 -25 74 -24 0 -25 2 -25 75 0 73 1 75 25 75 24 0 25 2 25 74 0 70 -1 75 -22 78 -21 3 -23 8 -23 73 0 65 2 70 23 73 21 3 22 8 22 78 0 72 -1 74 -25 74 -24 0 -25 2 -25 75 0 73 1 75 25 75 24 0 25 2 25 75 0 73 -1 75 -25 75 -24 0 -25 2 -25 66 0 41 4 63 10 59 6 -3 10 1 10 9 0 9 7 16 15 16 12 0 15 18 15 105 0 63 -4 105 -10 105 -5 0 -10 -8 -10 -18z m-32 -414 l-3 -73 -58 -3 c-68 -4 -90 9 -77 41 4 12 14 21 20 19 8 -2 10 3 7 13 -6 15 8 20 42 16 11 -2 11 0 0 12 -8 8 -18 12 -24 9 -6 -3 -6 -1 -2 4 9 9 13 10 45 13 15 1 15 3 2 11 -11 7 -7 10 18 10 l33 0 -3 -72z m2 -303 l0 -75 -75 0 -75 0 0 75 0 75 75 0 75 0 0 -75z m-452 -153 l3 -73 -73 3 -73 3 -3 59 c-4 85 -3 87 75 84 l68 -3 3 -73z m300 1 l3 -73 -75 0 -75 0 -3 -72 -3 -73 -70 0 -70 0 0 70 0 70 73 3 72 3 0 68 c0 37 3 71 7 75 4 4 37 6 73 4 l65 -3 3 -72z m-914 -9 c9 -4 16 -18 16 -35 0 -28 0 -28 73 -31 l72 -3 0 -70 0 -70 -70 0 -70 0 -3 72 -3 72 -72 3 c-69 3 -72 4 -74 28 -2 23 -2 23 6 5 9 -19 10 -19 10 2 1 12 7 24 14 26 18 8 83 8 101 1z m466 -139 l0 -75 -75 0 -75 0 0 -75 0 -75 75 0 74 0 3 73 3 72 73 3 72 3 0 -76 0 -75 -75 0 -75 0 0 -75 0 -75 -75 0 -75 0 0 -75 0 -75 75 0 75 0 0 -75 0 -75 -75 0 -75 0 0 75 0 75 -75 0 -75 0 0 75 0 75 75 0 75 0 0 75 0 75 -75 0 -74 0 -3 -72 -3 -73 -72 -3 -73 -3 0 76 0 75 75 0 75 0 0 75 0 75 75 0 75 0 0 75 0 75 75 0 75 0 0 -75z m600 0 l0 -75 -75 0 -75 0 0 -75 0 -75 75 0 75 0 0 -75 0 -75 -75 0 -74 0 -3 -72 -3 -73 -72 -3 -73 -3 0 75 0 75 -72 3 -73 3 0 70 0 70 73 3 72 3 0 74 0 75 75 0 75 0 0 68 c0 38 3 72 7 75 3 4 37 7 75 7 l68 0 0 -75z m-1055 -450 l0 -70 -72 -3 -72 -3 -3 -72 -3 -72 -70 0 -70 0 -1 73 -2 72 74 0 74 0 0 68 c0 38 3 72 7 76 4 4 37 6 73 4 l65 -3 0 -70z m603 -2 l3 -72 72 -3 72 -3 0 -70 0 -70 -70 0 -70 0 -3 72 -3 72 -72 3 -72 3 -3 59 c-4 86 -3 87 75 84 l68 -3 3 -72z m-453 -148 l0 -70 -70 0 -70 0 -3 73 -3 73 73 -3 73 -3 0 -70z m903 3 l-3 -73 -70 0 -70 0 -3 73 -3 72 76 0 76 0 -3 -72z"/>
 <path d="M7650 525 l0 -75 75 0 75 0 0 75 0 75 -75 0 -75 0 0 -75z"/>
 <path d="M20 1728 c0 -21 -4 -38 -10 -38 -6 0 -10 -38 -10 -95 l0 -95 40 0 c22 0 41 -4 41 -10 1 -5 3 -14 4 -20 1 -5 3 -14 4 -19 0 -5 7 -9 14 -8 43 1 47 -3 47 -48 l0 -45 45 0 45 0 -25 38 c-59 88 -111 182 -138 247 -15 39 -35 84 -42 100 l-15 30 0 -37z"/>
 <path d="M0 1275 l0 -75 75 0 75 0 0 -75 0 -75 -75 0 -75 0 0 -75 0 -75 75 0 75 0 0 -75 0 -75 -75 0 -75 0 0 -75 0 -75 75 0 75 0 0 -75 0 -75 -75 0 -75 0 0 -75 0 -75 75 0 75 0 0 -75 0 -75 -75 0 -75 0 0 -75 0 -75 75 0 75 0 0 75 0 75 75 0 75 0 0 -75 0 -75 75 0 75 0 0 75 0 75 75 0 75 0 0 -75 0 -75 75 0 75 0 0 75 0 75 75 0 75 0 0 -75 0 -75 75 0 75 0 0 75 0 75 75 0 75 0 0 -75 0 -75 75 0 75 0 0 75 0 75 75 0 75 0 0 -75 0 -75 75 0 75 0 1 38 c0 35 17 92 18 64 1 -7 5 -11 11 -7 9 6 44 -10 67 -32 7 -6 14 -23 15 -37 2 -26 2 -26 100 -26 101 0 130 13 56 25 -76 13 -201 67 -252 109 -104 87 -127 110 -141 140 -8 17 -26 44 -40 60 -25 29 -67 151 -85 247 -6 28 -10 129 -10 224 l0 173 -247 6 c-137 3 -266 8 -288 12 -45 7 -40 -5 8 -22 26 -9 33 -17 35 -43 l3 -32 -73 3 c-70 3 -73 4 -75 28 -2 23 -2 23 6 5 9 -19 10 -19 10 2 1 12 10 28 20 35 30 21 12 37 -80 68 -80 27 -190 82 -271 135 -34 23 -37 23 -35 5 1 -10 6 -16 12 -12 5 3 4 -2 -3 -11 -16 -19 -7 -39 16 -35 13 2 18 -6 20 -34 l3 -38 -75 0 -76 0 0 75 0 75 48 0 47 0 -50 45 c-27 25 -49 45 -50 45 0 0 1 -20 3 -45 l4 -45 -77 0 -77 0 4 73 3 72 -78 3 -77 3 0 -76z m298 -303 l3 -73 -73 3 -73 3 -3 59 c-4 86 -3 87 75 84 l68 -3 3 -73z m271 72 l31 -6 0 -69 0 -69 -75 0 -74 0 -3 -72 -3 -73 -70 0 -70 0 0 70 0 70 73 3 72 3 0 68 c0 37 3 71 7 74 8 9 71 9 112 1z m198 -71 c-4 -3 -7 0 -7 7 0 7 3 10 7 7 3 -4 3 -10 0 -14z m433 -38 l0 -35 75 0 75 0 0 -55 c0 -30 -4 -55 -10 -55 -5 0 -10 -8 -10 -17 0 -15 2 -16 10 -3 8 13 10 12 10 -2 0 -16 -10 -18 -75 -18 l-75 0 0 -75 0 -75 75 0 75 0 0 70 c0 58 3 68 15 64 11 -5 15 -22 15 -70 0 -50 -3 -64 -15 -64 -16 0 -17 -7 -15 -92 l1 -58 -75 0 -76 0 0 -75 0 -75 75 0 75 0 0 -75 0 -75 -75 0 -75 0 0 75 0 75 -75 0 -75 0 0 75 0 75 75 0 75 0 0 75 0 75 -75 0 -74 0 -3 -72 -3 -73 -72 -3 -73 -3 0 76 0 75 75 0 75 0 0 75 0 75 75 0 75 0 0 75 0 75 -75 0 c-61 0 -75 3 -75 16 0 9 5 12 13 8 8 -5 8 -3 -2 9 -12 15 -10 18 10 26 13 5 48 10 77 10 l52 1 0 -35z m180 -10 c0 -8 -7 -15 -15 -15 -8 0 -15 7 -15 15 0 8 7 15 15 15 8 0 15 -7 15 -15z m-630 -100 l0 -74 73 -3 72 -3 0 -70 0 -70 -72 -3 -73 -3 0 -74 0 -75 -75 0 -74 0 -3 -72 -3 -73 -72 -3 -73 -3 0 75 0 75 -72 3 -73 3 0 70 0 70 73 3 72 3 0 74 0 75 75 0 75 0 0 68 c0 38 3 72 7 75 3 4 37 7 75 7 l68 0 0 -75z m295 0 l0 -70 -70 0 -70 0 -3 73 -3 73 73 -3 73 -3 0 -70z m-745 -150 l0 -75 -75 0 -75 0 0 68 c0 38 3 72 7 75 3 4 37 7 75 7 l68 0 0 -75z m-2 -302 l3 -72 72 -3 72 -3 0 -70 0 -70 -70 0 -70 0 -3 72 -3 72 -72 3 -72 3 -3 59 c-4 86 -3 87 75 84 l68 -3 3 -72z m597 2 l0 -70 -72 -3 -72 -3 -3 -72 -3 -72 -70 0 -70 0 -3 73 -3 72 76 0 75 0 0 68 c0 38 3 72 7 76 4 4 37 6 73 4 l65 -3 0 -70z m471 66 c-9 -13 29 -42 47 -35 19 7 46 -41 39 -70 -3 -13 0 -16 10 -10 10 6 10 4 -1 -10 -11 -12 -26 -16 -60 -14 l-46 3 -3 59 c-3 57 1 86 13 86 4 0 4 -4 1 -9z m-321 -216 l0 -70 -70 0 -70 0 -3 73 -3 73 73 -3 73 -3 0 -70z m546 -68 c-5 -5 -23 -7 -42 -5 -30 3 -34 7 -41 42 -12 59 8 63 54 13 20 -23 34 -45 29 -50z"/>
 <path d="M1090 935 c-8 -9 -8 -15 -2 -15 12 0 26 19 19 26 -2 2 -10 -2 -17 -11z"/>
 <path d="M1323 883 c4 -3 10 -3 14 0 3 4 0 7 -7 7 -7 0 -10 -3 -7 -7z"/>
 <path d="M600 675 l0 -75 -75 0 -75 0 0 -75 0 -75 75 0 75 0 0 75 0 75 75 0 75 0 0 75 0 75 -75 0 -75 0 0 -75z"/>
 <path d="M1360 410 c0 -7 3 -10 7 -7 3 4 3 10 0 14 -4 3 -7 0 -7 -7z"/>
 <path d="M1531 203 c-1 -17 5 -23 20 -23 11 0 17 5 14 10 -4 6 -10 8 -15 5 -5 -3 -11 3 -13 12 -4 14 -5 13 -6 -4z"/>
 <path d="M255 1320 c10 -11 20 -20 23 -20 3 0 -3 9 -13 20 -10 11 -20 20 -23 20 -3 0 3 -9 13 -20z"/>
 <path d="M7632 1228 c-23 -18 -42 -37 -42 -43 0 -6 3 -5 8 1 4 7 17 14 30 15 12 2 21 7 20 10 -2 4 6 16 16 28 27 30 16 26 -32 -11z"/>
 <path d="M2709 813 c-1 -93 -3 -187 -4 -211 -2 -24 0 -41 3 -37 4 4 7 12 7 18 0 8 24 13 68 15 l67 3 0 -76 0 -76 -71 3 -71 3 -4 39 c-5 55 -10 54 -24 -5 -22 -91 -109 -229 -191 -303 -96 -87 -185 -134 -295 -157 -54 -11 -101 -22 -103 -25 -2 -2 32 -4 77 -4 49 0 82 4 82 10 0 9 30 25 53 29 4 0 23 8 43 16 43 18 47 18 39 5 -3 -5 -1 -10 4 -10 6 0 11 -11 11 -25 0 -24 2 -25 75 -25 l74 0 3 73 3 72 73 3 72 3 0 -76 0 -75 75 0 75 0 0 75 0 75 75 0 75 0 0 -75 0 -75 75 0 75 0 0 75 0 75 75 0 75 0 0 -75 0 -75 75 0 75 0 0 75 0 75 75 0 75 0 0 -75 0 -75 95 0 c57 0 95 4 95 10 0 6 9 10 20 10 42 0 16 26 -63 64 -114 55 -235 176 -290 291 -21 44 -43 88 -48 98 -12 23 -29 162 -29 244 0 62 -13 91 -23 52 -4 -15 -12 -20 -29 -17 -21 3 -23 8 -26 76 -2 58 0 72 12 72 29 0 46 -13 46 -34 0 -17 2 -18 10 -6 5 8 10 39 10 68 l0 52 -335 0 -335 0 -1 -167z m271 135 c0 -19 2 -20 10 -8 8 12 10 9 10 -12 l0 -28 -75 0 -74 0 -3 -72 -3 -73 -62 -3 -63 -3 0 76 0 75 65 0 65 0 0 29 c0 35 8 39 78 40 47 1 52 -1 52 -21z m304 16 c10 -4 16 -18 16 -36 l0 -29 -72 3 c-64 3 -73 5 -75 23 l-3 20 9 -20 c10 -20 10 -20 10 1 1 11 6 25 13 32 13 13 75 16 102 6z m-134 -139 l0 -75 75 0 76 0 -3 -72 -3 -73 -72 -3 -73 -3 0 -74 0 -75 -75 0 -74 0 -3 -72 -3 -73 -72 -3 -73 -3 0 76 0 75 75 0 75 0 0 75 0 75 -75 0 -75 0 0 75 0 75 75 0 75 0 0 68 c0 38 3 72 7 75 3 4 37 7 75 7 l68 0 0 -75z m185 -235 c-20 -8 -20 -9 1 -9 32 -1 67 -84 39 -95 -8 -3 -15 -12 -15 -21 0 -10 -10 -15 -30 -15 l-30 0 0 75 0 75 28 -1 c24 0 25 -1 7 -9z m-638 -147 c-4 -3 -10 -3 -14 0 -3 4 0 7 7 7 7 0 10 -3 7 -7z m598 -68 l0 -70 -72 -3 -72 -3 -3 -72 -3 -72 -70 0 -70 0 -3 73 -3 72 76 0 75 0 0 68 c0 38 3 72 7 76 4 4 37 6 73 4 l65 -3 0 -70z m-599 28 c-4 -4 -12 -1 -19 7 -9 10 -9 11 1 6 7 -4 12 -2 13 6 0 11 2 11 6 0 3 -7 2 -16 -1 -19z m77 -105 l72 -3 0 -70 0 -70 -70 0 -70 0 -3 73 c-3 64 -5 72 -22 72 -11 0 -20 5 -20 10 0 6 4 10 9 10 5 0 13 17 17 38 l9 37 3 -47 3 -47 72 -3z m672 -73 l0 -70 -70 0 -70 0 -3 73 -3 73 73 -3 73 -3 0 -70z m-898 -62 c-4 -3 -7 0 -7 7 0 7 3 10 7 7 3 -4 3 -10 0 -14z"/>
 <path d="M3000 675 l0 -75 75 0 75 0 0 75 0 75 -75 0 -75 0 0 -75z"/>
 <path d="M4698 915 c-3 -35 -3 -115 1 -177 5 -100 7 -106 11 -53 l5 60 43 3 42 3 0 -75 0 -76 -44 0 c-25 0 -46 5 -48 12 -2 6 -12 -17 -22 -53 -10 -35 -27 -90 -37 -121 -21 -63 -107 -197 -154 -240 -52 -48 -129 -104 -165 -121 -48 -21 -167 -57 -194 -57 -11 0 -28 -5 -36 -10 -10 -7 28 -10 118 -10 l132 0 0 38 c0 30 5 39 26 49 13 6 36 10 49 7 14 -2 25 0 25 6 0 5 6 10 14 10 21 0 31 21 15 31 -11 7 -10 9 4 9 15 0 17 -10 17 -75 l0 -75 75 0 75 0 0 75 0 75 75 0 75 0 0 -75 0 -75 75 0 75 0 0 75 0 75 75 0 75 0 0 -75 0 -75 75 0 75 0 0 75 0 75 75 0 75 0 0 -75 0 -75 75 0 75 0 0 75 c0 41 4 75 9 75 4 0 17 -11 27 -25 21 -28 34 -32 34 -10 0 8 4 15 9 15 5 0 8 -7 7 -16 0 -10 8 -18 23 -21 14 -2 26 -5 28 -7 4 -4 11 -46 12 -73 1 -10 31 -13 116 -13 63 0 115 4 115 8 0 5 -23 14 -50 20 -28 7 -89 28 -135 49 -68 29 -100 51 -158 107 -110 106 -170 216 -207 381 -10 44 -19 70 -19 58 -1 -21 -6 -23 -56 -23 l-55 0 0 75 0 75 50 0 c48 0 50 -1 50 -27 0 -22 2 -25 10 -13 5 8 10 58 10 110 0 52 -5 102 -10 110 -9 13 -10 13 -11 0 -1 -8 -1 -18 0 -22 0 -5 -21 -8 -49 -8 -49 0 -50 1 -50 30 0 34 25 45 84 38 19 -2 32 0 30 4 -3 4 -153 8 -333 8 l-328 0 -5 -65z m102 20 l0 -35 75 0 75 0 0 -75 0 -75 -75 0 -75 0 0 75 0 75 -45 0 c-45 0 -45 0 -45 35 0 35 0 35 45 35 45 0 45 0 45 -35z m249 13 c5 -15 4 -26 -3 -30 -6 -4 1 -8 16 -8 14 0 29 6 31 13 3 7 6 5 6 -6 1 -16 -7 -18 -71 -15 -70 3 -73 4 -74 28 -1 37 3 40 47 40 32 0 41 -4 48 -22z m199 -120 l-3 -73 -70 0 -70 0 -3 59 c-4 85 -4 86 78 86 l71 0 -3 -72z m-148 -153 l0 -75 -75 0 -75 0 0 -75 0 -75 -75 0 -75 0 0 -75 0 -75 75 0 75 0 0 -75 0 -75 -75 0 -75 0 0 75 0 75 -76 0 -77 0 5 64 c3 35 9 69 12 75 4 6 35 11 72 11 l64 0 0 75 0 75 75 0 75 0 0 68 c0 38 3 72 7 75 3 4 37 7 75 7 l68 0 0 -75z m150 -150 l0 -75 55 0 c46 0 55 -3 55 -18 0 -9 9 -23 20 -30 15 -9 19 -21 17 -55 l-2 -42 -72 -3 -73 -3 0 75 0 75 -72 3 -73 3 -3 59 c-4 85 -4 86 78 86 l70 0 0 -75z m-152 -152 l3 -72 72 -3 72 -3 0 -70 0 -70 -70 0 -70 0 -3 72 -3 72 -72 3 -72 3 -3 59 c-4 86 -3 87 75 84 l68 -3 3 -72z m-453 -148 l0 -70 -69 0 c-41 0 -71 4 -73 11 -2 6 3 11 11 11 8 0 12 -5 9 -11 -4 -6 1 -5 10 3 19 15 13 33 -8 24 -28 -10 -15 6 29 37 25 16 48 39 51 51 4 12 14 19 23 17 14 -3 17 -16 17 -73z m775 67 c0 -21 37 -49 63 -48 28 2 54 -24 40 -38 -3 -3 2 -16 13 -28 10 -12 13 -18 7 -14 -7 4 -13 2 -13 -4 0 -7 -22 -10 -62 -8 l-63 3 -3 73 c-2 45 1 72 8 72 5 0 10 -4 10 -8z m67 -39 c-4 -3 -7 0 -7 7 0 7 3 10 7 7 3 -4 3 -10 0 -14z"/>
 <path d="M4673 420 c1 -11 2 -20 4 -20 1 0 7 9 13 20 8 16 8 20 -4 20 -9 0 -14 -8 -13 -20z"/>
 <path d="M7085 930 c-3 -5 -2 -10 4 -10 5 0 13 5 16 10 3 6 2 10 -4 10 -5 0 -13 -4 -16 -10z"/>
 <path d="M3773 913 c4 -3 10 -3 14 0 3 4 0 7 -7 7 -7 0 -10 -3 -7 -7z"/>
 <path d="M6690 790 c0 -7 3 -10 7 -7 3 4 3 10 0 14 -4 3 -7 0 -7 -7z"/>
 <path d="M3750 710 c0 -7 3 -10 7 -7 3 4 3 10 0 14 -4 3 -7 0 -7 -7z"/>
 <path d="M6700 574 c0 -8 5 -12 10 -9 6 3 10 10 10 16 0 5 -4 9 -10 9 -5 0 -10 -7 -10 -16z"/>
 <path d="M1800 555 c0 -16 34 -68 37 -58 3 7 -3 20 -11 29 -9 8 -14 20 -11 25 4 5 1 9 -4 9 -6 0 -11 -2 -11 -5z"/>
 <path d="M6670 521 c0 -5 7 -22 15 -37 9 -18 15 -23 15 -12 0 9 -4 20 -10 23 -5 3 -10 11 -10 16 0 6 5 7 12 3 7 -4 8 -3 4 4 -8 14 -26 16 -26 3z"/>
 <path d="M5933 403 c4 -3 10 -3 14 0 3 4 0 7 -7 7 -7 0 -10 -3 -7 -7z"/>
 <path d="M2028 393 c7 -3 16 -2 19 1 4 3 -2 6 -13 5 -11 0 -14 -3 -6 -6z"/>
 <path d="M4083 393 c4 -3 10 -3 14 0 3 4 0 7 -7 7 -7 0 -10 -3 -7 -7z"/>
 <path d="M3843 23 c4 -3 10 -3 14 0 3 4 0 7 -7 7 -7 0 -10 -3 -7 -7z"/>
 <path d="M2293 13 c4 -3 10 -3 14 0 3 4 0 7 -7 7 -7 0 -10 -3 -7 -7z"/>
 <path d="M3885 10 c19 -8 173 -14 164 -6 -2 2 -44 6 -94 9 -56 4 -83 3 -70 -3z"/>
 </g>

</svg>