<!DOCTYPE svg PUBLIC "-//W3C//DTD SVG 20010904//EN" "http://www.w3.org/TR/2001/REC-SVG-20010904/DTD/svg10.dtd">
<svg version="1.0" xmlns="http://www.w3.org/2000/svg" width="800px" height="800px" viewBox="0 0 8000 8000" preserveAspectRatio="xMidYMid meet">
<g id="layer101" fill="#5170ff" stroke="none">
 <path d="M3763 7180 c-685 -50 -1273 -289 -1788 -726 -122 -103 -347 -328 -420 -419 -22 -27 -48 -58 -57 -69 -9 -10 -53 -69 -96 -130 -301 -420 -477 -871 -549 -1411 -27 -202 -24 -648 6 -860 35 -251 77 -427 158 -659 37 -108 190 -428 244 -511 183 -284 285 -411 499 -626 307 -308 603 -515 966 -676 281 -124 538 -194 879 -239 181 -24 619 -24 795 0 303 41 501 88 738 177 713 266 1374 864 1721 1558 130 258 234 575 280 851 42 256 54 678 26 940 -89 842 -502 1576 -1200 2135 -376 302 -823 513 -1277 605 -267 54 -661 80 -925 60z m1746 -1621 c20 -11 48 -36 61 -56 l25 -36 3 -346 c2 -225 -1 -359 -7 -382 -12 -41 -78 -106 -113 -113 -13 -2 -93 -9 -179 -15 -189 -14 -340 -41 -477 -87 -54 -18 -114 -18 -155 0 -18 8 -122 104 -232 215 -110 111 -206 201 -213 201 -47 0 -344 -194 -507 -331 -72 -61 -280 -268 -330 -329 -34 -42 -139 -183 -160 -215 -62 -95 -155 -261 -155 -276 0 -8 88 -102 196 -209 107 -107 204 -212 216 -234 23 -46 21 -96 -9 -201 -20 -68 -44 -177 -58 -260 -4 -22 -12 -112 -19 -201 -13 -176 -21 -198 -89 -246 -32 -23 -35 -23 -387 -26 l-355 -3 -45 24 c-35 18 -51 36 -74 79 l-28 56 11 173 c37 563 193 1042 489 1494 33 50 156 218 174 236 7 8 31 37 53 64 50 63 240 255 320 323 124 106 327 250 458 326 428 246 941 391 1401 395 132 1 152 -1 185 -20z"/>
 </g>

</svg>