<?xml version="1.0" standalone="no"?>
<!DOCTYPE svg PUBLIC "-//W3C//DTD SVG 20010904//EN"
 "http://www.w3.org/TR/2001/REC-SVG-20010904/DTD/svg10.dtd">
<svg version="1.0" xmlns="http://www.w3.org/2000/svg"
 width="798.576958pt" height="749.188824pt" viewBox="0 0 798.576958 749.188824"
 preserveAspectRatio="xMidYMid meet">
<metadata>
Created by potrace 1.12, written by Peter Selinger 2001-2015
</metadata>
<g transform="translate(-21.269520,787.621773) scale(0.100000,-0.100000)"
fill="#000000" stroke="none">
<path d="M5715 7869 c-246 -27 -522 -106 -742 -213 -246 -120 -424 -247 -618
-441 -234 -234 -393 -477 -511 -783 -177 -457 -199 -955 -65 -1433 196 -696
733 -1264 1420 -1503 267 -93 443 -121 751 -120 242 0 306 7 512 54 71 17 96
18 135 10 26 -6 178 -74 338 -153 257 -126 296 -142 341 -142 61 0 112 31 144
87 19 34 23 72 40 346 22 347 25 373 45 413 9 16 56 75 106 131 263 298 424
596 519 964 212 819 -79 1722 -730 2266 -310 259 -685 430 -1095 499 -141 23
-451 33 -590 18z m1688 -1139 c22 -15 48 -46 62 -74 l25 -50 0 -966 0 -967
-23 -44 c-13 -24 -43 -57 -66 -74 l-43 -30 -1386 -3 c-1549 -3 -1437 -8 -1506
68 -19 21 -38 54 -41 72 -3 18 -4 472 -3 1010 l3 976 30 38 c17 20 46 45 65
56 34 18 85 18 1441 16 l1405 -3 37 -25z"/>
<path d="M5280 6376 c0 -4 204 -145 574 -398 60 -41 104 -64 110 -59 6 4 154
106 329 225 174 120 320 222 323 227 3 5 -268 9 -665 9 -369 0 -671 -2 -671
-4z"/>
<path d="M4790 5586 l0 -666 1155 0 1155 0 0 660 c0 363 -3 660 -6 660 -5 0
-799 -557 -965 -677 -26 -18 -63 -40 -83 -48 -39 -17 -132 -20 -168 -6 -13 5
-256 171 -541 370 -285 199 -525 365 -533 368 -12 4 -14 -88 -14 -661z"/>
<path d="M1560 7261 c-218 -58 -634 -314 -929 -570 -147 -128 -278 -322 -344
-508 -153 -429 -66 -1133 234 -1875 170 -421 438 -946 712 -1393 313 -512 872
-1211 1306 -1634 657 -640 1296 -956 1796 -887 248 33 441 123 771 357 278
197 396 324 439 473 22 74 14 145 -23 208 -15 26 -233 294 -485 597 -338 405
-472 559 -510 585 -121 83 -248 94 -381 33 -28 -13 -98 -63 -156 -111 -151
-126 -366 -285 -414 -307 -27 -12 -64 -19 -107 -19 -96 0 -183 46 -292 153
-93 93 -112 121 -481 712 -144 231 -325 515 -402 630 -284 424 -418 639 -473
755 -64 136 -93 249 -94 360 -1 85 2 101 26 147 18 35 47 68 84 97 56 45 85
60 416 220 155 76 186 95 242 150 81 79 114 148 122 250 5 58 1 88 -16 142
-11 38 -162 348 -334 689 -285 565 -318 625 -369 677 -42 43 -67 60 -108 72
-68 20 -147 19 -230 -3z"/>
</g>
</svg>
