<?xml version="1.0" encoding="utf-8"?>
<!-- Generator: Adobe Illustrator 16.0.0, SVG Export Plug-In . SVG Version: 6.00 Build 0)  -->
<!DOCTYPE svg PUBLIC "-//W3C//DTD SVG 1.1//EN" "http://www.w3.org/Graphics/SVG/1.1/DTD/svg11.dtd">
<svg version="1.1" id="Layer_1" xmlns="http://www.w3.org/2000/svg" xmlns:xlink="http://www.w3.org/1999/xlink" x="0px" y="0px"
	 width="100px" height="100px" viewBox="0 0 100 100" enable-background="new 0 0 100 100" xml:space="preserve">
<g>
	<polygon fill="none" points="62.324,71.285 58.93,71.285 58.93,75.268 54.947,75.268 54.947,78.662 58.93,78.662 58.93,82.644 
		62.324,82.644 62.324,78.662 66.307,78.662 66.307,75.268 62.324,75.268 	"/>
	<path d="M67.996,45.901c3.368,3.407,5.775,7.765,6.784,12.637c3.049,0.253,5.447,2.808,5.447,5.924c0,3.286-2.663,5.95-5.948,5.95
		c-3.288,0-5.951-2.664-5.951-5.95c0-2.774,1.9-5.098,4.471-5.756c-1.33-6.211-5.081-11.62-10.206-15.042
		c-0.05-0.017-0.1-0.035-0.149-0.051L49.62,66.337L37.463,43.643c-0.943,0.31-1.872,0.655-2.782,1.032
		c-4.965,4.005-7.759,10.267-7.99,17.968c5.042,0.44,9.042,6.674,9.042,14.322l-1.864,1.585c0.158,0.243,0.251,0.531,0.251,0.845
		c0,0.858-0.696,1.553-1.554,1.553c-0.857,0-1.553-0.694-1.553-1.553c0-0.857,0.696-1.554,1.553-1.554
		c0.3,0,0.578,0.089,0.815,0.237l1.602-1.113c0-7.313-3.967-13.244-8.859-13.244s-8.859,5.931-8.859,13.244l1.466,1.019
		c0.196-0.089,0.413-0.143,0.642-0.143c0.858,0,1.554,0.693,1.554,1.552s-0.696,1.552-1.554,1.552s-1.553-0.693-1.553-1.552
		c0-0.384,0.144-0.73,0.375-1.001l-1.679-1.428c0-7.22,3.565-13.177,8.205-14.196c0.234-6.572,2.17-12.504,6.491-16.873
		c-12.005,6.032-19.77,17.901-21.153,31.888C18.003,90.061,32.914,95,50,95c17.085,0,31.998-4.939,39.942-17.218
		C88.561,63.797,79.996,51.932,67.996,45.901z M66.307,78.662h-3.982v3.981H58.93v-3.981h-3.982v-3.395h3.982v-3.982h3.395v3.982
		h3.982V78.662z"/>
	<path d="M74.279,68.373c2.159,0,3.909-1.75,3.909-3.911c0-1.87-1.314-3.428-3.071-3.813c-0.271-0.06-0.551-0.095-0.838-0.095
		c-0.399,0-0.777,0.077-1.14,0.188c-1.6,0.49-2.771,1.96-2.771,3.72C70.369,66.621,72.12,68.373,74.279,68.373z"/>
	<path d="M39.646,40.598c0.38,0.241,0.765,0.475,1.161,0.689c2.733,1.483,5.865,2.326,9.194,2.326c3.116,0,6.06-0.744,8.668-2.056
		c0.58-0.292,1.143-0.612,1.686-0.959c5.379-3.427,8.952-9.44,8.952-16.292C69.306,13.644,60.663,5,50,5
		s-19.307,8.644-19.307,19.306C30.693,31.158,34.266,37.17,39.646,40.598z"/>
</g>
</svg>
