<?xml version="1.0" encoding="utf-8"?>
<!-- Generator: Adobe Illustrator 16.0.0, SVG Export Plug-In . SVG Version: 6.00 Build 0)  -->
<!DOCTYPE svg PUBLIC "-//W3C//DTD SVG 1.1//EN" "http://www.w3.org/Graphics/SVG/1.1/DTD/svg11.dtd">
<svg version="1.1" id="Layer_1" xmlns="http://www.w3.org/2000/svg" xmlns:xlink="http://www.w3.org/1999/xlink" x="0px" y="0px"
	 width="100px" height="100px" viewBox="0 0 100 100" enable-background="new 0 0 100 100" xml:space="preserve">
<path d="M82.967,4.902H21.632c-2.209,0-4,1.791-4,4v80.667c0,2.209,1.791,4,4,4h61.334c2.209,0,4-1.791,4-4V8.902
	C86.967,6.693,85.176,4.902,82.967,4.902z M26.605,16.115h34.006v5.177H26.605V16.115z M77.993,82.355H26.605v-5.179h51.388V82.355z
	 M77.993,72.18H26.605v-5.178h51.388V72.18z M77.993,62.002H26.605v-5.178h51.388V62.002z M77.993,51.824H26.605v-5.177h51.388
	V51.824z M77.993,41.647H26.605V36.47h51.388V41.647z M77.993,31.47H26.605v-5.177h51.388V31.47z"/>
</svg>
