<!DOCTYPE svg PUBLIC "-//W3C//DTD SVG 20010904//EN" "http://www.w3.org/TR/2001/REC-SVG-20010904/DTD/svg10.dtd">
<svg version="1.0" xmlns="http://www.w3.org/2000/svg" width="580px" height="580px" viewBox="0 0 5800 5800" preserveAspectRatio="xMidYMid meet">
<g id="layer101" fill="#3c5a99" stroke="none">
 <path d="M246 5785 c-106 -29 -185 -103 -225 -210 l-21 -56 0 -2617 0 -2618 22 -65 c30 -90 107 -167 197 -197 l65 -22 2618 0 2617 0 56 21 c73 27 133 74 168 130 61 99 57 -84 57 2750 0 2330 -2 2601 -16 2650 -32 112 -114 196 -225 230 -59 18 -132 19 -2662 18 -2137 -1 -2611 -3 -2651 -14z"/>
 </g>
<g id="layer102" fill="#ffffff" stroke="none">
 <path d="M3100 4675 l0 -1125 -380 0 -380 0 0 -435 0 -435 380 0 380 0 0 -399 c0 -351 2 -413 20 -513 43 -254 143 -454 300 -602 143 -134 301 -214 522 -263 71 -15 128 -18 383 -17 269 0 542 15 566 30 5 3 9 173 9 388 l0 383 -297 6 c-214 4 -312 9 -348 20 -142 40 -218 122 -244 262 -7 34 -11 191 -11 382 l0 323 430 0 c397 0 430 1 430 17 0 21 -99 800 -106 831 l-4 22 -375 0 -375 0 0 1125 0 1125 -450 0 -450 0 0 -1125z"/>
 </g>

</svg>