<!DOCTYPE svg PUBLIC "-//W3C//DTD SVG 20010904//EN" "http://www.w3.org/TR/2001/REC-SVG-20010904/DTD/svg10.dtd">
<svg version="1.0" xmlns="http://www.w3.org/2000/svg" width="465px" height="463px" viewBox="0 0 4650 4630" preserveAspectRatio="xMidYMid meet">
<g id="layer101" fill="#6fb9ec" stroke="none">
 <path d="M283 4616 c-103 -33 -204 -122 -251 -224 l-27 -57 0 -2020 0 -2020 27 -58 c38 -80 117 -160 197 -200 l66 -32 2030 0 2030 0 66 32 c80 40 159 120 197 200 l27 58 0 2020 0 2020 -32 66 c-40 80 -120 159 -200 197 l-58 27 -2015 2 c-1647 1 -2023 -1 -2057 -11z"/>
 </g>
<g id="layer102" fill="#ffffff" stroke="none">
 <path d="M1417 3800 c-207 -22 -465 -90 -652 -172 -90 -40 -285 -145 -285 -154 0 -2 46 -2 103 2 246 16 556 -53 777 -173 82 -45 220 -135 220 -144 0 -3 -29 -9 -65 -13 -254 -26 -495 -204 -601 -442 -34 -76 -32 -84 14 -73 20 5 60 9 89 9 58 0 206 -20 199 -27 -2 -3 -24 -9 -47 -14 -67 -15 -198 -84 -266 -139 -164 -133 -283 -365 -283 -554 l0 -45 54 24 c90 40 276 84 276 65 0 -3 -21 -22 -46 -41 -107 -79 -216 -248 -255 -396 -27 -99 -29 -268 -6 -365 17 -67 75 -208 86 -208 3 0 20 19 36 41 49 67 233 239 346 324 256 192 543 321 859 385 105 21 307 46 314 39 3 -2 0 -40 -6 -84 -30 -213 58 -462 221 -626 280 -279 747 -292 1036 -28 l54 50 93 -25 c116 -32 178 -56 292 -112 50 -24 91 -42 93 -40 7 7 -79 167 -119 221 -44 60 -131 141 -175 164 -111 58 216 -15 381 -84 13 -6 8 6 -17 41 -83 114 -198 233 -312 320 l-35 26 0 132 c0 320 -89 662 -255 982 -117 226 -236 386 -421 565 -313 301 -689 485 -1139 554 -122 19 -437 27 -558 15z"/>
 </g>

</svg>