<!DOCTYPE svg PUBLIC "-//W3C//DTD SVG 20010904//EN" "http://www.w3.org/TR/2001/REC-SVG-20010904/DTD/svg10.dtd">
<svg version="1.0" xmlns="http://www.w3.org/2000/svg" width="1200px" height="1200px" viewBox="0 0 12000 12000" preserveAspectRatio="xMidYMid meet">
<g id="layer101" fill="#9a0000" stroke="none">
 <path d="M465 11972 c-114 -39 -190 -85 -271 -166 -77 -78 -121 -147 -162 -258 l-27 -73 0 -5475 0 -5475 27 -73 c41 -110 85 -180 163 -257 77 -78 147 -122 257 -163 l73 -27 5475 0 5475 0 73 27 c111 41 180 85 258 162 75 76 130 162 166 267 l23 64 0 5470 c0 5364 0 5471 -19 5530 -38 119 -84 194 -170 281 -90 89 -156 129 -285 170 l-76 24 -5450 -1 -5450 0 -80 -27z"/>
 </g>
<g id="layer102" fill="#ffffff" stroke="none">
 <path d="M3105 9033 c-131 -13 -453 -67 -525 -89 -249 -75 -466 -226 -586 -406 -133 -200 -235 -525 -274 -878 -63 -567 -75 -833 -75 -1640 0 -804 14 -1107 76 -1654 51 -442 189 -806 379 -996 243 -243 516 -342 1005 -365 66 -3 239 -12 385 -20 704 -39 1457 -55 2555 -55 1087 0 1818 16 2550 55 149 8 322 17 385 20 485 24 757 122 996 361 149 150 248 354 328 676 46 186 99 646 112 963 2 55 8 212 14 349 13 321 13 1015 0 1332 -6 137 -12 292 -14 344 -5 125 -23 341 -42 509 -8 75 -19 175 -24 222 -18 169 -98 448 -175 614 -58 126 -106 198 -189 283 -171 177 -369 283 -619 331 -266 52 -231 51 -3337 49 -1587 -1 -2903 -3 -2925 -5z m2470 -2108 c140 -73 321 -167 525 -273 80 -41 195 -101 255 -132 61 -31 200 -104 310 -161 110 -56 301 -156 425 -221 124 -66 262 -138 308 -161 45 -23 82 -44 82 -47 0 -3 -33 -22 -73 -43 -378 -198 -494 -259 -507 -267 -8 -6 -98 -53 -200 -106 -366 -190 -496 -258 -760 -397 -58 -30 -211 -109 -340 -174 -129 -66 -283 -145 -342 -176 -58 -32 -109 -57 -112 -57 -3 0 -6 549 -6 1220 l0 1220 158 -81 c86 -45 211 -110 277 -144z"/>
 </g>

</svg>