<!DOCTYPE svg PUBLIC "-//W3C//DTD SVG 20010904//EN" "http://www.w3.org/TR/2001/REC-SVG-20010904/DTD/svg10.dtd">
<svg version="1.0" xmlns="http://www.w3.org/2000/svg" width="225px" height="215px" viewBox="0 0 2250 2150" preserveAspectRatio="xMidYMid meet">
<g id="layer101" fill="#000000" stroke="none">
 <path d="M1050 2144 c-186 -28 -332 -82 -466 -171 -30 -20 -56 -44 -59 -54 -5 -14 20 -63 81 -162 100 -162 111 -177 134 -177 10 0 55 20 101 44 107 57 183 76 301 76 181 0 317 -56 444 -184 128 -129 184 -264 184 -441 0 -177 -56 -312 -184 -441 -129 -130 -259 -184 -441 -184 -124 0 -194 17 -304 76 -46 24 -91 44 -101 44 -23 0 -35 -15 -134 -177 -62 -99 -86 -148 -82 -161 18 -56 258 -172 441 -213 85 -19 341 -17 430 3 191 43 365 134 502 263 107 99 168 180 231 303 135 263 157 536 67 821 -99 310 -355 571 -669 680 -141 50 -350 74 -476 55z"/>
 <path d="M136 1294 c-75 -113 -136 -211 -136 -219 0 -8 61 -106 136 -219 l137 -206 196 0 c257 0 260 3 161 150 -33 49 -60 92 -60 95 0 3 167 5 370 5 412 0 414 0 468 66 55 67 55 157 -1 221 -55 63 -57 63 -467 63 -203 0 -370 2 -370 5 0 3 27 46 60 95 99 147 96 150 -161 150 l-196 0 -137 -206z"/>
 </g>

</svg>