<!DOCTYPE svg PUBLIC "-//W3C//DTD SVG 20010904//EN" "http://www.w3.org/TR/2001/REC-SVG-20010904/DTD/svg10.dtd">
<svg version="1.0" xmlns="http://www.w3.org/2000/svg" width="134px" height="180px" viewBox="0 0 1340 1800" preserveAspectRatio="xMidYMid meet">
<g id="layer101" fill="#2a374c" stroke="none">
 <path d="M425 1790 c-130 -26 -225 -92 -272 -188 -24 -50 -28 -69 -28 -147 0 -152 47 -246 205 -409 l90 -93 0 -91 0 -92 -210 0 -210 0 0 -210 0 -210 210 0 210 0 0 -170 c0 -105 4 -170 10 -170 16 0 96 109 129 177 51 103 65 173 65 308 0 169 -40 298 -139 445 -20 29 -34 55 -31 57 8 9 151 -143 190 -201 69 -104 87 -176 96 -376 5 -96 16 -207 24 -245 18 -75 71 -180 86 -170 6 4 10 78 10 176 l0 169 200 0 200 0 0 210 0 210 -200 0 -200 0 -2 238 -3 237 -215 0 -215 0 -5 -79 -5 -79 -53 42 c-63 50 -104 104 -144 189 -27 57 -30 70 -26 145 6 133 51 202 168 255 107 50 259 39 407 -28 90 -41 221 -118 231 -136 5 -8 28 -29 53 -47 39 -29 44 -36 41 -67 -4 -50 32 -101 85 -119 35 -13 46 -13 79 0 86 33 110 138 47 201 -37 37 -97 47 -143 25 -30 -16 -33 -15 -72 13 -23 17 -48 30 -56 30 -8 0 -51 23 -94 51 -204 131 -367 178 -513 149z"/>
 </g>
<g id="layer102" fill="#3c7c85" stroke="none">
 <path d="M425 1790 c-177 -36 -300 -157 -297 -293 3 -145 50 -234 202 -387 63 -63 118 -114 122 -112 14 4 152 -142 192 -202 69 -104 87 -176 96 -376 5 -96 16 -207 24 -245 18 -75 71 -180 86 -170 6 4 10 78 10 176 l0 169 200 0 200 0 0 210 0 210 -200 0 -200 0 -2 238 -3 237 -215 0 -215 0 -5 -79 -5 -79 -53 42 c-63 50 -104 104 -144 189 -27 57 -30 70 -26 145 6 133 51 202 168 255 107 50 259 39 407 -28 90 -41 221 -118 231 -136 5 -8 28 -29 53 -47 39 -29 44 -36 41 -67 -4 -50 32 -101 85 -119 35 -13 46 -13 79 0 86 33 110 138 47 201 -37 37 -97 47 -143 25 -30 -16 -33 -15 -72 13 -23 17 -48 30 -56 30 -8 0 -51 23 -94 51 -204 131 -367 178 -513 149z"/>
 <path d="M335 1040 c44 -44 82 -80 85 -80 2 0 -31 36 -75 80 -44 44 -82 80 -85 80 -2 0 31 -36 75 -80z"/>
 <path d="M424 860 c0 -52 1 -74 3 -47 2 26 2 68 0 95 -2 26 -3 4 -3 -48z"/>
 <path d="M424 185 c0 -94 2 -133 3 -88 2 45 2 122 0 170 -1 48 -3 12 -3 -82z"/>
 </g>
<g id="layer103" fill="#0ccdc3" stroke="none">
 <path d="M425 1790 c-160 -32 -272 -129 -290 -250 -9 -64 9 -162 45 -238 24 -50 56 -92 150 -187 66 -67 122 -120 124 -118 8 9 152 -143 190 -201 69 -104 87 -176 96 -376 5 -96 16 -207 24 -245 18 -75 71 -180 86 -170 6 4 10 78 10 176 l0 169 200 0 200 0 0 210 0 210 -200 0 -200 0 -2 238 -3 237 -215 0 -215 0 -5 -79 -5 -79 -53 42 c-63 50 -104 104 -144 189 -27 57 -30 70 -26 145 6 133 51 202 168 255 107 50 259 39 407 -28 90 -41 221 -118 231 -136 5 -8 28 -29 53 -47 39 -29 44 -36 41 -67 -4 -50 32 -101 85 -119 35 -13 46 -13 79 0 86 33 110 138 47 201 -37 37 -97 47 -143 25 -30 -16 -33 -15 -72 13 -23 17 -48 30 -56 30 -8 0 -51 23 -94 51 -204 131 -367 178 -513 149z"/>
 </g>
<g id="layer104" fill="#f1fbfb" stroke="none">
 <path d="M1177 1499 c-28 -16 -40 -58 -27 -90 24 -57 103 -58 129 -2 16 36 14 51 -14 78 -25 26 -58 31 -88 14z"/>
 </g>

</svg>