<!DOCTYPE svg PUBLIC "-//W3C//DTD SVG 20010904//EN" "http://www.w3.org/TR/2001/REC-SVG-20010904/DTD/svg10.dtd">
<svg version="1.0" xmlns="http://www.w3.org/2000/svg" width="328px" height="323px" viewBox="0 0 3280 3230" preserveAspectRatio="xMidYMid meet">
<g id="layer101" fill="#ea222d" stroke="none">
<path d="M1401 1588 c-61 -41 -76 -71 -80 -159 l-3 -79 -73 0 c-79 0 -118 -18 -159 -73 -29 -40 -29 -134 0 -174 41 -55 80 -73 159 -73 l73 0 3 -79 c4 -85 18 -114 73 -155 41 -31 139 -29 185 3 45 33 71 92 71 167 l0 62 78 3 c61 3 84 9 110 27 91 66 88 205 -8 269 -27 19 -47 23 -106 23 l-74 0 0 63 c-1 120 -56 188 -159 195 -46 3 -62 0 -90 -20z"/>
</g>
<g id="layer102" fill="#189ad8" stroke="none">
<path d="M1118 3219 c-110 -16 -216 -87 -274 -185 -14 -23 -31 -74 -40 -114 -38 -185 73 -382 268 -473 37 -17 68 -37 68 -43 0 -6 -42 -39 -92 -75 -365 -251 -652 -525 -816 -779 -119 -183 -190 -361 -218 -542 -39 -260 47 -526 235 -722 316 -328 793 -371 1161 -103 35 26 69 47 76 47 6 0 34 -18 60 -40 55 -46 154 -99 234 -128 379 -136 781 -9 1021 323 164 226 203 523 108 810 -106 319 -332 615 -699 916 -247 202 -613 436 -710 454 -30 5 -52 -2 -137 -44 -55 -28 -104 -51 -108 -51 -4 0 -58 25 -120 55 -87 42 -124 67 -154 101 -52 60 -81 137 -81 218 0 112 43 193 128 243 44 26 55 28 157 28 129 0 143 -4 330 -95 414 -201 668 -267 982 -257 176 5 266 24 407 83 89 37 109 40 146 19 81 -46 205 25 224 130 9 48 -21 114 -70 151 -31 24 -47 29 -94 29 -47 0 -63 -5 -93 -28 -47 -35 -70 -80 -70 -134 l0 -42 -66 -29 c-133 -59 -227 -76 -426 -76 -148 0 -199 4 -290 22 -195 40 -390 110 -605 218 -169 84 -224 102 -360 118 -14 1 -51 -1 -82 -5z m440 -833 c87 -44 273 -164 398 -256 494 -364 779 -734 849 -1103 47 -246 -26 -480 -204 -658 -179 -179 -416 -252 -664 -205 -143 28 -268 95 -379 206 l-77 77 -40 -47 c-120 -142 -317 -236 -516 -247 -215 -12 -415 66 -565 221 -274 282 -280 686 -14 1093 167 257 447 522 809 764 l120 81 41 -46 c45 -50 80 -115 100 -189 l13 -49 -37 -15 c-117 -48 -208 -107 -320 -206 -141 -126 -217 -241 -277 -420 -32 -94 -35 -112 -25 -142 8 -23 8 -57 0 -116 -5 -46 -10 -142 -10 -214 0 -121 2 -135 26 -184 40 -79 142 -150 269 -186 33 -10 64 -21 70 -26 14 -14 48 -11 73 7 27 19 30 75 5 95 -9 9 -41 14 -77 14 -112 1 -244 84 -267 169 -8 27 -9 85 -5 171 8 159 17 210 44 238 11 12 34 65 51 117 17 52 50 129 75 170 76 130 295 320 412 357 50 15 55 15 99 -2 75 -28 191 -112 285 -204 113 -111 169 -209 215 -374 9 -32 24 -61 34 -67 10 -5 21 -24 25 -42 14 -68 25 -255 19 -322 -6 -66 -9 -72 -50 -114 -63 -62 -142 -97 -222 -97 -58 0 -66 -2 -85 -28 -19 -26 -19 -30 -6 -54 27 -47 40 -49 136 -18 49 15 115 41 146 58 72 37 153 121 167 173 14 50 14 226 0 334 -12 95 -12 109 -3 162 4 28 -1 60 -21 120 -55 167 -128 282 -252 398 -108 101 -172 147 -283 203 l-94 47 -13 63 c-15 74 -58 165 -109 230 -20 26 -35 49 -33 51 14 13 76 46 87 46 7 0 43 -15 80 -34z"/>
</g>
<g id="layer103" fill="#63bbe2" stroke="none">
<path d="M674 1858 l-29 -33 33 29 c30 28 37 36 29 36 -2 0 -16 -15 -33 -32z"/>
<path d="M2360 1785 c52 -52 97 -95 100 -95 2 0 -38 43 -90 95 -52 52 -97 95 -100 95 -2 0 38 -43 90 -95z"/>
<path d="M1130 1643 l-55 -58 58 55 c53 50 62 60 54 60 -1 0 -27 -26 -57 -57z"/>
<path d="M1810 1667 c0 -2 15 -16 33 -33 l32 -29 -29 33 c-28 30 -36 37 -36 29z"/>
<path d="M852 1050 c0 -19 2 -27 5 -17 2 9 2 25 0 35 -3 9 -5 1 -5 -18z"/>
<path d="M2203 1015 c0 -22 2 -30 4 -17 2 12 2 30 0 40 -3 9 -5 -1 -4 -23z"/>
<path d="M2113 1000 c0 -25 2 -35 4 -22 2 12 2 32 0 45 -2 12 -4 2 -4 -23z"/>
<path d="M143 885 c0 -27 2 -38 4 -22 2 15 2 37 0 50 -2 12 -4 0 -4 -28z"/>
<path d="M2113 835 c0 -22 2 -30 4 -17 2 12 2 30 0 40 -3 9 -5 -1 -4 -23z"/>
<path d="M2202 820 c0 -19 2 -27 5 -17 2 9 2 25 0 35 -3 9 -5 1 -5 -18z"/>
<path d="M330 395 c19 -19 36 -35 39 -35 3 0 -10 16 -29 35 -19 19 -36 35 -39 35 -3 0 10 -16 29 -35z"/>
<path d="M1560 358 c41 -45 50 -53 50 -45 0 2 -21 23 -47 47 l-48 45 45 -47z"/>
<path d="M2599 363 l-34 -38 38 34 c20 19 37 36 37 38 0 8 -8 0 -41 -34z"/>
</g>
<g id="layer104" fill="#e9f4f9" stroke="none">
<path d="M3053 3092 c-49 -38 -50 -106 -1 -147 76 -64 175 13 144 113 -15 46 -101 67 -143 34z m102 -46 c30 -45 -13 -98 -66 -81 -55 18 -38 105 21 105 20 0 35 -8 45 -24z"/>
</g>


</svg>