<!DOCTYPE svg PUBLIC "-//W3C//DTD SVG 20010904//EN" "http://www.w3.org/TR/2001/REC-SVG-20010904/DTD/svg10.dtd">
<svg version="1.0" xmlns="http://www.w3.org/2000/svg" width="751px" height="751px" viewBox="0 0 7510 7510" preserveAspectRatio="xMidYMid meet">
<g id="layer101" fill="#5a82ff" stroke="none">
 <path d="M1556 7499 c-253 -27 -515 -113 -719 -235 -223 -135 -459 -370 -589 -589 -130 -219 -212 -472 -238 -734 -6 -66 -10 -859 -10 -2195 0 -2267 -1 -2222 54 -2439 158 -622 630 -1095 1246 -1251 226 -57 170 -56 2455 -56 2285 0 2229 -1 2455 56 616 156 1088 629 1246 1251 55 217 54 172 54 2439 0 1336 -4 2129 -10 2195 -26 262 -108 515 -238 734 -130 219 -366 454 -589 589 -159 95 -384 179 -586 218 l-112 22 -2170 2 c-1193 1 -2205 -2 -2249 -7z m4542 -2233 c28 -16 52 -32 52 -36 0 -6 -668 -655 -1258 -1222 l-205 -197 -200 207 c-498 514 -502 517 -662 517 -150 0 -150 -1 -532 -390 l-327 -335 -120 118 c-67 64 -344 333 -616 596 -806 780 -751 725 -726 739 11 7 35 17 51 24 23 9 568 11 2260 10 l2230 -2 53 -29z m-3678 -1095 c184 -178 364 -352 400 -387 l64 -63 -155 -158 c-85 -87 -381 -392 -658 -678 -277 -286 -535 -551 -572 -589 -66 -68 -69 -69 -87 -52 -31 27 -79 125 -92 186 -8 41 -10 386 -8 1320 l3 1265 22 53 c13 29 30 64 39 77 l16 25 347 -338 c190 -185 497 -483 681 -661z m3870 819 c14 -72 13 -2440 0 -2535 -10 -67 -62 -184 -86 -192 -14 -5 -1419 1438 -1419 1457 0 5 268 269 595 587 327 317 654 635 725 705 l130 128 22 -49 c13 -26 27 -72 33 -101z m-2406 -571 c22 -6 52 -20 67 -31 15 -12 130 -127 256 -257 125 -130 515 -533 868 -896 352 -363 727 -749 833 -859 106 -109 190 -202 185 -206 -32 -29 -106 -30 -2283 -30 -1214 0 -2222 3 -2239 6 -18 4 -30 10 -29 15 2 4 125 133 273 286 149 153 535 553 859 888 324 336 686 708 805 829 260 264 295 286 405 255z"/>
 </g>
<g id="layer102" fill="#62aaff" stroke="none">
 <path d="M1556 7499 c-253 -27 -515 -113 -719 -235 -223 -135 -459 -370 -589 -589 -130 -219 -212 -472 -238 -734 -6 -67 -9 -848 -8 -2215 2 -1161 4 -1964 5 -1783 l3 327 40 0 c22 0 40 -4 40 -10 0 -5 14 -10 30 -10 20 0 30 5 30 15 0 11 12 15 50 15 43 0 50 -3 50 -20 0 -16 7 -20 35 -20 24 0 35 5 35 15 0 11 12 15 50 15 28 0 50 -4 50 -10 0 -5 14 -10 30 -10 20 0 30 5 30 15 0 12 13 15 55 15 48 0 55 -2 55 -20 0 -16 7 -20 30 -20 20 0 30 5 30 15 0 11 12 15 50 15 28 0 50 -4 50 -10 0 -5 16 -10 35 -10 24 0 35 5 35 15 0 11 12 15 50 15 43 0 50 -3 50 -20 0 -16 7 -20 30 -20 20 0 30 5 30 15 0 12 13 15 55 15 30 0 55 -4 55 -10 0 -5 14 -10 30 -10 20 0 30 5 30 15 0 11 12 15 50 15 43 0 50 -3 50 -20 0 -16 7 -20 35 -20 24 0 35 5 35 15 0 13 29 21 61 17 4 -1 -6 22 -21 51 -16 29 -33 77 -40 107 -8 40 -10 390 -8 1320 l3 1265 22 53 c13 29 30 64 39 77 l16 25 347 -338 c190 -185 497 -483 681 -661 184 -178 364 -352 399 -387 l65 -63 -290 -297 c-771 -791 -1084 -1118 -1084 -1130 0 -10 13 -14 40 -14 29 0 40 -4 40 -15 0 -8 5 -15 12 -15 7 0 -3 -17 -22 -37 -129 -141 320 319 1239 1272 879 911 915 945 1001 945 39 0 101 -20 131 -43 16 -11 183 -180 371 -376 189 -195 514 -531 723 -746 209 -215 510 -524 669 -688 l288 -297 44 0 c24 0 44 -4 44 -10 0 -5 16 -10 35 -10 20 0 35 5 35 12 0 6 9 3 20 -7 16 -15 23 -16 33 -6 9 10 9 11 -4 6 -11 -4 -149 131 -485 477 -727 747 -939 968 -939 978 0 6 214 218 477 473 262 254 589 571 726 704 l250 243 21 -50 c12 -27 26 -73 31 -101 13 -70 13 -2440 0 -2532 -6 -37 -18 -85 -28 -105 -25 -52 -10 -102 30 -102 18 0 28 5 28 15 0 11 12 15 50 15 28 0 50 -4 50 -10 0 -5 16 -10 35 -10 24 0 35 5 35 15 0 11 12 15 50 15 43 0 50 -3 50 -20 0 -16 7 -20 30 -20 20 0 30 5 30 15 0 12 13 15 55 15 30 0 55 -4 55 -10 0 -5 14 -10 30 -10 20 0 30 5 30 15 0 11 12 15 50 15 43 0 50 -3 50 -20 0 -16 7 -20 35 -20 24 0 35 5 35 15 0 11 12 15 50 15 28 0 50 -4 50 -10 0 -5 14 -10 30 -10 20 0 30 5 30 15 0 12 13 15 55 15 48 0 55 -2 55 -20 0 -16 7 -20 30 -20 20 0 30 5 30 15 0 11 12 15 50 15 28 0 50 -4 50 -10 0 -5 18 -10 40 -10 l40 0 3 -322 c1 -178 3 627 5 1788 1 1367 -2 2148 -8 2215 -26 262 -108 515 -238 734 -130 219 -366 454 -589 589 -159 95 -384 179 -586 218 l-112 22 -2170 2 c-1193 1 -2205 -2 -2249 -7z m4542 -2233 c28 -16 52 -32 52 -36 0 -6 -668 -655 -1258 -1222 l-205 -197 -200 207 c-498 514 -502 517 -662 517 -150 0 -150 -1 -532 -390 l-327 -335 -120 118 c-67 64 -344 333 -616 596 -806 780 -751 725 -726 739 11 7 35 17 51 24 23 9 568 11 2260 10 l2230 -2 53 -29z"/>
 <path d="M6063 2212 c21 -21 34 -42 30 -47 -5 -4 -2 -5 5 0 10 5 4 17 -24 46 -21 22 -40 39 -43 39 -3 0 12 -17 32 -38z"/>
 <path d="M2718 2133 c600 -2 1584 -2 2185 0 600 1 109 2 -1093 2 -1202 0 -1693 -1 -1092 -2z"/>
 <path d="M1643 3 c15 -2 37 -2 50 0 12 2 0 4 -28 4 -27 0 -38 -2 -22 -4z"/>
 <path d="M5823 3 c15 -2 37 -2 50 0 12 2 0 4 -28 4 -27 0 -38 -2 -22 -4z"/>
 </g>
<g id="layer103" fill="#6bdaff" stroke="none">
 <path d="M1556 7499 c-253 -27 -515 -113 -719 -235 -223 -135 -459 -370 -589 -589 -130 -219 -212 -472 -238 -734 -6 -63 -9 -452 -8 -1005 2 -495 4 -708 5 -472 l3 429 70 -7 c47 -5 70 -4 70 3 0 14 97 15 102 1 2 -7 58 -6 167 1 116 8 165 8 170 1 5 -8 53 -8 165 -1 110 7 161 7 165 0 5 -7 56 -7 166 0 114 8 160 8 163 0 2 -6 15 -11 28 -11 l24 0 2 -477 2 -478 6 545 c5 537 5 546 27 598 13 29 30 64 40 78 l16 26 176 -174 c96 -95 162 -158 146 -140 l-29 32 54 0 c29 0 51 3 47 6 -3 3 0 12 6 19 10 11 19 7 50 -23 20 -20 37 -34 37 -31 0 3 -90 91 -199 196 -195 188 -199 192 -177 206 58 38 44 38 2321 35 l2220 -3 53 -29 c28 -16 52 -33 52 -37 0 -4 -71 -76 -158 -161 -87 -84 -145 -142 -130 -129 31 27 40 11 11 -21 -15 -17 -14 -18 15 -18 18 0 32 -4 32 -10 0 -5 12 -10 26 -10 20 0 57 31 159 130 l132 131 23 -53 c13 -29 28 -88 34 -130 9 -70 12 -77 31 -73 53 11 263 15 266 6 3 -7 55 -7 164 0 114 8 160 8 163 0 4 -13 72 -15 72 -2 0 5 61 9 135 9 74 0 135 -4 135 -9 0 -13 58 -11 62 2 3 8 29 10 91 4 l87 -7 3 -431 c1 -238 3 -24 5 474 1 556 -2 947 -8 1010 -26 262 -108 515 -238 734 -130 219 -366 454 -589 589 -159 95 -384 179 -586 218 l-112 22 -2170 2 c-1193 1 -2205 -2 -2249 -7z"/>
 <path d="M5595 4688 l-60 -63 63 60 c58 55 67 65 59 65 -1 0 -29 -28 -62 -62z"/>
 <path d="M5705 4628 l-90 -93 93 90 c85 83 97 95 89 95 -1 0 -43 -42 -92 -92z"/>
 <path d="M2125 4620 c33 -33 62 -60 64 -60 3 0 -21 27 -54 60 -33 33 -62 60 -64 60 -3 0 21 -27 54 -60z"/>
 <path d="M2000 4575 c47 -47 87 -85 90 -85 2 0 -33 38 -80 85 -47 47 -87 85 -90 85 -2 0 33 -38 80 -85z"/>
 <path d="M5310 4413 l-55 -58 58 55 c53 50 62 60 54 60 -1 0 -27 -26 -57 -57z"/>
 <path d="M2440 4315 c30 -30 57 -55 59 -55 3 0 -19 25 -49 55 -30 30 -57 55 -59 55 -3 0 19 -25 49 -55z"/>
 <path d="M4215 4290 c33 -33 62 -60 64 -60 3 0 -21 27 -54 60 -33 33 -62 60 -64 60 -3 0 21 -27 54 -60z"/>
 <path d="M3595 4288 l-50 -53 53 50 c48 46 57 55 49 55 -1 0 -25 -24 -52 -52z"/>
 <path d="M5330 4263 l-55 -58 58 55 c53 50 62 60 54 60 -1 0 -27 -26 -57 -57z"/>
 <path d="M2340 4245 c35 -36 67 -65 69 -65 3 0 -24 29 -59 65 -35 36 -67 65 -69 65 -3 0 24 -29 59 -65z"/>
 <path d="M4170 4165 c19 -19 36 -35 39 -35 3 0 -10 16 -29 35 -19 19 -36 35 -39 35 -3 0 10 -16 29 -35z"/>
 <path d="M3265 4118 l-60 -63 63 60 c58 55 67 65 59 65 -1 0 -29 -28 -62 -62z"/>
 <path d="M4980 4095 c-24 -25 -42 -45 -39 -45 3 0 25 20 49 45 24 25 42 45 39 45 -3 0 -25 -20 -49 -45z"/>
 <path d="M2740 4027 c0 -1 35 -36 78 -77 l77 -75 -75 78 c-69 71 -80 82 -80 74z"/>
 <path d="M5000 3945 c-41 -41 -72 -75 -69 -75 2 0 38 34 79 75 41 41 72 75 69 75 -2 0 -38 -34 -79 -75z"/>
 <path d="M4545 3950 c33 -33 62 -60 64 -60 3 0 -21 27 -54 60 -33 33 -62 60 -64 60 -3 0 21 -27 54 -60z"/>
 <path d="M2665 3930 c33 -33 62 -60 64 -60 3 0 -21 27 -54 60 -33 33 -62 60 -64 60 -3 0 21 -27 54 -60z"/>
 <path d="M3205 3888 l-40 -43 43 40 c39 36 47 45 39 45 -2 0 -21 -19 -42 -42z"/>
 <path d="M4420 3907 c0 -2 15 -16 33 -33 l32 -29 -29 33 c-28 30 -36 37 -36 29z"/>
 <path d="M4719 3843 l-34 -38 38 34 c20 19 37 36 37 38 0 8 -8 0 -41 -34z"/>
 <path d="M4890 3597 c0 -2 15 -16 33 -33 l32 -29 -29 33 c-28 30 -36 37 -36 29z"/>
 </g>

</svg>