<!DOCTYPE svg PUBLIC "-//W3C//DTD SVG 20010904//EN" "http://www.w3.org/TR/2001/REC-SVG-20010904/DTD/svg10.dtd">
<svg version="1.0" xmlns="http://www.w3.org/2000/svg" width="720px" height="720px" viewBox="0 0 7200 7200" preserveAspectRatio="xMidYMid meet">
<g id="layer101" fill="#111111" stroke="none">
 <path d="M1860 6281 c-231 -65 -398 -220 -476 -442 l-29 -84 -3 -2130 c-2 -1965 -1 -2135 14 -2200 60 -250 247 -441 497 -506 68 -18 133 -19 1292 -19 l1220 0 738 738 737 737 -2 1695 -3 1695 -28 75 c-41 111 -83 175 -172 265 -64 64 -97 89 -165 122 -162 79 -19 73 -1886 72 -1579 0 -1673 -1 -1734 -18z m3408 -460 c48 -25 90 -66 109 -111 14 -31 16 -197 17 -1515 l1 -1480 -675 -5 -675 -5 -3 -672 -2 -673 -998 -1 c-548 -1 -1015 0 -1037 1 -87 4 -176 80 -192 166 -6 30 -9 832 -8 2099 2 1852 3 2053 18 2085 33 72 98 120 177 129 25 4 762 5 1638 4 1545 -3 1594 -3 1630 -22z m-478 -3856 l-285 -285 -3 272 c-1 150 0 278 3 285 3 10 68 13 287 13 l283 0 -285 -285z"/>
 <path d="M2245 5402 c-8 -8 -6 -452 3 -453 30 -6 443 -5 451 1 8 4 11 77 9 231 l-3 224 -227 1 c-125 0 -230 -1 -233 -4z"/>
 <path d="M3147 5395 c-2 -5 -3 -109 -2 -230 l2 -220 882 -1 c485 -1 893 1 907 4 l24 4 -2 227 -3 226 -902 0 c-599 0 -904 -3 -906 -10z"/>
 <path d="M2245 4497 c-3 -7 -4 -111 -3 -232 l3 -220 230 0 230 0 0 230 0 230 -228 3 c-179 2 -229 0 -232 -11z"/>
 <path d="M3148 4503 c-2 -5 -3 -109 -3 -233 l0 -225 905 0 905 0 0 230 0 230 -902 3 c-496 1 -903 -1 -905 -5z"/>
 <path d="M2325 3601 l-80 -6 0 -225 0 -225 230 0 230 0 3 219 c1 121 -1 223 -5 227 -11 10 -282 18 -378 10z"/>
 <path d="M3151 3595 c-13 -18 -7 -435 6 -443 6 -4 414 -7 905 -7 l893 0 2 222 c1 164 -1 224 -10 230 -19 12 -1787 10 -1796 -2z"/>
 </g>

</svg>