<?xml version="1.0" encoding="utf-8"?>
<!-- Generator: Adobe Illustrator 16.0.0, SVG Export Plug-In . SVG Version: 6.00 Build 0)  -->
<!DOCTYPE svg PUBLIC "-//W3C//DTD SVG 1.1//EN" "http://www.w3.org/Graphics/SVG/1.1/DTD/svg11.dtd">
<svg version="1.1" id="Layer_1" xmlns="http://www.w3.org/2000/svg" xmlns:xlink="http://www.w3.org/1999/xlink" x="0px" y="0px"
	 width="100px" height="100px" viewBox="0 0 100 100" enable-background="new 0 0 100 100" xml:space="preserve">
<g>
	<path d="M71.228,74.32L50.396,62.298l-1.48-0.854l-1.513,0.788c-1.751,0.909-3.324,2.104-4.656,3.53
		c-3.419-3.412-6.227-7.483-8.205-11.927c-1.977-4.44-3.127-9.251-3.378-14.083c1.951-0.035,3.892-0.401,5.743-1.095l1.599-0.599
		l0.354-1.67l5-23.538l0.356-1.676l-1.225-1.199c-1.01-0.985-2.137-1.846-3.348-2.552c-0.841-0.502-1.698-0.918-2.594-1.262
		C32.727,4.5,28.007,4.625,23.765,6.512c-3.937,1.754-7.064,4.881-8.809,8.807c-0.131,0.307-0.236,0.57-0.334,0.832l-0.143,0.386
		l-0.113,0.306C8.884,31.672,9.406,47.754,15.82,62.16c6.408,14.396,17.996,25.536,32.628,31.375
		c0.219,0.093,0.434,0.178,0.648,0.261l0.101,0.039c4.341,1.667,9.059,1.541,13.298-0.347c4.241-1.888,7.488-5.309,9.149-9.638
		c0.341-0.884,0.604-1.799,0.802-2.792c0.281-1.347,0.394-2.76,0.337-4.171l-0.071-1.713L71.228,74.32z"/>
	<path d="M50.821,37.178c6.248,2.399,9.383,9.434,6.983,15.686c-0.517,1.345,0.156,2.854,1.501,3.367
		c1.343,0.518,2.852-0.153,3.367-1.5c3.429-8.933-1.049-18.992-9.984-22.42c-1.343-0.516-2.852,0.155-3.367,1.5
		c-0.259,0.672-0.219,1.384,0.052,1.994C49.646,36.415,50.148,36.92,50.821,37.178z"/>
	<path d="M56.002,19.421c-1.345-0.517-2.854,0.155-3.368,1.5c-0.258,0.672-0.22,1.384,0.052,1.994s0.774,1.115,1.448,1.374
		c6.705,2.573,12.006,7.605,14.928,14.166c2.921,6.562,3.112,13.868,0.538,20.573c-0.516,1.346,0.155,2.854,1.5,3.369
		s2.853-0.157,3.368-1.5c3.073-8.005,2.844-16.729-0.644-24.563C70.336,28.499,64.009,22.494,56.002,19.421z"/>
	<path d="M85.324,31.213C80.235,19.782,70.996,11.016,59.313,6.531c-1.345-0.516-2.853,0.156-3.368,1.5
		c-0.259,0.672-0.219,1.386,0.052,1.996c0.272,0.61,0.775,1.117,1.448,1.374c10.383,3.985,18.592,11.774,23.115,21.935
		s4.82,21.473,0.835,31.856c-0.516,1.347,0.154,2.853,1.498,3.369c1.347,0.516,2.854-0.155,3.368-1.5
		C90.747,55.377,90.414,42.645,85.324,31.213z"/>
</g>
</svg>
